<svg width="50" height="50" viewBox="0 0 50 50" fill="none" xmlns="http://www.w3.org/2000/svg">
<path d="M40.096 43.9463C39.1122 44.2742 37.1146 44.6195 36.0532 44.4119L35.0562 44.2291C33.7445 43.9263 32.4384 43.3383 31.395 42.4768C30.8639 42.0381 30.9924 42.0755 30.2343 42.0679L10.8887 42.0585C8.06306 41.9304 4.6133 40.8574 3.90871 37.7603C3.72847 36.968 3.80984 36.1512 3.80972 35.3437L3.80883 10.7965C3.8091 9.70184 3.83456 8.89675 4.43293 7.92744C5.52673 6.15562 7.54 5.30536 9.55373 5.26905L32.3481 5.27137C32.4328 5.27478 32.5103 5.28683 32.5864 5.32546L32.6172 5.34171C33.2423 5.66089 33.0856 6.26948 33.0873 6.86108L33.0927 8.92142C34.3788 8.91452 34.5442 8.83713 34.546 10.2019L34.5467 12.3797C34.5469 12.7525 34.5041 13.1952 34.5773 13.5575L36.0174 13.5589C36.5028 13.5599 37.1192 13.4647 37.457 13.8987L37.4796 13.9282C37.6717 14.1752 37.5723 15.0679 37.573 15.3847L37.5816 25.8497C42.0983 26.343 45.8416 29.612 46.2559 34.297C46.6377 38.6144 44.1992 42.4834 40.096 43.9463ZM9.36714 6.73776C7.66769 6.60883 5.44388 8.12573 5.32338 9.92031C5.1899 11.908 7.01896 13.4336 8.9012 13.5473L33.0847 13.5624L33.085 11.3873C33.0842 11.0628 33.1156 10.6992 33.0718 10.3788L19.6655 10.3798L12.4643 10.3816C12.2088 10.3817 11.9226 10.4068 11.6703 10.3718C11.0353 10.2833 10.7243 9.29622 11.5723 8.98144L11.6064 8.96807C11.8005 8.89768 12.0669 8.9275 12.2739 8.92742L31.5905 8.92569L31.5847 6.75047L9.36714 6.73776ZM5.25462 13.433C5.34714 14.1916 5.31262 14.9773 5.3136 15.7395L5.31483 35.4848C5.31657 37.5062 5.24754 38.6951 7.45851 39.7436C9.22963 40.5835 11.0403 40.5683 12.9378 40.5693L29.5381 40.5695C28.6259 39.213 27.99 37.746 27.8718 36.0963C27.2948 36.0392 26.6943 36.0713 26.1142 36.0713L9.46758 36.0717C9.28412 36.071 9.09372 36.0798 8.91285 36.0448C7.88793 35.8463 7.68887 34.7809 7.68635 33.9252L7.68365 14.8251C6.57808 14.5156 6.12896 14.2529 5.25462 13.433ZM9.16085 15.0257L9.18384 32.0794C9.28068 31.9609 9.54136 31.8402 9.68129 31.72L10.1984 31.2548C10.8669 30.6207 11.4352 29.9033 11.929 29.127C12.7797 27.79 13.4682 26.0682 14.9098 25.2632C16.7549 24.2328 18.5522 25.273 19.6592 26.7995C19.7983 26.7343 19.9339 26.6194 20.0607 26.5316L20.7175 26.0763C21.438 25.5539 22.1391 24.9843 22.7865 24.3735C24.4227 22.8302 25.916 21.0484 28.3326 21.0132C31.6254 21.0479 32.9947 23.7324 34.57 26.2068L36.0872 25.976C36.129 25.8881 36.0993 15.8499 36.0946 15.0265L9.16085 15.0257ZM28.2942 22.1049C26.1622 22.2593 24.9041 23.935 23.4308 25.2794C22.5182 26.1121 21.3326 27.0964 20.2478 27.7093C20.9182 28.6977 21.7336 29.946 22.7229 30.6524C23.0198 30.8645 23.3852 30.9451 23.3029 31.3931C23.1158 32.4138 22.0106 31.5496 21.6263 31.2064C20.9945 30.6424 20.4484 29.966 19.9683 29.2704L19.1476 28.0359C18.5057 27.0588 17.6715 25.8909 16.3567 25.9853C14.8095 26.0963 14.1023 27.6399 13.4057 28.8164C12.6234 30.1377 11.7856 31.2926 10.6518 32.3451C10.1762 32.7663 9.7117 33.154 9.1822 33.5059C9.16975 33.8686 9.17595 34.2171 9.25663 34.5721L27.8329 34.5816C27.8643 34.3978 27.8638 34.2118 27.8853 34.0267C28.2391 30.9887 30.1275 28.3276 32.8369 26.9028L33.2609 26.6934C33.3216 26.6653 33.4275 26.6352 33.4702 26.5848C32.1369 24.7704 31.0306 21.9756 28.2942 22.1049ZM36.9551 27.3558C32.7003 27.4562 29.1639 31.0303 29.2782 35.3214C29.3907 39.5391 32.9457 42.9338 37.1432 42.9527C41.4885 42.9147 44.8102 39.3775 44.7757 35.058C44.7419 30.8144 41.1494 27.3828 36.9551 27.3558Z" fill="white"/>
<path d="M37.3517 29.6126C36.3578 29.7255 36.1231 28.4215 37.0759 28.1021C38.0754 28.07 38.2943 29.3201 37.3517 29.6126Z" fill="white"/>
<path d="M39.4116 37.3284C38.8269 37.3542 38.4248 36.8666 38.0131 36.5204C36.0767 34.8922 36.3559 35.1049 36.353 32.7802C36.3521 32.0144 36.0862 30.9546 37.0263 30.6441C38.0035 30.588 37.8418 31.7597 37.8423 32.394L37.8426 33.9233C37.8437 34.3802 37.7631 34.3224 38.1017 34.6136L38.9349 35.312C39.2228 35.5467 39.5287 35.7725 39.7999 36.0262C40.349 36.5397 40.0845 37.1575 39.4116 37.3284Z" fill="white"/>
<path d="M43.2607 35.9592C42.2525 35.8137 42.1842 34.5678 43.1803 34.408C44.1924 34.4595 44.2562 35.7825 43.2607 35.9592Z" fill="white"/>
<path d="M31.208 35.9833C30.3396 36.2672 29.8727 34.8363 30.7363 34.4771C31.7677 34.3288 32.0317 35.5193 31.208 35.9833Z" fill="white"/>
<path d="M37.3518 42.325C36.3214 42.4154 36.1211 41.1588 37.0184 40.7999C38.0851 40.6937 38.2418 42.0429 37.3518 42.325Z" fill="white"/>
</svg>
