<svg width="24" height="24" viewBox="0 0 24 24" fill="none" xmlns="http://www.w3.org/2000/svg">
<path opacity="0.5" d="M17.4214 11.939C17.4214 12.3208 17.2754 12.6465 16.9722 12.9385L8.2124 21.5073C7.97656 21.7544 7.66211 21.8779 7.30273 21.8779C6.57275 21.8779 6 21.3164 6 20.5752C6 20.2158 6.146 19.8901 6.39307 19.6431L14.2881 11.939L6.39307 4.23486C6.146 3.97656 6 3.65088 6 3.2915C6 2.56152 6.57275 2 7.30273 2C7.66211 2 7.97656 2.12354 8.2124 2.37061L16.9722 10.9395C17.2754 11.2314 17.4102 11.5571 17.4214 11.939Z" fill="#285471"/>
</svg>
