<svg width="24" height="24" viewBox="0 0 24 24" fill="none" xmlns="http://www.w3.org/2000/svg">
<path d="M0.471392 23.5319C0.675845 23.7359 0.916377 23.874 1.19299 23.946C1.4696 24.018 1.74922 24.018 2.03185 23.946C2.31448 23.874 2.55801 23.7359 2.76246 23.5319L11.9989 14.2956L21.2534 23.5319C21.4579 23.7359 21.6984 23.874 21.975 23.946C22.2516 24.018 22.5282 24.018 22.8048 23.946C23.0814 23.874 23.3219 23.7359 23.5264 23.5319C23.7429 23.3279 23.8842 23.0848 23.9503 22.8027C24.0166 22.5207 24.0166 22.2416 23.9503 21.9655C23.8842 21.6895 23.7429 21.4494 23.5264 21.2452L14.29 12.009L23.5264 2.79069C23.7429 2.58665 23.8842 2.34659 23.9503 2.07052C24.0166 1.79445 24.0166 1.51538 23.9503 1.23331C23.8842 0.951238 23.7429 0.708178 23.5264 0.504128C23.3219 0.300077 23.0814 0.162042 22.8048 0.0900241C22.5282 0.0180063 22.2516 0.0180063 21.975 0.0900241C21.6984 0.162042 21.4579 0.300077 21.2534 0.504128L11.9989 9.74041L2.76246 0.504128C2.55801 0.300077 2.31448 0.162042 2.03185 0.0900241C1.74922 0.0180063 1.4696 0.0180063 1.19299 0.0900241C0.916377 0.162042 0.675845 0.300077 0.471392 0.504128C0.254912 0.708178 0.113599 0.951238 0.0474528 1.23331C-0.0186936 1.51538 -0.0156869 1.79445 0.056473 2.07052C0.128633 2.34659 0.266939 2.58665 0.471392 2.79069L9.72589 12.009L0.471392 21.2452C0.266939 21.4494 0.128633 21.6895 0.056473 21.9655C-0.0156869 22.2416 -0.0186936 22.5207 0.0474528 22.8027C0.113599 23.0848 0.254912 23.3279 0.471392 23.5319Z" fill="#1500B5"/>
</svg>
