<svg width="24" height="24" viewBox="0 0 24 24" fill="none" xmlns="http://www.w3.org/2000/svg">
<path d="M20.5888 6.70162V4.81723C20.5888 4.37064 20.4041 3.94233 20.0751 3.62646C19.746 3.31061 19.2998 3.1331 18.8344 3.1331H16.5159L13.6693 0.630472C13.2139 0.225269 12.6157 0 11.9947 0C11.3736 0 10.7756 0.225286 10.3202 0.630472L7.48131 3.1331H5.16265C4.69741 3.1331 4.25123 3.3106 3.92216 3.62646C3.59313 3.9423 3.40821 4.37064 3.40821 4.81723V6.70405L0.471351 9.28586C0.171253 9.54945 0.000368028 9.92186 0 10.3122V21.7965C0.000718804 22.3807 0.242774 22.9408 0.672984 23.3538C1.10337 23.7669 1.68685 23.9993 2.29534 24H21.7047C22.3131 23.9993 22.8966 23.767 23.327 23.3538C23.7572 22.9408 23.9993 22.3807 24 21.7965V10.3047C23.9975 9.91695 23.8268 9.5476 23.5287 9.28578L20.5888 6.70162ZM22.3483 9.91651L20.5888 11.1109V8.3759L22.3483 9.91651ZM11.1989 1.5482C11.4171 1.35518 11.7031 1.24788 12 1.24788C12.2969 1.24788 12.583 1.35518 12.8011 1.5482L14.6044 3.13589H9.39036L11.1989 1.5482ZM5.16554 4.3698H18.8346C19.0921 4.3698 19.3009 4.57025 19.3009 4.81745V11.989L18.8295 12.3106L14.5994 8.2475C14.4784 8.13175 14.3144 8.06671 14.1435 8.06706C13.9724 8.06672 13.8085 8.13175 13.6874 8.2475L10.3769 11.4327L8.65089 9.78086C8.52779 9.66856 8.36462 9.60612 8.19499 9.60612C8.02517 9.60612 7.862 9.66857 7.7389 9.78086L5.13699 12.2859L4.69906 11.9892V4.81765C4.69906 4.57045 4.90788 4.37 5.1654 4.37L5.16554 4.3698ZM13.8473 14.2912C13.3395 13.8538 12.6812 13.6116 11.9989 13.6116C11.3166 13.6116 10.6581 13.8537 10.1505 14.2912L9.24099 15.0728L6.2037 13.0102L8.20288 11.0912L9.9212 12.7482C10.0421 12.8641 10.2062 12.929 10.3771 12.9286C10.5482 12.929 10.7121 12.8641 10.8332 12.7482L14.1436 9.55798L17.7502 13.02L14.7593 15.0728L13.8473 14.2912ZM3.41097 11.1136L1.65134 9.91903L3.41079 8.37586L3.41097 11.1136ZM21.7019 22.7639H2.29539C2.02835 22.7639 1.7721 22.6619 1.58325 22.4806C1.39421 22.2993 1.28818 22.0533 1.28818 21.7969V11.1879L8.24391 15.9187L3.34914 20.1227C3.08372 20.3501 3.06072 20.7409 3.29756 20.9956C3.53441 21.2504 3.94161 21.2724 4.20705 21.0451L11.0105 15.2213C11.2822 14.9872 11.6346 14.8576 11.9998 14.8576C12.3649 14.8576 12.7173 14.9872 12.989 15.2213L19.78 21.0499C20.0453 21.2773 20.4525 21.2552 20.6894 21.0004C20.9264 20.7457 20.9032 20.3549 20.638 20.1274L15.7432 15.9234L22.6989 11.1926V21.8015L22.6987 21.8017C22.6975 22.0551 22.5925 22.298 22.4065 22.4779C22.2205 22.6578 21.9684 22.7604 21.7044 22.7637L21.7019 22.7639Z" fill="#285471"/>
<path d="M10.2766 9.31061C10.8532 9.31061 11.4064 9.09067 11.8141 8.69926C12.2218 8.30786 12.451 7.77689 12.451 7.22335C12.451 6.6698 12.2218 6.139 11.8141 5.74743C11.4064 5.35603 10.8532 5.13626 10.2766 5.13626C9.69992 5.13626 9.14696 5.35603 8.73923 5.74743C8.33131 6.13901 8.10236 6.6698 8.10236 7.22335C8.1029 7.77672 8.33219 8.30717 8.73992 8.69855C9.14748 9.08979 9.70006 9.3099 10.2765 9.31057L10.2766 9.31061ZM10.2766 6.37278C10.5116 6.37278 10.7372 6.46231 10.9032 6.62187C11.0694 6.78143 11.1629 6.99775 11.1629 7.22337C11.1629 7.449 11.0694 7.66533 10.9032 7.82488C10.7371 7.98444 10.5116 8.07414 10.2766 8.07414C10.0415 8.07414 9.81617 7.98444 9.64996 7.82488C9.48373 7.66531 9.39047 7.449 9.39047 7.22337C9.39101 6.99792 9.48463 6.78195 9.65068 6.62258C9.81672 6.46319 10.0417 6.37332 10.2766 6.3728L10.2766 6.37278Z" fill="#285471"/>
</svg>
