<svg width="24" height="24" viewBox="0 0 24 24" fill="none" xmlns="http://www.w3.org/2000/svg">
<path d="M11.0498 14.9503L9.19985 16.8003C8.80985 17.1903 8.18985 17.1903 7.78985 16.8103C7.67985 16.7003 7.56985 16.6003 7.45985 16.4903C6.42985 15.4503 5.49985 14.3603 4.66985 13.2203C3.84985 12.0803 3.18985 10.9403 2.70985 9.81032C2.23985 8.67032 1.99985 7.58032 1.99985 6.54032C1.99985 5.86032 2.11985 5.21032 2.35985 4.61032C2.59985 4.00032 2.97985 3.44032 3.50985 2.94032C4.14985 2.31032 4.84985 2.00032 5.58985 2.00032C5.86985 2.00032 6.14985 2.06032 6.39985 2.18032C6.65985 2.30032 6.88985 2.48032 7.06985 2.74032L9.38985 6.01032C9.56985 6.26032 9.69985 6.49032 9.78985 6.71032C9.87985 6.92032 9.92985 7.13032 9.92985 7.32032C9.92985 7.56032 9.85985 7.80032 9.71985 8.03032C9.58985 8.26032 9.39985 8.50032 9.15985 8.74032L8.39985 9.53032C8.28985 9.64032 8.23985 9.77032 8.23985 9.93032C8.23985 10.0103 8.24985 10.0803 8.26985 10.1603C8.29985 10.2403 8.32985 10.3003 8.34985 10.3603C8.52985 10.6903 8.83985 11.1203 9.27985 11.6403C9.72985 12.1603 10.2098 12.6903 10.7298 13.2203C10.8298 13.3203 10.9398 13.4203 11.0398 13.5203C11.4398 13.9103 11.4498 14.5503 11.0498 14.9503Z" fill="black"/>
<path d="M21.9698 18.3305C21.9698 18.6105 21.9198 18.9005 21.8198 19.1805C21.7898 19.2605 21.7598 19.3405 21.7198 19.4205C21.5498 19.7805 21.3298 20.1205 21.0398 20.4405C20.5498 20.9805 20.0098 21.3705 19.3998 21.6205C19.3898 21.6205 19.3798 21.6305 19.3698 21.6305C18.7798 21.8705 18.1398 22.0005 17.4498 22.0005C16.4298 22.0005 15.3398 21.7605 14.1898 21.2705C13.0398 20.7805 11.8898 20.1205 10.7498 19.2905C10.3598 19.0005 9.96981 18.7105 9.59981 18.4005L12.8698 15.1305C13.1498 15.3405 13.3998 15.5005 13.6098 15.6105C13.6598 15.6305 13.7198 15.6605 13.7898 15.6905C13.8698 15.7205 13.9498 15.7305 14.0398 15.7305C14.2098 15.7305 14.3398 15.6705 14.4498 15.5605L15.2098 14.8105C15.4598 14.5605 15.6998 14.3705 15.9298 14.2505C16.1598 14.1105 16.3898 14.0405 16.6398 14.0405C16.8298 14.0405 17.0298 14.0805 17.2498 14.1705C17.4698 14.2605 17.6998 14.3905 17.9498 14.5605L21.2598 16.9105C21.5198 17.0905 21.6998 17.3005 21.8098 17.5505C21.9098 17.8005 21.9698 18.0505 21.9698 18.3305Z" fill="black"/>
<path d="M11.0498 14.9503L9.19985 16.8003C8.80985 17.1903 8.18985 17.1903 7.78985 16.8103C7.67985 16.7003 7.56985 16.6003 7.45985 16.4903C6.42985 15.4503 5.49985 14.3603 4.66985 13.2203C3.84985 12.0803 3.18985 10.9403 2.70985 9.81032C2.23985 8.67032 1.99985 7.58032 1.99985 6.54032C1.99985 5.86032 2.11985 5.21032 2.35985 4.61032C2.59985 4.00032 2.97985 3.44032 3.50985 2.94032C4.14985 2.31032 4.84985 2.00032 5.58985 2.00032C5.86985 2.00032 6.14985 2.06032 6.39985 2.18032C6.65985 2.30032 6.88985 2.48032 7.06985 2.74032L9.38985 6.01032C9.56985 6.26032 9.69985 6.49032 9.78985 6.71032C9.87985 6.92032 9.92985 7.13032 9.92985 7.32032C9.92985 7.56032 9.85985 7.80032 9.71985 8.03032C9.58985 8.26032 9.39985 8.50032 9.15985 8.74032L8.39985 9.53032C8.28985 9.64032 8.23985 9.77032 8.23985 9.93032C8.23985 10.0103 8.24985 10.0803 8.26985 10.1603C8.29985 10.2403 8.32985 10.3003 8.34985 10.3603C8.52985 10.6903 8.83985 11.1203 9.27985 11.6403C9.72985 12.1603 10.2098 12.6903 10.7298 13.2203C10.8298 13.3203 10.9398 13.4203 11.0398 13.5203C11.4398 13.9103 11.4498 14.5503 11.0498 14.9503Z" fill="white"/>
<path d="M21.9698 18.3305C21.9698 18.6105 21.9198 18.9005 21.8198 19.1805C21.7898 19.2605 21.7598 19.3405 21.7198 19.4205C21.5498 19.7805 21.3298 20.1205 21.0398 20.4405C20.5498 20.9805 20.0098 21.3705 19.3998 21.6205C19.3898 21.6205 19.3798 21.6305 19.3698 21.6305C18.7798 21.8705 18.1398 22.0005 17.4498 22.0005C16.4298 22.0005 15.3398 21.7605 14.1898 21.2705C13.0398 20.7805 11.8898 20.1205 10.7498 19.2905C10.3598 19.0005 9.96981 18.7105 9.59981 18.4005L12.8698 15.1305C13.1498 15.3405 13.3998 15.5005 13.6098 15.6105C13.6598 15.6305 13.7198 15.6605 13.7898 15.6905C13.8698 15.7205 13.9498 15.7305 14.0398 15.7305C14.2098 15.7305 14.3398 15.6705 14.4498 15.5605L15.2098 14.8105C15.4598 14.5605 15.6998 14.3705 15.9298 14.2505C16.1598 14.1105 16.3898 14.0405 16.6398 14.0405C16.8298 14.0405 17.0298 14.0805 17.2498 14.1705C17.4698 14.2605 17.6998 14.3905 17.9498 14.5605L21.2598 16.9105C21.5198 17.0905 21.6998 17.3005 21.8098 17.5505C21.9098 17.8005 21.9698 18.0505 21.9698 18.3305Z" fill="white"/>
</svg>
