<svg width="24" height="24" viewBox="0 0 24 24" fill="none" xmlns="http://www.w3.org/2000/svg">
<g clip-path="url(#clip0_678_12)">
<path d="M16.0757 0H7.96779C6.58937 0 5.41817 1.12393 5.41817 2.50197V21.5009C5.41817 22.8789 6.56459 24 7.94301 24L16.0642 23.9912C17.4425 23.9912 18.57 22.87 18.57 21.4917L18.5818 2.50063C18.5817 1.11764 17.4596 0 16.0757 0ZM10.8504 1.50004H13.2028C13.4094 1.50004 13.5777 1.66779 13.5777 1.875C13.5777 2.08221 13.4094 2.24996 13.2028 2.24996H10.8504C10.8012 2.24998 10.7524 2.24029 10.7069 2.22145C10.6614 2.20262 10.6201 2.175 10.5853 2.14018C10.5504 2.10535 10.5228 2.06401 10.504 2.01851C10.4851 1.97301 10.4755 1.92424 10.4755 1.875C10.4755 1.82575 10.4851 1.77698 10.504 1.73148C10.5228 1.68598 10.5504 1.64464 10.5853 1.60982C10.6201 1.575 10.6614 1.54738 10.7069 1.52854C10.7524 1.5097 10.8012 1.50002 10.8504 1.50004ZM9.43694 1.61937C9.57591 1.48059 9.82887 1.47869 9.96765 1.61937C10.0381 1.69013 10.0779 1.7858 10.0784 1.88567C10.0784 1.98327 10.0372 2.08049 9.96765 2.15007C9.89845 2.21965 9.80066 2.26063 9.70325 2.26063C9.60393 2.26063 9.50843 2.21965 9.43694 2.15007C9.36775 2.08068 9.32829 1.98327 9.32829 1.88567C9.3281 1.78617 9.36775 1.68876 9.43694 1.61937ZM11.9509 23.2567C11.3321 23.2567 10.8289 22.7531 10.8289 22.1345C10.8289 21.5158 11.3321 21.0123 11.9509 21.0123C12.5697 21.0123 13.0729 21.5158 13.0729 22.1345C13.0729 22.7531 12.5695 23.2567 11.9509 23.2567ZM17.4179 20.2496H6.73063V3.56261H17.4179V20.2496Z" fill="#285471"/>
</g>
<defs>
<clipPath id="clip0_678_12">
<rect width="24" height="24" fill="white"/>
</clipPath>
</defs>
</svg>
