<svg width="30" height="24" viewBox="0 0 30 24" fill="none" xmlns="http://www.w3.org/2000/svg">
<path d="M8.77363 6.30876C8.05337 6.30619 7.54361 6.07708 6.96772 5.63864C6.64473 5.39276 6.06311 4.93018 6.19065 4.45435C6.3036 4.0331 6.76591 4.00397 7.10282 3.86645C7.27251 3.79725 7.41958 3.70043 7.57761 3.60963C7.29154 3.17705 6.85508 2.3764 7.0344 1.88977C7.12684 1.63882 7.04906 1.38401 7.09132 1.12359C7.20779 0.405857 7.97141 0.0251136 8.64052 0.000206691C9.42816 -0.0108587 10.3162 0.422385 10.3236 1.2975L10.3254 1.58256C10.3258 1.64835 10.3231 1.7136 10.3452 1.7766L10.4134 1.98928C10.5013 2.3183 10.2532 2.87164 10.0783 3.17195L9.82672 3.56338C10.0721 3.81374 10.4081 3.8863 10.724 4.00717C11.3785 4.25753 11.3434 4.74564 10.9166 5.20717C10.3496 5.82037 9.62834 6.28123 8.77363 6.30876ZM8.61178 0.599708C7.92236 0.635938 7.61063 0.952156 7.65224 1.63481C7.66343 1.81931 7.66748 1.89902 7.57336 2.06335C7.49468 2.20081 7.53546 2.23332 7.58962 2.38063C7.78722 2.91745 8.12811 3.69517 8.83504 3.57259C9.33926 3.49262 9.58989 2.96648 9.75946 2.5382L9.89612 2.14403C9.68421 1.84413 9.78488 1.73606 9.77342 1.39556C9.75209 0.762597 9.14053 0.582283 8.61178 0.599708ZM9.19005 4.05536L8.99502 4.0795C8.80276 4.11369 8.37893 4.09997 8.19584 4.06749C8.20118 4.13128 8.3061 4.24637 8.34985 4.2955C8.58722 4.51318 8.88472 4.49151 9.10349 4.25234C9.1226 4.23148 9.27076 4.05486 9.19005 4.05536ZM9.75923 4.24548C9.46111 4.83177 8.89142 5.24012 8.24029 4.90164C7.96568 4.75894 7.81069 4.53015 7.66226 4.26887L6.7553 4.60282C6.91364 4.85275 7.1649 5.06123 7.40063 5.23583C8.42561 5.98393 9.36831 5.82805 10.2769 5.01846C10.3911 4.91669 10.5127 4.80335 10.602 4.67885L10.6469 4.61284C10.5338 4.54251 10.3838 4.50445 10.2591 4.45466L9.75923 4.24548Z" fill="#285471"/>
<path d="M8.93222 18.065C8.09861 18.045 7.28194 17.5292 6.76468 16.8889C6.59577 16.6797 6.4092 16.444 6.52549 16.1602C6.75486 15.6007 7.57335 15.894 7.87322 15.3373C7.96972 15.158 7.75708 15.0102 7.64253 14.8194C7.47802 14.5455 7.32556 14.1352 7.51232 13.8416C7.62558 13.6636 7.6315 13.7553 7.63669 13.5319C7.65048 12.9401 7.91332 12.5798 8.46531 12.3477C8.53975 12.3165 8.61724 12.3044 8.69062 12.2739L8.68739 9.26641L4.19632 9.26796C4.17099 9.31169 4.16628 9.36102 4.14769 9.40769C4.0697 9.60324 3.9557 9.78512 3.83511 9.95594C3.72072 10.1181 3.60435 10.245 3.69804 10.4543C3.83566 10.7618 4.77283 10.6754 4.53072 11.1822C4.38461 11.4881 3.56385 11.8439 3.24372 11.9513C2.50741 12.1983 1.9621 11.9861 1.29704 11.6445C1.09057 11.5384 0.750804 11.3791 0.679595 11.1332C0.546904 10.6751 1.36097 10.8514 1.59084 10.4204C1.69724 10.221 1.48201 10.0168 1.37362 9.83298L1.17494 9.47172C1.00202 9.16011 0.868128 8.85056 1.08714 8.50139C1.13774 8.42066 1.12113 8.3805 1.12315 8.28427C1.12795 8.05536 1.15786 7.8374 1.26648 7.63328C1.88937 6.46311 4.11643 6.74146 4.20241 8.16579C4.21032 8.29715 4.18853 8.46004 4.22602 8.58545L4.24816 8.66789C4.37081 8.69247 4.50449 8.68375 4.62933 8.68406L8.28467 8.68486C8.41449 8.68502 8.55258 8.67605 8.68096 8.69243L8.68934 7.59542C8.68836 7.28321 8.57857 6.88765 8.94548 6.76129L8.97837 6.75887C9.16864 6.75439 9.26214 6.94467 9.26183 7.1187L9.26561 8.68133L13.1882 8.68351C13.369 8.68339 13.5647 8.69818 13.743 8.67185C13.7818 8.44001 13.7541 8.20294 13.7967 7.97487C14.0389 6.67687 16.1879 6.5367 16.727 7.69085C16.8894 8.03855 16.7749 8.34787 16.9072 8.56075C17.1556 8.96051 16.7305 9.63584 16.5146 9.95931L16.3884 10.144C16.3285 10.2348 16.3315 10.3008 16.3645 10.4064C16.4789 10.7735 17.0228 10.6294 17.233 10.8989C17.6291 11.407 15.9114 12.0163 15.5476 12.0607C15.0242 12.1247 14.4976 11.8883 14.0419 11.6573C13.8133 11.5415 13.3344 11.3259 13.4018 10.9915C13.4592 10.7066 13.91 10.7562 14.0968 10.6258C14.534 10.3206 14.0992 9.96688 13.9254 9.65059L13.8041 9.41288C13.7808 9.36316 13.7709 9.31161 13.7353 9.26919L9.26171 9.26308L9.26261 12.286C9.3084 12.3013 9.35825 12.3013 9.40521 12.3126C9.76943 12.4 10.1483 12.7621 10.2708 13.1115C10.3403 13.31 10.2628 13.6215 10.3777 13.7525C10.6409 14.0526 10.5615 14.3841 10.3767 14.724C10.2667 14.9265 10.0701 15.1095 10.0903 15.3575C10.1077 15.5697 10.5626 15.7044 10.7308 15.7436C11.0744 15.8237 11.433 15.841 11.4496 16.3468C11.4589 16.6257 11.2333 16.8569 11.0585 17.0447C10.4514 17.6967 9.8084 18.0415 8.93222 18.065ZM2.6089 7.48198C2.26096 7.50596 1.79551 7.67975 1.70408 8.06809L1.70024 8.08403C1.66022 8.26266 1.70571 8.44672 1.68349 8.62463C1.6575 8.83275 1.48923 8.84834 1.58961 9.0452L1.92207 9.63029C2.12456 9.94888 2.31536 10.1576 2.69943 10.149C3.23296 10.0658 3.54593 9.37973 3.7346 8.92974C3.58279 8.63228 3.64543 8.55151 3.63584 8.22903C3.62115 7.73665 3.04274 7.45418 2.6089 7.48198ZM15.1784 7.49082C14.7985 7.5478 14.3935 7.75723 14.3426 8.17943L14.3404 8.1964C14.3007 8.53046 14.3999 8.51753 14.2401 8.86721C14.1609 9.04036 14.5877 9.65935 14.6933 9.79452C14.8943 10.0515 15.1014 10.1802 15.421 10.1469C15.8909 10.0597 16.1493 9.48961 16.3338 9.09437C16.436 8.87526 16.3865 8.95032 16.3112 8.73605L16.3055 8.72034C16.2471 8.55016 16.3048 8.33153 16.2782 8.15171C16.2052 7.65763 15.6028 7.45422 15.1784 7.49082ZM3.11981 10.6189C2.81721 10.6919 2.44433 10.7297 2.1468 10.6229L2.14248 10.6357C2.06937 10.8457 1.85257 11.0364 1.65505 11.126L1.59604 11.1483L2.15886 11.3914C2.78204 11.5554 3.08997 11.3677 3.66573 11.1453C3.35347 11.0271 3.28394 10.8742 3.13888 10.6165L3.11981 10.6189ZM15.8103 10.6189L15.7967 10.6229C15.5486 10.6963 15.2245 10.7092 14.9665 10.6757C14.9274 10.6706 14.8409 10.611 14.818 10.6557C14.7014 10.8838 14.5328 11.0339 14.3045 11.144C14.4955 11.2338 14.682 11.3255 14.8836 11.3887C15.3041 11.4993 15.6414 11.4619 16.0422 11.3056L16.3549 11.1685C16.1556 11.0674 15.9167 10.8809 15.8425 10.6578L15.8103 10.6189ZM8.93651 12.8446C8.60262 12.873 8.2927 13.0581 8.20602 13.4019L8.20119 13.4207C8.17679 13.5178 8.18369 13.6281 8.19039 13.7274C8.21303 14.0628 8.00472 14.1195 7.99575 14.2287C7.9896 14.3043 8.31589 14.8396 8.37599 14.9397C8.5327 15.2006 8.74195 15.4149 9.05936 15.3928C9.51083 15.3215 9.80006 14.5771 9.98351 14.2119C9.69853 13.9499 9.79932 13.8944 9.79597 13.5541C9.79191 13.149 9.35423 12.8331 8.98289 12.8423L8.93651 12.8446ZM9.42322 15.8656C9.14268 15.914 8.83619 15.9261 8.55378 15.8787C8.56177 15.905 8.58309 15.9294 8.59861 15.9519L8.71463 16.1109C8.7713 16.1726 8.83471 16.2538 8.92462 16.2594C9.13984 16.2727 9.3814 16.0665 9.45366 15.8656H9.42322ZM7.97927 16.0592C7.68248 16.2092 7.40955 16.3245 7.08286 16.3887C7.57098 16.9304 8.12413 17.424 8.88951 17.4573C9.38222 17.4787 9.88939 17.2948 10.2742 16.9825C10.4598 16.832 10.7161 16.6034 10.8431 16.3938C10.531 16.3233 10.2578 16.2117 9.97661 16.0577C9.81093 16.3888 9.62756 16.6697 9.26035 16.7901C8.38101 17.0785 8.07635 16.0592 7.97927 16.0592Z" fill="#285471"/>
<path d="M2.60735 18.4053C1.69533 18.5153 0.60154 17.802 0.133447 17.0537C0.0150691 16.8645 -0.057476 16.6677 0.0589604 16.4549C0.314089 15.9885 1.02826 16.2341 1.33109 15.7907C1.39158 15.7021 1.41603 15.6814 1.36943 15.59C1.29145 15.437 1.16749 15.3111 1.08423 15.1603C0.949461 14.9162 0.798495 14.3918 1.07416 14.1791C1.17544 14.1009 1.14274 14.027 1.14434 13.9121C1.15385 13.2284 1.68161 12.83 2.3307 12.7504C2.33457 12.7496 2.33858 12.7497 2.34253 12.7494C3.02394 12.6986 3.74559 13.1062 3.77978 13.8458C3.7955 14.1862 3.72913 14.0345 3.92264 14.2652C4.1066 14.4845 3.95879 14.9943 3.82076 15.2252C3.68632 15.4501 3.42949 15.6566 3.69712 15.8928C4.03353 16.1895 4.52142 16.0565 4.82051 16.315C5.16425 16.612 4.9351 17.0395 4.68642 17.3104C4.13323 17.9131 3.44544 18.3689 2.60735 18.4053ZM2.36473 13.3122C2.06614 13.3504 1.7932 13.5302 1.70924 13.8273L1.70445 13.8437C1.66177 13.9985 1.71547 14.1582 1.69137 14.3116C1.67358 14.4249 1.48243 14.5971 1.48746 14.6629C1.49541 14.7669 1.62334 14.9486 1.67572 15.0381C1.8767 15.3814 2.114 15.8688 2.58982 15.7814C2.8574 15.7036 2.98981 15.4915 3.1282 15.2658L3.47293 14.6464C3.17418 14.3604 3.27942 14.3179 3.26133 13.9663C3.24112 13.5738 2.77811 13.2977 2.42002 13.3093C2.40706 13.3097 2.37576 13.308 2.36473 13.3122ZM2.01884 16.2625C2.19247 16.5125 2.39498 16.7802 2.70335 16.5483L2.80936 16.4516L2.94805 16.2547C2.6483 16.3211 2.32097 16.3058 2.01884 16.2625ZM1.46615 16.426C1.18786 16.5814 0.900813 16.702 0.579277 16.7283C1.4058 17.8095 2.63067 18.2106 3.7808 17.3608C3.98897 17.1951 4.21585 16.9938 4.35477 16.7641C4.04975 16.6849 3.74968 16.581 3.4727 16.4284C3.01469 17.4025 2.0817 17.5115 1.53726 16.5211C1.52211 16.4935 1.49757 16.4282 1.46615 16.426Z" fill="#285471"/>
<path d="M21 8C20.3384 8 19.7948 8.54081 19.7331 9.23231L19.7273 9.36364L19.7276 14.1357L15.2727 14.1364C14.5698 14.1364 14 14.7469 14 15.5C14 16.2088 14.5048 16.7913 15.1502 16.8574L15.2727 16.8636L19.7276 16.8633L19.7273 21.6364C19.7273 22.3895 20.2971 23 21 23C21.6616 23 22.2052 22.4592 22.2669 21.7677L22.2727 21.6364L22.2734 16.8633L26.7273 16.8636C27.4302 16.8636 28 16.2531 28 15.5C28 14.7912 27.4952 14.2087 26.8498 14.1426L26.7273 14.1364L22.2734 14.1357L22.2727 9.36364C22.2727 8.61052 21.7029 8 21 8Z" fill="#285471"/>
</svg>
