<svg width="24" height="20" viewBox="0 0 24 20" fill="none" xmlns="http://www.w3.org/2000/svg">
<path d="M7.0189 5.04701C6.44269 5.04495 6.03489 4.86166 5.57417 4.51091C5.31578 4.31421 4.85049 3.94414 4.95252 3.56348C5.04288 3.22648 5.41273 3.20318 5.68225 3.09316C5.81801 3.0378 5.93566 2.96034 6.06209 2.8877C5.83323 2.54164 5.48406 1.90112 5.62752 1.51182C5.70147 1.31106 5.63925 1.10721 5.67305 0.898872C5.76623 0.324686 6.37713 0.0200909 6.91241 0.000165352C7.54253 -0.00868696 8.25296 0.337908 8.25888 1.038L8.26032 1.26605C8.26064 1.31868 8.25848 1.37088 8.27616 1.42128L8.33072 1.59142C8.40104 1.85464 8.20256 2.29731 8.06264 2.53756L7.86137 2.8507C8.05768 3.05099 8.32648 3.10904 8.5792 3.20574C9.1028 3.40602 9.07472 3.79651 8.73328 4.16574C8.27968 4.6563 7.70267 5.02498 7.0189 5.04701ZM6.88942 0.479766C6.33789 0.50875 6.0885 0.761725 6.12179 1.30785C6.13074 1.45545 6.13398 1.51922 6.05869 1.65068C5.99574 1.76065 6.02837 1.78666 6.07169 1.9045C6.22977 2.33396 6.50249 2.95614 7.06803 2.85807C7.47141 2.7941 7.67191 2.37318 7.80757 2.03056L7.91689 1.71522C7.74737 1.4753 7.8279 1.38885 7.81873 1.11645C7.80167 0.610078 7.31242 0.465826 6.88942 0.479766ZM7.35204 3.24429L7.19601 3.2636C7.04221 3.29095 6.70314 3.27998 6.55667 3.25399C6.56094 3.30502 6.64488 3.3971 6.67988 3.4364C6.86977 3.61054 7.10777 3.59321 7.28279 3.40187C7.29808 3.38518 7.41661 3.24389 7.35204 3.24429ZM7.80738 3.39638C7.56889 3.86542 7.11313 4.1921 6.59223 3.92131C6.37254 3.80715 6.24855 3.62412 6.12981 3.4151L5.40424 3.68226C5.53091 3.8822 5.73192 4.04898 5.9205 4.18866C6.74049 4.78714 7.49465 4.66244 8.22152 4.01477C8.31288 3.93335 8.41016 3.84268 8.4816 3.74308L8.51752 3.69027C8.42704 3.63401 8.30704 3.60356 8.20728 3.56373L7.80738 3.39638Z" fill="#285471"/>
<path d="M7.14578 14.452C6.47889 14.436 5.82556 14.0234 5.41175 13.5111C5.27662 13.3438 5.12736 13.1552 5.22039 12.9282C5.40389 12.4806 6.05868 12.7152 6.29858 12.2698C6.37578 12.1264 6.20567 12.0082 6.11403 11.8555C5.98242 11.6364 5.86045 11.3082 6.00986 11.0733C6.10047 10.9309 6.1052 11.0042 6.10936 10.8255C6.12039 10.3521 6.33066 10.0638 6.77225 9.87815C6.8318 9.85319 6.8938 9.84351 6.9525 9.81911L6.94992 7.41312L3.35706 7.41436C3.33679 7.44935 3.33303 7.48881 3.31815 7.52615C3.25576 7.68259 3.16456 7.82809 3.06809 7.96475C2.97658 8.09447 2.88348 8.19599 2.95843 8.36343C3.06853 8.60943 3.81827 8.54031 3.62458 8.94575C3.50769 9.19047 2.85108 9.47511 2.59498 9.56103C2.00593 9.75863 1.56968 9.58887 1.03763 9.31559C0.872459 9.23071 0.600646 9.10327 0.543679 8.90655C0.437526 8.54007 1.08878 8.68111 1.27267 8.33631C1.35779 8.17679 1.18561 8.01343 1.0989 7.86638L0.939955 7.57737C0.801619 7.32808 0.694505 7.08044 0.869715 6.80111C0.910195 6.73652 0.896907 6.70439 0.898523 6.62741C0.902363 6.44428 0.926291 6.26991 1.01319 6.10662C1.5115 5.17048 3.29315 5.39316 3.36193 6.53263C3.36826 6.63771 3.35083 6.76803 3.38082 6.86835L3.39853 6.93431C3.49665 6.95397 3.6036 6.94699 3.70347 6.94724L6.62774 6.94788C6.7316 6.94801 6.84207 6.94083 6.94477 6.95394L6.95147 6.07633C6.95069 5.82656 6.86286 5.51011 7.15639 5.40903L7.1827 5.40709C7.33491 5.40351 7.40972 5.55573 7.40947 5.69495L7.41249 6.94506L10.5506 6.9468C10.6952 6.94671 10.8518 6.95854 10.9944 6.93747C11.0254 6.752 11.0033 6.56235 11.0374 6.37989C11.2311 5.34149 12.9503 5.22935 13.3816 6.15267C13.5115 6.43083 13.4199 6.67829 13.5258 6.84859C13.7245 7.1684 13.3844 7.70867 13.2117 7.96744L13.1107 8.11519C13.0628 8.18783 13.0652 8.24063 13.0916 8.32511C13.1831 8.61879 13.6182 8.50351 13.7864 8.71911C14.1033 9.12559 12.7291 9.61303 12.4381 9.64855C12.0194 9.69975 11.5981 9.51063 11.2335 9.32583C11.0506 9.23319 10.6675 9.06071 10.7214 8.79319C10.7674 8.56527 11.128 8.60495 11.2774 8.50063C11.6272 8.25647 11.2794 7.9735 11.1403 7.72047L11.0433 7.5303C11.0246 7.49052 11.0167 7.44928 10.9882 7.41535L7.40937 7.41046L7.41009 9.82879C7.44672 9.84103 7.4866 9.84103 7.52417 9.85007C7.81555 9.91999 8.11864 10.2097 8.21664 10.4892C8.27224 10.648 8.21024 10.8972 8.30216 11.002C8.51272 11.2421 8.4492 11.5073 8.30136 11.7792C8.21336 11.9412 8.05608 12.0876 8.07224 12.286C8.08616 12.4558 8.45008 12.5635 8.58464 12.5949C8.85952 12.659 9.1464 12.6728 9.15968 13.0774C9.16712 13.3006 8.98664 13.4855 8.8468 13.6358C8.36112 14.1574 7.84672 14.4332 7.14578 14.452ZM2.08712 5.98558C1.80877 6.00476 1.43641 6.14379 1.36327 6.45447L1.36019 6.46722C1.32818 6.61012 1.36457 6.75737 1.34679 6.8997C1.326 7.06619 1.19139 7.07867 1.27169 7.23615L1.53766 7.70423C1.69965 7.9591 1.85229 8.12607 2.15955 8.11919C2.58637 8.05263 2.83675 7.50378 2.98768 7.14379C2.86623 6.90582 2.91635 6.8412 2.90867 6.58322C2.89692 6.18931 2.4342 5.96334 2.08712 5.98558ZM12.1427 5.99265C11.8388 6.03823 11.5148 6.20578 11.4741 6.54354L11.4723 6.55711C11.4406 6.82436 11.5199 6.81402 11.3921 7.09376C11.3287 7.23228 11.6702 7.72747 11.7546 7.83561C11.9154 8.04119 12.0811 8.14415 12.3368 8.11751C12.7127 8.04775 12.9194 7.59168 13.067 7.27549C13.1488 7.1002 13.1092 7.16025 13.049 6.98883L13.0444 6.97627C12.9977 6.84012 13.0438 6.66522 13.0226 6.52136C12.9642 6.1261 12.4822 5.96337 12.1427 5.99265ZM2.49585 8.49511C2.25377 8.55351 1.95547 8.58375 1.71744 8.49831L1.71399 8.50855C1.6555 8.67655 1.48206 8.82911 1.32404 8.90079L1.27683 8.91863L1.72709 9.11311C2.22563 9.24431 2.47198 9.09415 2.93259 8.91623C2.68278 8.82167 2.62715 8.69935 2.51111 8.49319L2.49585 8.49511ZM12.6482 8.49511L12.6374 8.49831C12.4389 8.55703 12.1796 8.56735 11.9732 8.54055C11.9419 8.53647 11.8727 8.48879 11.8544 8.52455C11.7611 8.70703 11.6262 8.82711 11.4436 8.91519C11.5964 8.98703 11.7456 9.06039 11.9069 9.11095C12.2433 9.19943 12.5131 9.16951 12.8338 9.04447L13.0839 8.93479C12.9245 8.85391 12.7334 8.70471 12.674 8.52623L12.6482 8.49511ZM7.14921 10.2757C6.8821 10.2984 6.63416 10.4465 6.56482 10.7215L6.56096 10.7366C6.54144 10.8142 6.54695 10.9025 6.55231 10.9819C6.57043 11.2502 6.40378 11.2956 6.3966 11.383C6.39168 11.4434 6.65272 11.8717 6.7008 11.9518C6.82616 12.1605 6.99356 12.3319 7.24749 12.3142C7.60867 12.2572 7.84005 11.6617 7.98681 11.3695C7.75883 11.1599 7.83946 11.1155 7.83678 10.8433C7.83353 10.5192 7.48339 10.2665 7.18632 10.2738L7.14921 10.2757ZM7.53858 12.6925C7.31415 12.7312 7.06895 12.7409 6.84303 12.703C6.84942 12.724 6.86648 12.7435 6.87889 12.7615L6.97171 12.8887C7.01704 12.9381 7.06777 13.003 7.1397 13.0075C7.31187 13.0182 7.50512 12.8532 7.56293 12.6925H7.53858ZM6.38342 12.8474C6.14599 12.9674 5.92764 13.0596 5.66629 13.111C6.05679 13.5443 6.49931 13.9392 7.11161 13.9658C7.50578 13.983 7.91152 13.8358 8.21936 13.586C8.36784 13.4656 8.57288 13.2827 8.67448 13.115C8.4248 13.0586 8.20624 12.9694 7.98129 12.8462C7.84875 13.111 7.70205 13.3358 7.40828 13.4321C6.70481 13.6628 6.46108 12.8474 6.38342 12.8474Z" fill="#285471"/>
<path d="M2.08588 14.7242C1.35626 14.8122 0.481232 14.2416 0.106758 13.643C0.0120553 13.4916 -0.0459808 13.3342 0.0471683 13.1639C0.251271 12.7908 0.822608 12.9873 1.06487 12.6326C1.11326 12.5617 1.13282 12.5451 1.09554 12.472C1.03316 12.3496 0.933992 12.2489 0.867384 12.1282C0.759569 11.933 0.638796 11.5134 0.859328 11.3433C0.940352 11.2807 0.914192 11.2216 0.915472 11.1297C0.92308 10.5827 1.34529 10.264 1.86456 10.2003C1.86766 10.1997 1.87086 10.1998 1.87402 10.1995C2.41915 10.1589 2.99647 10.485 3.02382 11.0766C3.0364 11.349 2.9833 11.2276 3.13811 11.4122C3.28528 11.5876 3.16703 11.9954 3.05661 12.1802C2.94906 12.3601 2.74359 12.5253 2.9577 12.7142C3.22682 12.9516 3.61714 12.8452 3.85641 13.052C4.1314 13.2896 3.94808 13.6316 3.74914 13.8483C3.30658 14.3305 2.75635 14.6951 2.08588 14.7242ZM1.89178 10.6498C1.65291 10.6803 1.43456 10.8242 1.36739 11.0618L1.36356 11.075C1.32942 11.1988 1.37238 11.3266 1.3531 11.4493C1.33886 11.5399 1.18594 11.6777 1.18997 11.7303C1.19633 11.8135 1.29867 11.9589 1.34058 12.0305C1.50136 12.3051 1.6912 12.695 2.07186 12.6251C2.28592 12.5629 2.39185 12.3932 2.50256 12.2126L2.77834 11.7171C2.53934 11.4883 2.62354 11.4543 2.60906 11.173C2.5929 10.859 2.22249 10.6382 1.93602 10.6474C1.92565 10.6478 1.90061 10.6464 1.89178 10.6498ZM1.61507 13.01C1.75398 13.21 1.91598 13.4242 2.16268 13.2386L2.24749 13.1613L2.35844 13.0038C2.11864 13.0569 1.85678 13.0446 1.61507 13.01ZM1.17292 13.1408C0.950288 13.2651 0.72065 13.3616 0.463422 13.3826C1.12464 14.2476 2.10454 14.5685 3.02464 13.8886C3.19118 13.7561 3.37268 13.595 3.48382 13.4113C3.2398 13.3479 2.99974 13.2648 2.77816 13.1427C2.41175 13.922 1.66536 14.0092 1.22981 13.2169C1.21769 13.1948 1.19806 13.1426 1.17292 13.1408Z" fill="#285471"/>
<path d="M16.8 6.39999C16.2707 6.39999 15.8358 6.83264 15.7865 7.38584L15.7818 7.49091L15.7821 11.3086L12.2182 11.3091C11.6558 11.3091 11.2 11.7975 11.2 12.4C11.2 12.967 11.6038 13.433 12.1202 13.4859L12.2182 13.4909L15.7821 13.4906L15.7818 17.3091C15.7818 17.9116 16.2377 18.4 16.8 18.4C17.3293 18.4 17.7642 17.9674 17.8135 17.4142L17.8182 17.3091L17.8187 13.4906L21.3818 13.4909C21.9442 13.4909 22.4 13.0025 22.4 12.4C22.4 11.833 21.9962 11.367 21.4798 11.3141L21.3818 11.3091L17.8187 11.3086L17.8182 7.49091C17.8182 6.88841 17.3623 6.39999 16.8 6.39999Z" fill="#285471"/>
</svg>
