<svg width="25" height="25" viewBox="0 0 25 25" fill="none" xmlns="http://www.w3.org/2000/svg">
<path d="M8.55699 6.29535C7.85451 6.29278 7.35735 6.06416 6.79568 5.62665C6.48067 5.3813 5.91341 4.9197 6.0378 4.44488C6.14796 4.02453 6.59885 3.99546 6.92745 3.85824C7.09294 3.78917 7.23638 3.69257 7.39051 3.60195C7.1115 3.1703 6.68582 2.37135 6.86071 1.88575C6.95087 1.63533 6.87501 1.38107 6.91623 1.1212C7.02982 0.404994 7.77458 0.0250602 8.42717 0.000206252C9.19535 -0.0108356 10.0615 0.421487 10.0687 1.29475L10.0704 1.57919C10.0708 1.64485 10.0682 1.70996 10.0898 1.77282L10.1563 1.98505C10.242 2.31337 10 2.86554 9.82942 3.16521L9.58407 3.55581C9.82341 3.80563 10.1511 3.87804 10.4592 3.99865C11.0975 4.24848 11.0633 4.73556 10.647 5.1961C10.0941 5.808 9.39059 6.26788 8.55699 6.29535ZM8.39914 0.598433C7.72674 0.634586 7.42271 0.950132 7.46329 1.63133C7.4742 1.81544 7.47816 1.89498 7.38636 2.05896C7.30962 2.19613 7.3494 2.22857 7.40222 2.37557C7.59494 2.91125 7.92741 3.68732 8.61688 3.56499C9.10865 3.48519 9.35309 2.96018 9.51847 2.5328L9.65176 2.13947C9.44508 1.84021 9.54327 1.73237 9.53209 1.39259C9.51129 0.760976 8.91483 0.581046 8.39914 0.598433ZM8.96312 4.04674L8.77291 4.07082C8.5854 4.10495 8.17204 4.09125 7.99347 4.05884C7.99867 4.12249 8.10101 4.23735 8.14367 4.28637C8.37518 4.50359 8.66533 4.48196 8.8787 4.2433C8.89734 4.22249 9.04184 4.04624 8.96312 4.04674ZM9.51824 4.23645C9.22749 4.8215 8.67187 5.22898 8.03682 4.89122C7.76899 4.74882 7.61783 4.52051 7.47306 4.2598L6.58851 4.59304C6.74294 4.84243 6.98799 5.05047 7.2179 5.2247C8.21756 5.97121 9.13698 5.81566 10.0231 5.00779C10.1345 4.90624 10.2531 4.79314 10.3402 4.66891L10.384 4.60304C10.2737 4.53285 10.1274 4.49488 10.0058 4.44519L9.51824 4.23645Z" fill="#285471"/>
<path d="M8.71163 18.0273C7.8986 18.0073 7.10211 17.4926 6.59762 16.8536C6.43288 16.6449 6.25091 16.4097 6.36434 16.1265C6.58804 15.5682 7.38632 15.8609 7.67878 15.3054C7.7729 15.1265 7.56551 14.979 7.45379 14.7886C7.29334 14.5153 7.14464 14.1058 7.32679 13.8129C7.43725 13.6352 7.44303 13.7267 7.44809 13.5038C7.46154 12.9133 7.71789 12.5538 8.25625 12.3222C8.32885 12.291 8.40442 12.2789 8.476 12.2485L8.47284 9.24741L4.09269 9.24895C4.06799 9.29259 4.06339 9.34181 4.04526 9.38838C3.9692 9.58353 3.85801 9.76502 3.7404 9.93547C3.62884 10.0973 3.51534 10.2239 3.60672 10.4328C3.74094 10.7396 4.65496 10.6534 4.41883 11.1591C4.27633 11.4644 3.47584 11.8195 3.16362 11.9266C2.44549 12.1731 1.91364 11.9613 1.26502 11.6204C1.06364 11.5146 0.732269 11.3556 0.662818 11.1103C0.533404 10.6531 1.32737 10.829 1.55156 10.399C1.65533 10.2 1.44542 9.99616 1.3397 9.81277L1.14593 9.45228C0.977283 9.14133 0.846695 8.83244 1.0603 8.48402C1.10965 8.40346 1.09345 8.36338 1.09542 8.26735C1.1001 8.03893 1.12927 7.82144 1.23521 7.61775C1.84271 6.45007 4.01477 6.72782 4.09862 8.14913C4.10634 8.28021 4.08509 8.44275 4.12166 8.5679L4.14325 8.65016C4.26287 8.67469 4.39325 8.66598 4.515 8.6663L8.08007 8.66709C8.20668 8.66725 8.34136 8.65831 8.46657 8.67465L8.47474 7.57996C8.47379 7.26842 8.36671 6.87371 8.72455 6.74761L8.75663 6.74519C8.94221 6.74072 9.0334 6.9306 9.03309 7.10426L9.03678 8.66357L12.8625 8.66575C13.0388 8.66563 13.2297 8.68038 13.4036 8.65411C13.4414 8.42277 13.4144 8.1862 13.4559 7.95862C13.6922 6.66337 15.7881 6.5235 16.3139 7.6752C16.4723 8.02216 16.3606 8.33082 16.4896 8.54325C16.7319 8.94216 16.3173 9.61605 16.1067 9.93883L15.9837 10.1232C15.9252 10.2137 15.9282 10.2796 15.9603 10.385C16.0719 10.7513 16.6024 10.6075 16.8074 10.8765C17.1938 11.3834 15.5184 11.9915 15.1636 12.0358C14.6532 12.0996 14.1396 11.8637 13.6951 11.6332C13.4722 11.5176 13.0051 11.3026 13.0708 10.9689C13.1268 10.6846 13.5665 10.734 13.7487 10.6039C14.1751 10.2993 13.751 9.94639 13.5815 9.63077L13.4632 9.39357C13.4404 9.34395 13.4308 9.29252 13.3961 9.25018L9.03298 9.24409L9.03385 12.2606C9.07852 12.2758 9.12713 12.2759 9.17294 12.2871C9.52816 12.3743 9.8977 12.7356 10.0171 13.0844C10.0849 13.2824 10.0093 13.5932 10.1214 13.7239C10.3781 14.0234 10.3006 14.3542 10.1204 14.6934C10.0131 14.8954 9.82141 15.078 9.84114 15.3256C9.85806 15.5373 10.3018 15.6717 10.4658 15.7108C10.8009 15.7907 11.1506 15.808 11.1669 16.3128C11.1759 16.591 10.9558 16.8218 10.7854 17.0091C10.1933 17.6598 9.56617 18.0039 8.71163 18.0273ZM2.54447 7.46677C2.20512 7.4907 1.75117 7.66412 1.662 8.05164L1.65826 8.06754C1.61923 8.24579 1.66359 8.42945 1.64192 8.60699C1.61657 8.81467 1.45245 8.83022 1.55035 9.02667L1.87461 9.61051C2.0721 9.92843 2.25819 10.1367 2.63277 10.1281C3.15313 10.0451 3.45836 9.36049 3.64237 8.91145C3.49432 8.61462 3.5554 8.53403 3.54605 8.21224C3.53172 7.7209 2.9676 7.43903 2.54447 7.46677ZM14.8036 7.47559C14.433 7.53245 14.038 7.74144 13.9884 8.16274L13.9862 8.17967C13.9476 8.51302 14.0443 8.50012 13.8884 8.84906C13.8112 9.02184 14.2274 9.63951 14.3305 9.77439C14.5264 10.0309 14.7284 10.1592 15.0402 10.126C15.4985 10.039 15.7505 9.47013 15.9304 9.07573C16.0301 8.85709 15.9818 8.93199 15.9084 8.71817L15.9028 8.7025C15.8459 8.53268 15.9021 8.31451 15.8762 8.13508C15.805 7.64204 15.2175 7.43907 14.8036 7.47559ZM3.04277 10.597C2.74764 10.6699 2.38397 10.7076 2.09379 10.6011L2.08957 10.6138C2.01827 10.8234 1.80683 11.0137 1.61418 11.1031L1.55663 11.1253L2.10555 11.3679C2.71334 11.5315 3.01366 11.3443 3.57521 11.1223C3.27066 11.0043 3.20284 10.8518 3.06137 10.5946L3.04277 10.597ZM15.4198 10.597L15.4065 10.6011C15.1646 10.6743 14.8485 10.6871 14.5968 10.6537C14.5588 10.6486 14.4743 10.5891 14.4521 10.6337C14.3383 10.8614 14.1739 11.0111 13.9512 11.121C14.1375 11.2107 14.3194 11.3022 14.5161 11.3652C14.9262 11.4756 15.2551 11.4382 15.646 11.2823L15.951 11.1454C15.7566 11.0446 15.5236 10.8585 15.4512 10.6358L15.4198 10.597ZM8.71581 12.818C8.39017 12.8464 8.0879 13.0311 8.00336 13.3741L7.99865 13.3929C7.97485 13.4898 7.98158 13.5999 7.98812 13.6989C8.0102 14.0336 7.80703 14.0901 7.79829 14.1992C7.79228 14.2746 8.11052 14.8088 8.16913 14.9086C8.32197 15.1689 8.52606 15.3828 8.83562 15.3607C9.27595 15.2896 9.55803 14.5468 9.73695 14.1824C9.45901 13.9209 9.55731 13.8656 9.55404 13.526C9.55009 13.1218 9.12322 12.8065 8.76104 12.8157L8.71581 12.818ZM9.1905 15.8326C8.91689 15.8809 8.61797 15.8929 8.34254 15.8457C8.35033 15.8719 8.37112 15.8963 8.38625 15.9187L8.49941 16.0774C8.55468 16.1389 8.61652 16.2199 8.70422 16.2255C8.91412 16.2388 9.14971 16.033 9.22019 15.8326H9.1905ZM7.78221 16.0258C7.49275 16.1755 7.22656 16.2905 6.90794 16.3546C7.384 16.8951 7.9235 17.3877 8.66997 17.4209C9.15051 17.4423 9.64516 17.2587 10.0205 16.9471C10.2015 16.7969 10.4515 16.5688 10.5753 16.3597C10.2709 16.2893 10.0045 16.1779 9.73022 16.0243C9.56864 16.3546 9.38979 16.6349 9.03165 16.7551C8.17403 17.0429 7.8769 16.0258 7.78221 16.0258Z" fill="#285471"/>
<path d="M2.54295 18.3659C1.65346 18.4757 0.586684 17.7639 0.130151 17.0172C0.0146969 16.8284 -0.0560565 16.632 0.0575042 16.4196C0.306332 15.9542 1.00287 16.1994 1.29821 15.7569C1.35721 15.6685 1.38106 15.6478 1.33561 15.5566C1.25955 15.404 1.13866 15.2783 1.05745 15.1278C0.926012 14.8843 0.778775 14.361 1.04763 14.1487C1.14641 14.0707 1.11452 13.997 1.11608 13.8823C1.12535 13.2 1.64008 12.8025 2.27314 12.7231C2.27692 12.7222 2.28082 12.7223 2.28468 12.722C2.94926 12.6713 3.65308 13.0781 3.68643 13.8161C3.70176 14.1558 3.63704 14.0044 3.82576 14.2346C4.00518 14.4534 3.86102 14.9622 3.7264 15.1926C3.59528 15.417 3.3448 15.6231 3.60582 15.8587C3.93391 16.1548 4.40975 16.0222 4.70146 16.2801C5.0367 16.5764 4.81322 17.003 4.57068 17.2733C4.03115 17.8747 3.36035 18.3296 2.54295 18.3659ZM2.30633 13.2837C2.01511 13.3218 1.74891 13.5012 1.66703 13.7976L1.66235 13.8141C1.62073 13.9684 1.6731 14.1279 1.6496 14.2809C1.63225 14.394 1.44582 14.5659 1.45072 14.6315C1.45848 14.7353 1.58325 14.9166 1.63433 15.0059C1.83035 15.3484 2.06179 15.8348 2.52586 15.7476C2.78683 15.67 2.91597 15.4584 3.05094 15.2331L3.38716 14.615C3.09579 14.3296 3.19843 14.2872 3.18078 13.9364C3.16107 13.5447 2.7095 13.2692 2.36025 13.2808C2.34761 13.2812 2.31709 13.2795 2.30633 13.2837ZM1.96898 16.2277C2.13832 16.4771 2.33583 16.7442 2.63658 16.5129L2.73997 16.4164L2.87524 16.2199C2.58289 16.2862 2.26365 16.2709 1.96898 16.2277ZM1.42994 16.3908C1.15852 16.5459 0.878566 16.6662 0.56497 16.6925C1.37108 17.7714 2.5657 18.1716 3.68742 17.3237C3.89045 17.1583 4.11173 16.9574 4.24722 16.7283C3.94973 16.6492 3.65708 16.5455 3.38693 16.3933C2.94024 17.3652 2.03029 17.474 1.4993 16.4857C1.48452 16.4582 1.46058 16.3931 1.42994 16.3908Z" fill="#285471"/>
<path d="M17.4026 12.0537L16.9814 13.3664L16.9839 13.5333L16.9035 13.3863L15.9005 12.4672L14.5859 13.2443L14.861 14.5919L14.9487 14.7388L14.805 14.6492L13.4856 14.3677L12.726 15.7152L13.6243 16.7415L13.768 16.8237L13.6048 16.8211L12.3243 17.2495V18.8063L13.6048 19.2347L13.768 19.2322L13.6243 19.3143L12.726 20.3405L13.4856 21.6881L14.805 21.4041L14.9487 21.3169L14.861 21.4614L14.5859 22.8115L15.9005 23.5886L16.9035 22.6694L16.9839 22.5225L16.9814 22.6894L17.4026 23.9996H18.9217L19.3429 22.6894L19.3405 22.5225L19.4208 22.6694L20.4238 23.5886L21.7384 22.8115L21.4633 21.4614L21.3757 21.3169L21.5193 21.4041L22.8388 21.6881L23.5983 20.3405L22.7 19.3143L22.5564 19.2322L22.7195 19.2347L24 18.8063V17.2495L22.7195 16.8211L22.5564 16.8237L22.7 16.7415L23.5983 15.7152L22.8388 14.3677L21.5193 14.6492L21.3757 14.7388L21.4633 14.5919L21.7384 13.2443L20.4237 12.4672L19.4208 13.3863L19.3405 13.5333L19.3429 13.3664L18.9217 12.0537H17.4026ZM18.1622 15.7003C18.7656 15.7001 19.3444 15.945 19.7713 16.3813C20.1982 16.8176 20.4381 17.4095 20.4384 18.0267C20.4381 18.6439 20.1982 19.2358 19.7713 19.6721C19.3444 20.1084 18.7656 20.3533 18.1622 20.3532C17.5587 20.3533 16.9799 20.1084 16.553 19.6721C16.1262 19.2358 15.8862 18.6439 15.8859 18.0267C15.8862 17.4095 16.1262 16.8176 16.553 16.3813C16.9799 15.945 17.5587 15.7001 18.1622 15.7003ZM20.8888 16.2831L20.9716 16.3678L21.0202 16.5571C20.9806 16.4638 20.9367 16.3724 20.8888 16.2831ZM21.2661 17.4887L21.4073 18.0267L20.9716 19.6881L19.7835 20.9036L18.1622 21.3495L16.5408 20.9036L16.0369 20.388C16.6117 20.8691 17.3327 21.1323 18.077 21.1328C18.4992 21.1329 18.9173 21.0485 19.3075 20.8842C19.6976 20.7199 20.0521 20.479 20.3507 20.1754C20.6494 19.8717 20.8863 19.511 21.0479 19.1142C21.2096 18.7173 21.2928 18.292 21.2929 17.8623C21.291 17.7374 21.282 17.6126 21.2661 17.4887ZM15.309 19.5163C15.3931 19.6631 15.4883 19.8029 15.5938 19.9347L15.3528 19.6881L15.309 19.5163Z" fill="#285471" stroke="#285471" stroke-width="0.210735" stroke-linecap="round" stroke-linejoin="round"/>
</svg>
