<svg width="24" height="24" viewBox="0 0 24 24" fill="none" xmlns="http://www.w3.org/2000/svg">
<path d="M19.1249 7.49972C20.5723 7.49972 21.7498 6.32219 21.7498 4.87475C21.7498 3.42732 20.5723 2.24979 19.1249 2.24979H16.4999C16.0857 2.24979 15.7499 2.58555 15.7499 2.99978V10.4997C15.7499 10.9139 16.0857 11.2497 16.4999 11.2497C16.9141 11.2497 17.2499 10.9139 17.2499 10.4997V9.74969H18.7499C19.1641 9.74969 19.4999 9.41393 19.4999 8.9997C19.4999 8.58547 19.1641 8.24971 18.7499 8.24971H17.2499V7.49972H19.1249ZM17.2499 3.74977H19.1249C19.7452 3.74977 20.2498 4.25446 20.2498 4.87475C20.2498 5.49504 19.7452 5.99974 19.1249 5.99974H17.2499V3.74977Z" fill="white"/>
<path d="M8.625 17.2497H8.27006C7.9381 17.2497 7.6336 17.0419 7.53465 16.7251C7.41484 16.3413 7.61542 15.94 7.98094 15.7999L13.6066 13.6362C14.0017 13.4842 14.1915 13.0362 14.0284 12.6455C11.8092 7.32694 11.2539 0.766591 11.2476 0.689436C11.1905 -0.0162114 10.2709 -0.257521 9.87607 0.333659L8.79187 1.95973L7.16627 0.875996C6.73601 0.588796 6.1482 0.81445 6.02253 1.31802L5.53035 3.28534L4.16631 2.37598C3.73605 2.08878 3.14824 2.31443 3.02257 2.818L2.53039 4.78532L1.16634 3.87596C0.646696 3.52951 -0.0464827 3.93521 0.00245412 4.55798C0.0174539 4.75251 0.38823 9.37948 1.79493 14.0894C2.63304 16.8948 3.66897 19.1411 4.87364 20.7667C5.71897 21.9062 7.01467 22.4996 8.32369 22.4996H8.5852C10.0257 22.4996 11.2278 21.3556 11.2497 19.9152C11.2719 18.4492 10.086 17.2497 8.625 17.2497ZM3.8035 9.27823C3.64975 8.89386 3.83678 8.45746 4.22162 8.30324L7.97157 6.80326C8.35594 6.64951 8.79234 6.83654 8.94655 7.22138C9.1003 7.60575 8.91327 8.04215 8.52844 8.19637C4.46743 9.82075 4.7071 9.74978 4.50005 9.74978C4.20287 9.74978 3.92115 9.57166 3.8035 9.27823ZM5.52848 12.6963C5.1495 12.8479 4.70949 12.6673 4.55349 12.2782C4.39974 11.8938 4.58677 11.4574 4.97161 11.3032L8.72156 9.80322C9.10593 9.64947 9.54233 9.8365 9.69654 10.2213C9.85029 10.6057 9.66326 11.0421 9.27843 11.1963L5.52848 12.6963ZM20.2498 12.7497C20.054 12.7497 11.3916 16.0951 11.3978 16.0927C11.131 16.1953 11.0739 16.5449 11.2917 16.7299C13.5739 18.6679 13.0999 22.3051 10.4 23.5976C10.1985 23.6942 10.266 23.9992 10.4895 23.9996C11.1123 24.0006 11.7099 23.8486 12.2324 23.5759C12.2324 23.5759 22.8154 19.2428 22.9643 19.0872C25.23 16.7118 23.5326 12.7497 20.2498 12.7497Z" fill="white"/>
</svg>
