<svg width="24" height="24" viewBox="0 0 24 24" fill="none" xmlns="http://www.w3.org/2000/svg">
<path fill-rule="evenodd" clip-rule="evenodd" d="M7.125 2.813C6.72718 2.813 6.34564 2.97104 6.06434 3.25234C5.78304 3.53364 5.625 3.91518 5.625 4.313V19.688H4.125C3.92609 19.688 3.73532 19.767 3.59467 19.9077C3.45402 20.0483 3.375 20.2391 3.375 20.438C3.375 20.6369 3.45402 20.8277 3.59467 20.9683C3.73532 21.109 3.92609 21.188 4.125 21.188H19.875C20.0739 21.188 20.2647 21.109 20.4053 20.9683C20.546 20.8277 20.625 20.6369 20.625 20.438C20.625 20.2391 20.546 20.0483 20.4053 19.9077C20.2647 19.767 20.0739 19.688 19.875 19.688H18.375V4.313C18.375 3.91518 18.217 3.53364 17.9357 3.25234C17.6544 2.97104 17.2728 2.813 16.875 2.813H7.125ZM16.875 19.688V4.313H7.125V19.688H16.875ZM15.542 12.729C15.6377 12.6332 15.7137 12.5195 15.7654 12.3943C15.8172 12.2692 15.8439 12.1351 15.8438 11.9996C15.8438 11.8642 15.817 11.7301 15.7652 11.605C15.7133 11.4799 15.6373 11.3662 15.5415 11.2705C15.4457 11.1748 15.332 11.0988 15.2068 11.0471C15.0817 10.9953 14.9476 10.9686 14.8121 10.9687C14.6767 10.9687 14.5426 10.9955 14.4175 11.0473C14.2924 11.0992 14.1787 11.1752 14.083 11.271C13.8897 11.4645 13.7811 11.7268 13.7812 12.0004C13.7813 12.2739 13.89 12.5362 14.0835 12.7295C14.277 12.9228 14.5393 13.0314 14.8129 13.0313C15.0864 13.0312 15.3487 12.9225 15.542 12.729Z" fill="#285471"/>
</svg>
