<svg width="50" height="50" viewBox="0 0 50 50" fill="none" xmlns="http://www.w3.org/2000/svg">
<g clip-path="url(#clip0_614_36)">
<path d="M25.0672 49.183L4.01481 49.1876C3.7413 49.1876 3.45698 49.2025 3.18482 49.18C2.09361 49.0895 1.21937 48.1815 0.970551 47.1474C0.871433 46.7354 0.900459 46.3059 0.900039 45.8846L0.903751 21.1448C0.929318 20.3524 1.77335 19.8314 2.31362 19.3759L23.9868 1.24898C24.2422 1.04609 24.4908 0.909921 24.8085 0.83443L24.9744 0.823334C25.7964 0.817423 26.5092 1.66373 27.0867 2.15712L47.8059 19.4788C48.4502 20.0232 49.0957 20.3777 49.1012 21.3187L49.1053 45.99C49.1055 46.3226 49.1237 46.6702 49.0758 46.9996C48.9321 47.9874 47.9561 49.0166 46.9567 49.1571C46.6789 49.1962 46.3826 49.183 46.1021 49.1835L25.0672 49.183ZM25.0081 2.3307L15.2839 10.4908L2.58184 21.0466C2.5256 21.0928 2.41007 21.1533 2.3977 21.2272L2.41603 46.3467C2.50976 46.2462 2.64659 46.2094 2.76325 46.1394L15.2268 38.1269C15.574 37.8971 15.9389 37.5609 16.3305 37.4169C17.0128 37.1658 17.5466 38.2399 17.0176 38.7115C16.6938 39.0003 16.2556 39.2301 15.8894 39.4671L3.72797 47.3115C3.56037 47.4184 3.36632 47.5302 3.23163 47.6779C3.61159 47.7287 3.98431 47.7227 4.36644 47.7227L25.061 47.7203L45.9656 47.7229C46.2146 47.7229 46.48 47.7396 46.7263 47.7029C46.272 47.3284 45.7684 47.006 45.2748 46.6861L34.0219 39.3963C33.6929 39.1763 33.3148 38.9661 33.0249 38.6991C32.3206 38.0504 33.042 37.0254 33.9974 37.6094L47.2726 46.1836C47.3569 46.2381 47.4775 46.282 47.546 46.3514L47.6109 22.0597C47.6115 21.7853 47.6369 21.4832 47.5976 21.2123L25.0081 2.3307Z" fill="white"/>
<path d="M25.2417 32.6593C23.786 32.7538 23.0848 31.0596 22.4398 29.9993L18.0561 22.9114C17.7142 22.3387 17.3357 21.7829 17.0246 21.1925C16.1696 19.5696 16.7886 18.8681 18.0401 17.6984L23.1806 12.8692C23.6945 12.3994 24.0889 12.059 24.8132 11.972L24.8179 11.971C26.1837 11.8908 27.1514 13.1801 28.066 14.0103L32.3338 18.0501C34.0509 19.7563 33.5695 20.3039 32.3406 22.2588L28.3756 28.6932C27.7799 29.6605 26.4081 32.464 25.2417 32.6593ZM26.4567 14.3711L27.6332 17.6738C27.8987 18.4178 28.1307 19.2082 28.4757 19.9184L31.2288 19.5006L31.6154 19.4493C29.9901 17.6665 28.0187 16.2129 26.4567 14.3711ZM23.4684 14.5386C23.0131 15.0316 22.5086 15.4802 22.0216 15.9417L19.9577 17.9121C19.4297 18.4151 18.8676 18.902 18.4185 19.4793L18.7712 19.5281L21.5643 19.8584L23.4684 14.5386ZM25.0031 14.6383L23.046 20.148L24.9878 20.1599L26.3464 20.1565C26.5142 20.1558 26.7791 20.1846 26.935 20.1295L25.0031 14.6383ZM18.5992 20.9673L23.1195 28.3633L21.6335 22.0192C21.5831 21.7997 21.5193 21.566 21.4973 21.3423L18.5992 20.9673ZM31.2774 20.9839L28.5294 21.3178L26.872 28.3081L31.348 21.0083L31.2774 20.9839ZM23.0646 21.6273L25.0409 30.6023L25.287 28.946L26.8911 21.6364C26.7889 21.6102 26.6538 21.6256 26.5469 21.6257L23.0646 21.6273Z" fill="white"/>
<path d="M4.79598 25.216C3.37986 24.1734 4.50936 23.2826 5.13865 23.6186C5.3045 23.7071 5.45633 23.8436 5.60428 23.9591L20.4346 35.2075C22.4323 36.694 23.9901 38.0519 26.7029 37.0534C27.8551 36.6294 28.8659 35.7656 29.834 35.0313L44.4649 23.9183C44.657 23.7763 44.8444 23.6179 45.0758 23.5463L45.1034 23.5381C45.781 23.5924 46.1584 24.2062 45.7336 24.7602C45.5393 25.0137 45.2479 25.1976 44.9938 25.386L42.0007 27.684L30.5202 36.3754C29.8217 36.903 29.1264 37.4458 28.379 37.9038C26.545 39.0275 24.3139 39.2195 22.3512 38.2943C21.4303 37.8603 20.6133 37.2182 19.798 36.6167L4.79598 25.216Z" fill="white"/>
</g>
<defs>
<clipPath id="clip0_614_36">
<rect width="50" height="50" fill="white"/>
</clipPath>
</defs>
</svg>
