<svg width="24" height="24" viewBox="0 0 24 24" fill="none" xmlns="http://www.w3.org/2000/svg">
<g clip-path="url(#clip0_620_57)">
<path d="M22.6755 0H1.3245C0.5925 0 0 0.5925 0 1.3245V22.6755C0 23.4075 0.5925 24 1.3245 24H12.819V14.706H9.6915V11.0835H12.819V8.412C12.819 5.313 14.712 3.6255 17.478 3.6255C18.8025 3.6255 19.941 3.723 20.2725 3.768V7.0065L18.3555 7.008C16.851 7.008 16.56 7.722 16.56 8.772V11.0835H20.1465L19.68 14.706H16.56V24H22.6755C23.4075 24 24 23.4075 24 22.6755V1.3245C24 0.5925 23.4075 0 22.6755 0Z" fill="#269A48"/>
</g>
<defs>
<clipPath id="clip0_620_57">
<rect width="24" height="24" fill="white"/>
</clipPath>
</defs>
</svg>
