<svg width="24" height="22" viewBox="0 0 24 22" fill="none" xmlns="http://www.w3.org/2000/svg">
<path d="M22.7067 4.90417C22.8609 4.38333 22.7067 4 21.9651 4H19.5109C18.8859 4 18.5984 4.32917 18.4442 4.69583C18.4442 4.69583 17.1942 7.74167 15.4276 9.71667C14.8567 10.2875 14.5942 10.4708 14.2817 10.4708C14.1276 10.4708 13.8901 10.2875 13.8901 9.76667V4.90417C13.8901 4.27917 13.7151 4 13.1984 4H9.34011C8.94843 4 8.71511 4.29167 8.71511 4.5625C8.71511 5.15417 9.59844 5.29167 9.69011 6.95833V10.575C9.69011 11.3667 9.54844 11.5125 9.23594 11.5125C8.40261 11.5125 6.37761 8.45417 5.17761 4.95417C4.93594 4.275 4.69844 4 4.06927 4H1.61511C0.915103 4 0.773438 4.32917 0.773438 4.69583C0.773438 5.34583 1.60677 8.575 4.65261 12.8417C6.68177 15.7542 9.5401 17.3333 12.1401 17.3333C13.7026 17.3333 13.8942 16.9833 13.8942 16.3792C13.8942 13.5958 13.7526 13.3333 14.5359 13.3333C14.8984 13.3333 15.5234 13.5167 16.9817 14.9208C18.6484 16.5875 18.9234 17.3333 19.8567 17.3333H22.3109C23.0109 17.3333 23.3651 16.9833 23.1609 16.2917C22.6942 14.8375 19.5401 11.8458 19.3984 11.6458C19.0359 11.1792 19.1401 10.9708 19.3984 10.5542C19.4026 10.55 22.3984 6.33333 22.7067 4.90417Z" fill="#285471"/>
</svg>
