<svg width="24" height="22" viewBox="0 0 24 22" fill="none" xmlns="http://www.w3.org/2000/svg">
<g id="youtube 1">
<path id="Vector" d="M22.9012 5.17045C22.6395 4.18504 21.8684 3.40895 20.8894 3.14558C19.1148 2.66699 11.9989 2.66699 11.9989 2.66699C11.9989 2.66699 4.88306 2.66699 3.10843 3.14558C2.12939 3.40899 1.35831 4.18504 1.0966 5.17045C0.621094 6.95658 0.621094 10.6831 0.621094 10.6831C0.621094 10.6831 0.621094 14.4097 1.0966 16.1958C1.35831 17.1813 2.12939 17.925 3.10843 18.1884C4.88306 18.667 11.9989 18.667 11.9989 18.667C11.9989 18.667 19.1147 18.667 20.8894 18.1884C21.8684 17.925 22.6395 17.1813 22.9012 16.1958C23.3767 14.4097 23.3767 10.6831 23.3767 10.6831C23.3767 10.6831 23.3767 6.95658 22.9012 5.17045ZM9.6716 14.0666V7.2997L15.6191 10.6832L9.6716 14.0666Z" fill="#285471"/>
</g>
</svg>
