<svg width="24" height="24" viewBox="0 0 24 24" fill="none" xmlns="http://www.w3.org/2000/svg">
<path d="M1.23389 23.9272H3.12989C3.53115 23.9272 3.83712 23.8118 4.04778 23.5812C4.25845 23.3505 4.36378 23.0226 4.36378 22.5974V4.33566C4.36378 3.91038 4.25845 3.58061 4.04778 3.34635C3.83712 3.11209 3.53115 2.99496 3.12989 2.99496H1.23389C0.832629 2.99496 0.526663 3.11209 0.315998 3.34635C0.105333 3.58061 0 3.91038 0 4.33566V22.5974C0 23.0226 0.105333 23.3505 0.315998 23.5812C0.526663 23.8118 0.832629 23.9272 1.23389 23.9272ZM6.77139 23.9272H10.8342C11.2355 23.9272 11.5414 23.8118 11.7521 23.5812C11.9627 23.3505 12.0681 23.0226 12.0681 22.5974V8.02258C12.0681 7.60452 11.9627 7.27835 11.7521 7.04408C11.5414 6.80982 11.2355 6.69269 10.8342 6.69269H6.77139C6.37012 6.69269 6.06248 6.80982 5.84847 7.04408C5.63446 7.27835 5.52746 7.60452 5.52746 8.02258V22.5974C5.52746 23.0226 5.63446 23.3505 5.84847 23.5812C6.06248 23.8118 6.37012 23.9272 6.77139 23.9272ZM7.72439 10.5526C7.54382 10.5526 7.39335 10.4877 7.27297 10.358C7.15259 10.2283 7.0924 10.0697 7.0924 9.88227C7.0924 9.69486 7.15259 9.53809 7.27297 9.41195C7.39335 9.2858 7.54382 9.22273 7.72439 9.22273H9.90127C10.0752 9.22273 10.2206 9.2858 10.3377 9.41195C10.4547 9.53809 10.5132 9.69486 10.5132 9.88227C10.5132 10.0697 10.4547 10.2283 10.3377 10.358C10.2206 10.4877 10.0752 10.5526 9.90127 10.5526H7.72439ZM7.72439 21.4079C7.54382 21.4079 7.39335 21.3431 7.27297 21.2134C7.15259 21.0836 7.0924 20.9251 7.0924 20.7377C7.0924 20.5503 7.15259 20.3935 7.27297 20.2673C7.39335 20.1412 7.54382 20.0781 7.72439 20.0781H9.90127C10.0752 20.0781 10.2206 20.1412 10.3377 20.2673C10.4547 20.3935 10.5132 20.5503 10.5132 20.7377C10.5132 20.9251 10.4547 21.0836 10.3377 21.2134C10.2206 21.3431 10.0752 21.4079 9.90127 21.4079H7.72439ZM14.4757 23.9272H16.9535C17.3548 23.9272 17.6608 23.8118 17.8715 23.5812C18.0821 23.3505 18.1875 23.0226 18.1875 22.5974V1.3407C18.1875 0.915427 18.0821 0.585656 17.8715 0.351394C17.6608 0.117131 17.3548 0 16.9535 0H14.4757C14.0745 0 13.7685 0.117131 13.5578 0.351394C13.3471 0.585656 13.2418 0.915427 13.2418 1.3407V22.5974C13.2418 23.0226 13.3471 23.3505 13.5578 23.5812C13.7685 23.8118 14.0745 23.9272 14.4757 23.9272ZM21.2972 23.9813L22.9124 23.7325C23.307 23.6749 23.5962 23.5199 23.7801 23.2676C23.964 23.0153 24.0326 22.6766 23.9857 22.2514L22.0697 4.31403C22.0229 3.89596 21.8841 3.58242 21.6534 3.37338C21.4227 3.16434 21.1066 3.08866 20.7053 3.14633L19.1004 3.39501C18.7058 3.45267 18.4165 3.60764 18.2326 3.85993C18.0487 4.1122 17.9768 4.44738 18.0169 4.86545L19.943 22.8027C19.9898 23.228 20.1285 23.5452 20.3593 23.7542C20.59 23.9633 20.9026 24.039 21.2972 23.9813Z" fill="white"/>
</svg>
