<svg width="50" height="50" viewBox="0 0 50 50" fill="none" xmlns="http://www.w3.org/2000/svg">
<g clip-path="url(#clip0_602_34)">
<path d="M29.771 42.724C28.6393 44.1866 27.7555 45.3891 26.3554 47.2942C20.0304 39.7449 14.4259 33.0555 8.54807 26.0399C14.2859 19.1387 19.8721 12.4199 25.9722 5.08309C32.0289 12.3212 37.6353 19.0211 43.3765 25.8821C38.7779 31.5908 34.3984 37.0274 29.771 42.724ZM27.5749 33.6195C30.0391 28.2714 29.8111 23.0023 27.068 17.1434C26.8094 16.32 26.5508 15.4965 26.1779 14.3093C21.2687 22.8392 21.343 30.1136 26.4042 38.3231C26.6828 36.6929 26.8962 35.4444 27.5749 33.6195ZM19.2878 23.0302C19.4407 22.0448 19.5936 21.0594 19.8383 19.4817C13.0842 25.4519 13.1359 27.594 19.4776 31.8522C19.2908 29.1389 19.1013 26.3862 19.2878 23.0302ZM34.1991 31.1312C36.4531 27.0582 36.6597 23.2669 32.748 19.647C32.5472 23.8328 32.3585 27.6076 32.2504 31.3847C32.2486 31.4474 33.2269 31.5382 34.1991 31.1312Z" fill="#269A48"/>
<path d="M27.1108 17.8057C29.8111 23.0023 30.0391 28.2714 27.0889 33.6238C23.5062 28.2491 23.5896 22.9723 27.1108 17.8057Z" fill="#F2FFC1"/>
<path d="M27.0894 17.4746C23.5896 22.9723 23.5062 28.2491 26.8563 33.912C26.8962 35.4444 26.6828 36.6929 26.4042 38.3231C21.343 30.1136 21.2687 22.8392 26.1779 14.3093C26.5508 15.4965 26.8094 16.32 27.0894 17.4746Z" fill="#A4B39D"/>
<path d="M19.0998 23.3319C19.1013 26.3862 19.2908 29.1389 19.4776 31.8522C13.1359 27.594 13.0842 25.4519 19.8383 19.4817C19.5936 21.0594 19.4407 22.0448 19.0998 23.3319Z" fill="#78DC18"/>
<path d="M33.9734 31.3736C33.2269 31.5382 32.2486 31.4474 32.2504 31.3847C32.3585 27.6076 32.5472 23.8328 32.748 19.647C36.6597 23.2669 36.4531 27.0582 33.9734 31.3736Z" fill="#78DC18"/>
</g>
<defs>
<clipPath id="clip0_602_34">
<rect width="50" height="50" fill="white"/>
</clipPath>
</defs>
</svg>
