<svg width="24" height="24" viewBox="0 0 24 24" fill="none" xmlns="http://www.w3.org/2000/svg">
<path d="M23.0786 9.1366L17.6411 2.34106C17.6249 2.32113 17.6045 2.30504 17.5813 2.29392C17.5582 2.28281 17.5328 2.27695 17.5071 2.27678H6.49285C6.44196 2.27678 6.39107 2.30089 6.35893 2.34106L0.921426 9.1366C0.896251 9.16847 0.883006 9.20813 0.883985 9.24873C0.884963 9.28933 0.900102 9.32831 0.926783 9.35892L11.8714 21.667C11.9036 21.7045 11.9518 21.7232 12 21.7232C12.0482 21.7232 12.0937 21.7018 12.1286 21.667L23.0732 9.35892C23.0999 9.32831 23.115 9.28933 23.116 9.24873C23.117 9.20813 23.1037 9.16847 23.0786 9.1366ZM15.5679 3.81428L16.4893 7.40089L12.9402 3.81428H15.5679ZM15.7875 8.59553H8.2125L12 4.76785L15.7875 8.59553ZM8.43214 3.81428H11.0598L7.50803 7.40089L8.43214 3.81428ZM7.00178 4.00178L5.82053 8.59553H3.32678L7.00178 4.00178ZM3.49821 9.93481H6.02678L9.39643 16.5696L3.49821 9.93481ZM12 18.7339L7.52946 9.93481H16.4679L12 18.7339ZM14.6009 16.5696L17.9732 9.93481H20.5018L14.6009 16.5696ZM18.1795 8.59553L16.9982 4.00178L20.6732 8.59553H18.1795Z" fill="#285471"/>
</svg>
