<svg width="24" height="24" viewBox="0 0 24 24" fill="none" xmlns="http://www.w3.org/2000/svg">
<path d="M21.8839 10.1357H12.2063V14.1134H17.7348C17.4964 15.3991 16.7732 16.4866 15.683 17.2152C14.7616 17.8312 13.5857 18.1955 12.2036 18.1955C9.52768 18.1955 7.26429 16.3875 6.45536 13.958C6.25179 13.342 6.13393 12.683 6.13393 12.0054C6.13393 11.3277 6.25179 10.6687 6.45536 10.0527C7.26696 7.62589 9.53036 5.81786 12.2063 5.81786C13.7143 5.81786 15.067 6.3375 16.133 7.35536L19.0795 4.40625C17.2982 2.74554 14.9759 1.72768 12.2063 1.72768C8.19107 1.72768 4.71697 4.03125 3.02679 7.39018C2.33036 8.77768 1.93393 10.3473 1.93393 12.008C1.93393 13.6687 2.33036 15.2357 3.02679 16.6232C4.71697 19.9821 8.19107 22.2857 12.2063 22.2857C14.9813 22.2857 17.3062 21.3643 19.0045 19.7946C20.9464 18.0054 22.0687 15.3696 22.0687 12.2384C22.0687 11.5098 22.0045 10.8107 21.8839 10.1357Z" fill="#269A48"/>
</svg>
