<svg width="24" height="24" viewBox="0 0 24 24" fill="none" xmlns="http://www.w3.org/2000/svg">
<g clip-path="url(#clip0_706_21)">
<path d="M8.40665 6.02331C7.7164 6.02085 7.22788 5.80211 6.67599 5.38351C6.36645 5.14876 5.80907 4.70711 5.93129 4.2528C6.03954 3.85061 6.48259 3.82281 6.80546 3.69151C6.96808 3.62543 7.10902 3.533 7.26046 3.4463C6.98631 3.0333 6.56804 2.26888 6.73989 1.80426C6.82848 1.56466 6.75393 1.32139 6.79444 1.07275C6.90605 0.387493 7.63786 0.0239773 8.27909 0.000197339C9.03391 -0.0103674 9.88499 0.403273 9.89205 1.2388L9.89373 1.51095C9.89414 1.57377 9.8916 1.63607 9.91279 1.69621L9.97814 1.89927C10.0623 2.2134 9.82457 2.74171 9.65694 3.02843L9.41586 3.40215C9.65104 3.64118 9.97306 3.71046 10.2758 3.82586C10.903 4.06489 10.8693 4.53092 10.4603 4.97156C9.91697 5.55702 9.22574 5.99703 8.40665 6.02331ZM8.25155 0.572573C7.59085 0.607164 7.29211 0.909074 7.33198 1.56084C7.3427 1.73699 7.34659 1.81309 7.25639 1.96999C7.18099 2.10123 7.22007 2.13227 7.27197 2.27292C7.46134 2.78544 7.78803 3.52798 8.4655 3.41094C8.94872 3.33459 9.1889 2.83226 9.35141 2.42335L9.48237 2.04702C9.27929 1.76069 9.37577 1.65751 9.36478 1.33241C9.34434 0.728092 8.75826 0.555937 8.25155 0.572573ZM8.80572 3.87187L8.61882 3.89491C8.43457 3.92756 8.0284 3.91446 7.85293 3.88345C7.85805 3.94435 7.9586 4.05424 8.00053 4.10114C8.22801 4.30898 8.51311 4.28828 8.72277 4.05994C8.74108 4.04002 8.88306 3.87139 8.80572 3.87187ZM9.35118 4.05338C9.06548 4.61315 8.51953 5.00302 7.89553 4.67986C7.63236 4.54361 7.48383 4.32517 7.34158 4.07572L6.47242 4.39456C6.62416 4.63318 6.86495 4.83223 7.09086 4.99892C8.07313 5.71318 8.97655 5.56435 9.84725 4.79139C9.95673 4.69423 10.0733 4.58601 10.1588 4.46715L10.2019 4.40413C10.0935 4.33697 9.94974 4.30064 9.83021 4.2531L9.35118 4.05338Z" fill="#285471"/>
<path d="M8.55941 17.2478C7.76053 17.2287 6.97789 16.7362 6.48218 16.1248C6.3203 15.9251 6.14151 15.7001 6.25296 15.4291C6.47277 14.8949 7.25716 15.175 7.54453 14.6435C7.63701 14.4723 7.43323 14.3312 7.32345 14.1491C7.1658 13.8875 7.01968 13.4957 7.19867 13.2154C7.30721 13.0455 7.31288 13.133 7.31785 12.9198C7.33107 12.3548 7.58296 12.0108 8.11195 11.7892C8.18329 11.7593 8.25754 11.7478 8.32788 11.7187L8.32477 8.84729L4.02084 8.84876C3.99656 8.89052 3.99204 8.93761 3.97423 8.98217C3.89949 9.16888 3.79024 9.34253 3.67468 9.50561C3.56505 9.66041 3.45353 9.78155 3.54332 9.98143C3.6752 10.275 4.57332 10.1926 4.3413 10.6764C4.20128 10.9684 3.41472 11.3082 3.10793 11.4107C2.40229 11.6465 1.8797 11.4439 1.24236 11.1178C1.04449 11.0165 0.718881 10.8644 0.650639 10.6296C0.523476 10.1922 1.30362 10.3606 1.52392 9.9491C1.62588 9.75868 1.41962 9.56368 1.31575 9.38822L1.12534 9.04331C0.959633 8.74579 0.831317 8.45025 1.0412 8.11688C1.0897 8.03981 1.07378 8.00146 1.07571 7.90958C1.08032 7.69103 1.10898 7.48294 1.21307 7.28805C1.81 6.17083 3.94427 6.43658 4.02667 7.79646C4.03425 7.92188 4.01337 8.0774 4.0493 8.19714L4.07051 8.27584C4.18806 8.29931 4.31617 8.29098 4.4358 8.29129L7.93884 8.29204C8.06325 8.2922 8.19558 8.28364 8.31861 8.29927L8.32664 7.2519C8.32571 6.95381 8.22049 6.57616 8.57211 6.45551L8.60363 6.4532C8.78597 6.44892 8.87558 6.63059 8.87528 6.79675L8.8789 8.28867L12.638 8.29076C12.8113 8.29064 12.9989 8.30476 13.1698 8.27963C13.2069 8.05828 13.1804 7.83194 13.2212 7.61418C13.4533 6.37491 15.5128 6.24109 16.0294 7.34302C16.1851 7.67498 16.0753 7.9703 16.2021 8.17355C16.4401 8.55522 16.0328 9.2 15.8258 9.50883L15.7049 9.6852C15.6475 9.77186 15.6504 9.83489 15.682 9.9357C15.7916 10.2862 16.3129 10.1486 16.5143 10.406C16.8939 10.891 15.2477 11.4728 14.8991 11.5152C14.3976 11.5762 13.8929 11.3505 13.4562 11.13C13.2371 11.0194 12.7781 10.8136 12.8427 10.4943C12.8977 10.2224 13.3298 10.2696 13.5088 10.1452C13.9278 9.85374 13.5111 9.51606 13.3445 9.21408L13.2283 8.98713C13.2059 8.93966 13.1965 8.89044 13.1624 8.84994L8.87517 8.84411L8.87603 11.7303C8.91991 11.7448 8.96768 11.7449 9.01269 11.7557C9.36173 11.8391 9.72485 12.1848 9.8422 12.5184C9.90883 12.7079 9.83454 13.0053 9.94465 13.1304C10.1969 13.4169 10.1208 13.7334 9.94368 14.0579C9.83824 14.2512 9.64989 14.4259 9.66927 14.6628C9.68589 14.8654 10.1219 14.994 10.2831 15.0314C10.6123 15.1079 10.956 15.1244 10.9719 15.6073C10.9808 15.8736 10.7646 16.0944 10.5971 16.2736C10.0153 16.8961 9.39908 17.2254 8.55941 17.2478ZM2.49955 7.14359C2.16611 7.16649 1.72005 7.33242 1.63244 7.70318L1.62876 7.7184C1.59041 7.88895 1.634 8.06468 1.6127 8.23454C1.5878 8.43325 1.42654 8.44813 1.52273 8.63608L1.84134 9.1947C2.0354 9.49887 2.21825 9.69811 2.58632 9.6899C3.09762 9.61055 3.39754 8.95548 3.57835 8.52585C3.43287 8.24185 3.49289 8.16473 3.48371 7.85684C3.46962 7.38674 2.91532 7.11705 2.49955 7.14359ZM14.5454 7.15203C14.1812 7.20643 13.7931 7.40639 13.7444 7.80949L13.7422 7.82569C13.7042 8.14463 13.7993 8.13229 13.6461 8.46615C13.5703 8.63147 13.9792 9.22244 14.0805 9.3515C14.2731 9.59688 14.4715 9.71969 14.7778 9.68789C15.2282 9.60464 15.4758 9.06038 15.6525 8.68303C15.7505 8.47383 15.7031 8.54549 15.6309 8.34092L15.6254 8.32593C15.5695 8.16345 15.6248 7.9547 15.5993 7.78302C15.5293 7.31129 14.9521 7.11709 14.5454 7.15203ZM2.98918 10.1385C2.69919 10.2083 2.34184 10.2444 2.05671 10.1424L2.05257 10.1546C1.98251 10.3552 1.77474 10.5372 1.58545 10.6228L1.52889 10.644L2.06827 10.8762C2.66548 11.0327 2.96058 10.8535 3.51235 10.6412C3.2131 10.5283 3.14647 10.3823 3.00745 10.1363L2.98918 10.1385ZM15.1509 10.1385L15.1378 10.1424C14.9001 10.2125 14.5895 10.2248 14.3422 10.1928C14.3048 10.1879 14.2218 10.131 14.2 10.1737C14.0882 10.3915 13.9267 10.5348 13.7078 10.6399C13.8909 10.7257 14.0696 10.8133 14.2629 10.8736C14.6658 10.9792 14.9891 10.9434 15.3731 10.7942L15.6728 10.6633C15.4818 10.5668 15.2529 10.3887 15.1817 10.1757L15.1509 10.1385ZM8.56352 12.2636C8.24354 12.2907 7.94653 12.4674 7.86346 12.7957L7.85883 12.8136C7.83545 12.9063 7.84206 13.0117 7.84848 13.1065C7.87019 13.4266 7.67055 13.4807 7.66196 13.5851C7.65606 13.6572 7.96875 14.1683 8.02635 14.2638C8.17653 14.5129 8.37706 14.7176 8.68124 14.6964C9.11391 14.6284 9.39108 13.9177 9.56689 13.569C9.29379 13.3188 9.39038 13.2659 9.38716 12.941C9.38328 12.5542 8.96384 12.2526 8.60796 12.2613L8.56352 12.2636ZM9.02995 15.1479C8.7611 15.1941 8.46738 15.2056 8.19674 15.1604C8.20439 15.1855 8.22483 15.2088 8.23969 15.2303L8.35088 15.3821C8.40519 15.441 8.46596 15.5185 8.55212 15.5238C8.75837 15.5365 8.98987 15.3397 9.05912 15.1479H9.02995ZM7.64616 15.3327C7.36174 15.476 7.10017 15.586 6.78711 15.6473C7.25488 16.1645 7.78499 16.6358 8.51847 16.6676C8.99065 16.688 9.47669 16.5124 9.84549 16.2142C10.0233 16.0705 10.269 15.8523 10.3907 15.6522C10.0916 15.5848 9.8298 15.4783 9.56028 15.3313C9.40151 15.6474 9.22577 15.9156 8.87386 16.0306C8.03117 16.3059 7.7392 15.3327 7.64616 15.3327Z" fill="#285471"/>
<path d="M2.49871 17.572C1.62469 17.6771 0.576476 16.9961 0.127887 16.2816C0.0144412 16.101 -0.0550812 15.9131 0.0565037 15.7099C0.301002 15.2646 0.985416 15.4991 1.27562 15.0758C1.3336 14.9912 1.35703 14.9714 1.31237 14.8841C1.23764 14.7381 1.11885 14.6178 1.03905 14.4739C0.9099 14.2409 0.765225 13.7402 1.02941 13.537C1.12646 13.4624 1.09513 13.3919 1.09666 13.2822C1.10577 12.6293 1.61154 12.249 2.23359 12.173C2.2373 12.1722 2.24114 12.1723 2.24492 12.172C2.89794 12.1235 3.58952 12.5128 3.62229 13.2188C3.63735 13.5438 3.57375 13.399 3.7592 13.6193C3.93549 13.8286 3.79384 14.3154 3.66156 14.5359C3.53273 14.7506 3.2866 14.9477 3.54308 15.1732C3.86547 15.4565 4.33302 15.3296 4.61965 15.5763C4.94907 15.8599 4.72947 16.268 4.49115 16.5267C3.96101 17.1021 3.30188 17.5373 2.49871 17.572ZM2.2662 12.7094C1.98005 12.7459 1.71848 12.9175 1.63802 13.2012L1.63343 13.2169C1.59253 13.3646 1.64399 13.5171 1.6209 13.6636C1.60385 13.7717 1.42066 13.9362 1.42548 13.999C1.4331 14.0983 1.5557 14.2718 1.60589 14.3572C1.79851 14.6849 2.02592 15.1503 2.48191 15.0668C2.73834 14.9926 2.86523 14.7901 2.99786 14.5746L3.32822 13.9832C3.04192 13.7102 3.14278 13.6696 3.12544 13.3339C3.10607 12.9592 2.66236 12.6956 2.31919 12.7066C2.30676 12.707 2.27677 12.7054 2.2662 12.7094ZM1.93472 15.5262C2.10112 15.7649 2.29519 16.0204 2.59071 15.7991L2.6923 15.7068L2.82521 15.5187C2.53795 15.5822 2.22427 15.5675 1.93472 15.5262ZM1.40506 15.6823C1.13836 15.8307 0.863279 15.9458 0.55514 15.971C1.34722 17.0032 2.52106 17.3861 3.62326 16.5749C3.82276 16.4166 4.04019 16.2244 4.17332 16.0051C3.88101 15.9295 3.59345 15.8303 3.328 15.6846C2.88908 16.6146 1.99496 16.7187 1.47321 15.7731C1.45869 15.7468 1.43517 15.6844 1.40506 15.6823Z" fill="#285471"/>
<path d="M17.4995 22.7832C18.9 22.7832 20.2432 22.2268 21.2335 21.2365C22.2239 20.2461 22.7802 18.903 22.7802 17.5024C22.7802 16.1019 22.2239 14.7587 21.2335 13.7684C20.2432 12.778 18.9 12.2217 17.4995 12.2217C16.099 12.2217 14.7558 12.778 13.7654 13.7684C12.7751 14.7587 12.2187 16.1019 12.2187 17.5024C12.2187 18.903 12.7751 20.2461 13.7654 21.2365C14.7558 22.2268 16.099 22.7832 17.4995 22.7832ZM16.0162 15.8378L16.6707 16.4269C16.6894 16.4435 16.6865 16.4546 16.6621 16.4604L14.2906 17.0017C14.2864 17.0027 14.282 17.0027 14.2778 17.0016C14.2736 17.0005 14.2697 16.9984 14.2665 16.9955C14.2632 16.9926 14.2607 16.9889 14.2592 16.9847C14.2576 16.9806 14.2571 16.9761 14.2576 16.9718L14.5445 14.5576C14.5479 14.5302 14.5598 14.5258 14.5801 14.5444L15.2194 15.1208C15.2313 15.1313 15.2431 15.1313 15.255 15.1208C16.1172 14.3393 17.2613 14.0544 18.3775 14.3697C19.6328 14.7242 20.5652 15.8383 20.7129 17.1216C20.8937 18.6968 19.9075 20.203 18.376 20.6245C16.7611 21.0688 15.1361 20.2172 14.5237 18.6719C14.5176 18.656 14.5225 18.6452 14.5384 18.6394L15.258 18.3698C15.2613 18.3687 15.2648 18.3688 15.2679 18.3701C15.271 18.3714 15.2735 18.3738 15.2748 18.3769C15.5605 19.0191 16.0004 19.4621 16.5946 19.7058C17.8245 20.2101 19.2824 19.5738 19.6958 18.3032C20.1914 16.7803 19.1148 15.2254 17.5005 15.2188C16.9453 15.2168 16.4505 15.4101 16.0162 15.7987C16.002 15.8116 16.002 15.8246 16.0162 15.8378Z" fill="#285471"/>
</g>
<defs>
<clipPath id="clip0_706_21">
<rect width="24" height="24" fill="white"/>
</clipPath>
</defs>
</svg>
