<svg width="24" height="24" viewBox="0 0 24 24" fill="none" xmlns="http://www.w3.org/2000/svg">
<path d="M12 22.2C11.7 22.2 11.5 22.1 11.3 21.9L2.5 13.1C0 10.6 0 6.4 2.5 3.9C5 1.4 9.2 1.4 11.7 3.9L12 4.3L12.4 3.9C13.6 2.7 15.2 2 16.9 2C18.6 2 20.3 2.7 21.5 3.9C22.7 5.1 23.4 6.8 23.4 8.5C23.4 10.2 22.7 11.9 21.5 13.1L12.7 21.9C12.5 22.1 12.3 22.2 12 22.2ZM7 4C5.9 4 4.7 4.4 3.9 5.3C2.1 7.1 2.1 9.9 3.9 11.7L12 19.8L20.1 11.7C21 10.8 21.4 9.7 21.4 8.5C21.4 7.3 20.9 6.2 20.1 5.3C19.3 4.5 18.2 4 17 4C15.8 4 14.7 4.5 13.8 5.3L12.7 6.4C12.3 6.8 11.7 6.8 11.3 6.4L10.2 5.3C9.4 4.4 8.2 4 7 4Z" fill="#285471"/>
</svg>
