<svg width="26" height="26" viewBox="0 0 26 26" fill="none" xmlns="http://www.w3.org/2000/svg">
<path d="M13 1C6.37258 1 1 6.37258 1 13C1 19.6274 6.37258 25 13 25C19.6274 25 25 19.6274 25 13C25 6.37258 19.6274 1 13 1ZM12.683 8.35849C15.4183 8.35849 17.6415 10.5614 17.6415 13.2717C17.6415 15.982 15.4183 18.1849 12.683 18.1849C9.94773 18.1849 7.72453 15.982 7.72453 13.2717C7.72453 10.5614 9.94773 8.35849 12.683 8.35849Z" stroke="#285471" stroke-width="0.912211"/>
<path d="M3.09946 6.65627L6.95395 9.88381C5.65112 11.8859 5.83416 14.5908 7.07751 16.6135L3.102 19.2692C3.62559 20.2242 5.44144 22.0205 6.38489 22.5223L9.41538 18.9803C11.3867 20.1124 13.8596 20.0599 15.9597 18.8825L18.6503 23.6196C19.5265 23.2755 22.328 20.9443 22.8508 19.739L18.6149 16.3147C19.7341 14.4348 19.8954 12.2297 19.0471 10.3056L23.6251 7.33229C23.1922 6.56713 21.233 4.4838 20.0025 3.6884L16.8083 7.55175C14.8705 6.17946 12.1476 5.97196 9.93001 7.05118L7.14173 2.92384C6.09792 3.37324 3.93934 5.18928 3.09946 6.65627ZM9.3819 9.31369C11.5168 7.41659 14.6315 7.65045 16.3995 9.64008C18.1676 11.6297 18.0389 14.7561 15.904 16.6532C13.7691 18.5503 10.6493 18.3107 8.88128 16.321C7.11323 14.3314 7.24704 11.2108 9.3819 9.31369Z" fill="#285471"/>
</svg>
