<svg width="12" height="12" viewBox="0 0 12 12" fill="none" xmlns="http://www.w3.org/2000/svg">
<path id="icon-plus" d="M6 0C6.56705 0 7.03305 0.432646 7.08592 0.985847L7.09091 1.09091L7.09064 4.90855L10.9091 4.90909C11.5116 4.90909 12 5.39751 12 6C12 6.56705 11.5674 7.03305 11.0142 7.08592L10.9091 7.09091L7.09064 7.09064L7.09091 10.9091C7.09091 11.5116 6.60249 12 6 12C5.43295 12 4.96695 11.5674 4.91408 11.0142L4.90909 10.9091L4.90855 7.09064L1.09091 7.09091C0.488417 7.09091 0 6.60249 0 6C0 5.43295 0.432646 4.96695 0.985847 4.91408L1.09091 4.90909L4.90855 4.90855L4.90909 1.09091C4.90909 0.488417 5.39751 0 6 0Z" fill="#285471"/>
</svg>
