<svg width="25" height="25" viewBox="0 0 25 25" fill="none" xmlns="http://www.w3.org/2000/svg">
<g id="icon-tree-settings">
<path id="Vector" d="M8.55626 6.29533C7.85378 6.29276 7.35661 6.06414 6.79495 5.62663C6.47993 5.38128 5.91268 4.91968 6.03707 4.44486C6.14723 4.02451 6.59812 3.99545 6.92672 3.85822C7.09221 3.78916 7.23565 3.69255 7.38977 3.60194C7.11077 3.17029 6.68509 2.37134 6.85998 1.88574C6.95014 1.63533 6.87428 1.38106 6.9155 1.1212C7.02908 0.404992 7.77385 0.0250601 8.42643 0.000206251C9.19462 -0.0108356 10.0608 0.421485 10.068 1.29474L10.0697 1.57919C10.0701 1.64484 10.0675 1.70995 10.0891 1.77281L10.1556 1.98505C10.2412 2.31336 9.99928 2.86553 9.82869 3.16519L9.58334 3.55579C9.82268 3.80562 10.1504 3.87802 10.4585 3.99864C11.0968 4.24846 11.0625 4.73554 10.6463 5.19608C10.0933 5.80797 9.38985 6.26786 8.55626 6.29533ZM8.39841 0.598431C7.72601 0.634583 7.42198 0.950128 7.46256 1.63133C7.47347 1.81544 7.47743 1.89497 7.38563 2.05895C7.30889 2.19613 7.34867 2.22856 7.40148 2.37556C7.59421 2.91124 7.92668 3.6873 8.61615 3.56498C9.10792 3.48518 9.35236 2.96017 9.51774 2.53279L9.65103 2.13947C9.44435 1.84021 9.54253 1.73236 9.53135 1.39258C9.51055 0.760973 8.9141 0.581043 8.39841 0.598431ZM8.96239 4.04673L8.77218 4.07081C8.58467 4.10493 8.17131 4.09124 7.99273 4.05883C7.99794 4.12248 8.10027 4.23733 8.14294 4.28635C8.37445 4.50357 8.6646 4.48194 8.87797 4.24328C8.8966 4.22247 9.04111 4.04622 8.96239 4.04673ZM9.51751 4.23644C9.22676 4.82148 8.67114 5.22896 8.03608 4.8912C7.76826 4.7488 7.6171 4.5205 7.47233 4.25978L6.58778 4.59302C6.74221 4.84242 6.98725 5.05045 7.21717 5.22468C8.21683 5.97119 9.13625 5.81564 10.0224 5.00777C10.1338 4.90622 10.2524 4.79312 10.3394 4.66889L10.3833 4.60302C10.273 4.53283 10.1267 4.49486 10.005 4.44517L9.51751 4.23644Z" fill="#285471"/>
<path id="Vector_2" d="M8.71142 18.0263C7.89839 18.0063 7.10189 17.4916 6.5974 16.8526C6.43266 16.6439 6.2507 16.4087 6.36413 16.1255C6.58782 15.5672 7.38611 15.8599 7.67857 15.3044C7.77268 15.1255 7.56529 14.9779 7.45358 14.7876C7.29313 14.5143 7.14443 14.1048 7.32658 13.8118C7.43704 13.6342 7.44282 13.7257 7.44787 13.5028C7.46133 12.9123 7.71768 12.5528 8.25604 12.3212C8.32864 12.29 8.40421 12.2779 8.47578 12.2475L8.47263 9.24642L4.09248 9.24797C4.06777 9.29161 4.06317 9.34083 4.04504 9.3874C3.96898 9.58254 3.8578 9.76403 3.74019 9.93448C3.62863 10.0963 3.51512 10.2229 3.6065 10.4318C3.74072 10.7386 4.65475 10.6524 4.41862 11.1581C4.27611 11.4634 3.47563 11.8185 3.1634 11.9256C2.44528 12.1721 1.91343 11.9603 1.2648 11.6194C1.06343 11.5136 0.732055 11.3546 0.662604 11.1093C0.53319 10.6521 1.32715 10.828 1.55134 10.398C1.65512 10.199 1.4452 9.99517 1.33949 9.81178L1.14571 9.4513C0.97707 9.14035 0.846481 8.83145 1.06008 8.48303C1.10944 8.40248 1.09323 8.3624 1.0952 8.26637C1.09989 8.03795 1.12906 7.82046 1.235 7.61677C1.8425 6.44909 4.01456 6.72685 4.09841 8.14815C4.10613 8.27923 4.08488 8.44177 4.12145 8.56691L4.14304 8.64917C4.26266 8.6737 4.39304 8.665 4.51479 8.66532L8.07985 8.66611C8.20647 8.66626 8.34115 8.65732 8.46636 8.67366L8.47453 7.57899C8.47358 7.26744 8.3665 6.87273 8.72434 6.74663L8.75642 6.74422C8.94199 6.73975 9.03318 6.92963 9.03288 7.10328L9.03657 8.66258L12.8623 8.66476C13.0386 8.66464 13.2295 8.6794 13.4034 8.65313C13.4412 8.42178 13.4142 8.18522 13.4557 7.95763C13.692 6.66239 15.7879 6.52253 16.3137 7.67422C16.4721 8.02118 16.3604 8.32983 16.4894 8.54226C16.7317 8.94117 16.3171 9.61506 16.1065 9.93784L15.9835 10.1222C15.925 10.2127 15.928 10.2786 15.9601 10.384C16.0717 10.7503 16.6022 10.6066 16.8072 10.8755C17.1935 11.3824 15.5182 11.9905 15.1634 12.0348C14.653 12.0986 14.1394 11.8627 13.6949 11.6322C13.472 11.5167 13.0049 11.3016 13.0706 10.9679C13.1266 10.6836 13.5663 10.733 13.7484 10.6029C14.1749 10.2983 13.7508 9.9454 13.5813 9.62978L13.463 9.39258C13.4402 9.34296 13.4306 9.29153 13.3959 9.24919L9.03277 9.2431L9.03364 12.2596C9.0783 12.2748 9.12692 12.2749 9.17272 12.2861C9.52794 12.3733 9.89749 12.7346 10.0169 13.0834C10.0847 13.2814 10.0091 13.5922 10.1212 13.7229C10.3779 14.0224 10.3004 14.3532 10.1202 14.6924C10.0129 14.8944 9.8212 15.077 9.84093 15.3245C9.85784 15.5363 10.3016 15.6707 10.4656 15.7098C10.8007 15.7897 11.1504 15.807 11.1667 16.3118C11.1757 16.59 10.9556 16.8208 10.7852 17.0081C10.1931 17.6588 9.56595 18.0029 8.71142 18.0263ZM2.54426 7.46579C2.20491 7.48972 1.75095 7.66314 1.66179 8.05065L1.65805 8.06656C1.61901 8.2448 1.66338 8.42847 1.64171 8.60601C1.61636 8.81369 1.45224 8.82924 1.55014 9.02568L1.87439 9.60952C2.07189 9.92744 2.25798 10.1357 2.63256 10.1271C3.15291 10.0442 3.45814 9.3595 3.64216 8.91047C3.4941 8.61364 3.55519 8.53305 3.54584 8.21125C3.53151 7.71992 2.96738 7.43805 2.54426 7.46579ZM14.8034 7.47461C14.4328 7.53147 14.0378 7.74045 13.9882 8.16176L13.986 8.17869C13.9474 8.51204 14.0441 8.49914 13.8882 8.84807C13.811 9.02086 14.2272 9.63852 14.3302 9.77341C14.5262 10.0299 14.7282 10.1582 15.04 10.125C15.4983 10.038 15.7503 9.46914 15.9301 9.07475C16.0299 8.8561 15.9816 8.931 15.9081 8.71719L15.9026 8.70152C15.8456 8.5317 15.9019 8.31353 15.8759 8.1341C15.8048 7.64106 15.2173 7.43809 14.8034 7.47461ZM3.04255 10.596C2.74743 10.6689 2.38375 10.7066 2.09358 10.6001L2.08936 10.6128C2.01805 10.8224 1.80661 11.0127 1.61396 11.1021L1.55641 11.1243L2.10534 11.3669C2.71313 11.5305 3.01345 11.3433 3.57499 11.1213C3.27044 11.0033 3.20263 10.8508 3.06115 10.5937L3.04255 10.596ZM15.4196 10.596L15.4063 10.6001C15.1644 10.6733 14.8483 10.6861 14.5966 10.6527C14.5585 10.6476 14.4741 10.5882 14.4518 10.6327C14.3381 10.8604 14.1737 11.0101 13.951 11.12C14.1373 11.2097 14.3192 11.3012 14.5159 11.3642C14.926 11.4746 15.2549 11.4372 15.6458 11.2813L15.9508 11.1444C15.7564 11.0436 15.5234 10.8575 15.451 10.6348L15.4196 10.596ZM8.7156 12.817C8.38995 12.8454 8.08768 13.0301 8.00315 13.3731L7.99843 13.3919C7.97464 13.4888 7.98137 13.5989 7.9879 13.6979C8.00999 14.0325 7.80682 14.0891 7.79807 14.1982C7.79207 14.2735 8.1103 14.8078 8.16892 14.9076C8.32176 15.1679 8.52584 15.3818 8.83541 15.3597C9.27573 15.2886 9.55782 14.5458 9.73674 14.1814C9.4588 13.9199 9.5571 13.8646 9.55383 13.525C9.54988 13.1208 9.123 12.8055 8.76083 12.8147L8.7156 12.817ZM9.19029 15.8315C8.91668 15.8799 8.61776 15.8919 8.34232 15.8446C8.35012 15.8709 8.37091 15.8952 8.38604 15.9177L8.4992 16.0763C8.55447 16.1379 8.61631 16.2189 8.704 16.2245C8.9139 16.2378 9.1495 16.032 9.21997 15.8315H9.19029ZM7.782 16.0247C7.49254 16.1745 7.22634 16.2894 6.90773 16.3535C7.38379 16.8941 7.92328 17.3867 8.66975 17.4199C9.1503 17.4413 9.64494 17.2577 10.0203 16.946C10.2012 16.7959 10.4513 16.5678 10.5751 16.3586C10.2707 16.2883 10.0043 16.1769 9.73001 16.0233C9.56842 16.3536 9.38958 16.6339 9.03144 16.7541C8.17382 17.0419 7.87668 16.0247 7.782 16.0247Z" fill="#285471"/>
<path id="Vector_3" d="M2.54295 18.3659C1.65346 18.4757 0.586684 17.7639 0.130151 17.0172C0.0146969 16.8284 -0.0560565 16.632 0.0575042 16.4196C0.306332 15.9542 1.00287 16.1994 1.29821 15.7569C1.35721 15.6685 1.38106 15.6478 1.33561 15.5566C1.25955 15.404 1.13866 15.2783 1.05745 15.1278C0.926012 14.8843 0.778775 14.361 1.04763 14.1487C1.14641 14.0706 1.11452 13.997 1.11608 13.8823C1.12535 13.2 1.64008 12.8025 2.27314 12.7231C2.27692 12.7222 2.28082 12.7223 2.28468 12.722C2.94926 12.6713 3.65308 13.0781 3.68643 13.8161C3.70176 14.1558 3.63704 14.0044 3.82576 14.2346C4.00518 14.4534 3.86102 14.9622 3.7264 15.1926C3.59528 15.417 3.3448 15.623 3.60582 15.8587C3.93391 16.1548 4.40975 16.0222 4.70146 16.2801C5.0367 16.5764 4.81322 17.003 4.57068 17.2733C4.03115 17.8747 3.36035 18.3295 2.54295 18.3659ZM2.30633 13.2837C2.01511 13.3218 1.74891 13.5012 1.66703 13.7976L1.66235 13.8141C1.62073 13.9684 1.6731 14.1279 1.6496 14.2809C1.63225 14.394 1.44582 14.5659 1.45072 14.6315C1.45848 14.7353 1.58325 14.9166 1.63433 15.0059C1.83035 15.3484 2.06179 15.8348 2.52586 15.7475C2.78683 15.67 2.91597 15.4583 3.05094 15.2331L3.38716 14.615C3.09579 14.3296 3.19843 14.2872 3.18078 13.9364C3.16107 13.5447 2.7095 13.2692 2.36025 13.2808C2.34761 13.2812 2.31709 13.2795 2.30633 13.2837ZM1.96898 16.2277C2.13832 16.4771 2.33583 16.7442 2.63658 16.5128L2.73997 16.4164L2.87524 16.2199C2.58289 16.2862 2.26365 16.2708 1.96898 16.2277ZM1.42994 16.3908C1.15852 16.5459 0.878566 16.6662 0.56497 16.6925C1.37108 17.7714 2.5657 18.1716 3.68742 17.3237C3.89045 17.1582 4.11173 16.9574 4.24722 16.7282C3.94973 16.6491 3.65708 16.5455 3.38693 16.3932C2.94024 17.3652 2.03029 17.474 1.4993 16.4857C1.48452 16.4582 1.46058 16.3931 1.42994 16.3908Z" fill="#285471"/>
<path id="Vector_4" d="M17.4025 12.0537L16.9813 13.3664L16.9838 13.5333L16.9034 13.3863L15.9004 12.4672L14.5858 13.2443L14.8609 14.5919L14.9486 14.7388L14.8049 14.6491L13.4855 14.3677L12.7259 15.7152L13.6242 16.7414L13.7679 16.8236L13.6047 16.8211L12.3242 17.2495V18.8063L13.6047 19.2346L13.7679 19.2321L13.6242 19.3143L12.7259 20.3405L13.4855 21.6881L14.8049 21.4041L14.9486 21.3169L14.8609 21.4613L14.5858 22.8114L15.9004 23.5885L16.9034 22.6694L16.9838 22.5224L16.9813 22.6893L17.4025 23.9995H18.9216L19.3428 22.6893L19.3404 22.5224L19.4207 22.6694L20.4237 23.5885L21.7383 22.8114L21.4631 21.4613L21.3756 21.3169L21.5192 21.4041L22.8387 21.6881L23.5982 20.3405L22.6999 19.3143L22.5563 19.2321L22.7194 19.2346L23.9999 18.8063V17.2495L22.7194 16.8211L22.5563 16.8236L22.6999 16.7414L23.5982 15.7152L22.8387 14.3677L21.5192 14.6491L21.3756 14.7388L21.4632 14.5919L21.7383 13.2443L20.4236 12.4672L19.4207 13.3863L19.3404 13.5333L19.3428 13.3664L18.9216 12.0537H17.4025ZM18.162 15.7003C18.7655 15.7 19.3443 15.945 19.7712 16.3813C20.1981 16.8175 20.438 17.4095 20.4383 18.0267C20.438 18.6439 20.1981 19.2358 19.7712 19.6721C19.3443 20.1084 18.7655 20.3533 18.162 20.3531C17.5586 20.3533 16.9798 20.1084 16.5529 19.6721C16.126 19.2358 15.8861 18.6439 15.8858 18.0267C15.8861 17.4095 16.126 16.8175 16.5529 16.3813C16.9798 15.945 17.5586 15.7 18.162 15.7003ZM20.8887 16.2831L20.9714 16.3678L21.0201 16.5571C20.9805 16.4638 20.9366 16.3724 20.8887 16.2831ZM21.266 17.4887L21.4072 18.0267L20.9714 19.688L19.7834 20.9036L18.162 21.3495L16.5407 20.9036L16.0368 20.388C16.6116 20.869 17.3326 21.1323 18.0768 21.1327C18.4991 21.1329 18.9172 21.0484 19.3074 20.8841C19.6975 20.7199 20.052 20.479 20.3506 20.1753C20.6493 19.8716 20.8862 19.511 21.0478 19.1142C21.2095 18.7173 21.2927 18.2919 21.2928 17.8623C21.2909 17.7374 21.2819 17.6126 21.266 17.4887ZM15.3089 19.5162C15.393 19.663 15.4882 19.8029 15.5937 19.9347L15.3527 19.688L15.3089 19.5162Z" fill="#285471" stroke="#285471" stroke-width="0.210735" stroke-linecap="round" stroke-linejoin="round"/>
</g>
</svg>
