<svg width="12" height="12" viewBox="0 0 12 12" fill="none" xmlns="http://www.w3.org/2000/svg">
<g id="icon-edit">
<path d="M8.73316 1.39586C8.72754 1.39011 8.72438 1.38239 8.72438 1.37435C8.72438 1.36631 8.72754 1.3586 8.73316 1.35285L9.90721 0.178138C10.0186 0.0668211 10.1681 0.00277621 10.3229 8.81433e-05C10.4776 -0.00259992 10.6249 0.056289 10.7325 0.163804L11.8362 1.26753C11.9437 1.37504 12.0026 1.52237 11.9999 1.67712C11.9972 1.83188 11.9332 1.98139 11.8219 2.09277L10.6471 3.2668C10.6414 3.27243 10.6337 3.27558 10.6256 3.27558C10.6176 3.27558 10.6099 3.27243 10.6041 3.2668L8.73316 1.39586Z" fill="#285471"/>
<path d="M3.0916 10.7963C2.3312 11.1615 1.56534 11.5294 0.796751 11.8973C0.659779 11.9628 0.556026 11.997 0.485492 11.9997C0.239762 12.0092 0.00973046 11.7949 0.000174277 11.5478C-0.00255606 11.4709 0.0267952 11.3681 0.0882278 11.2393C0.462284 10.4584 0.834748 9.68189 1.20562 8.90966C1.22189 8.87622 1.24356 8.84556 1.26978 8.81888L7.91952 2.16922C7.92217 2.16651 7.92535 2.16439 7.92887 2.16296C7.9324 2.16153 7.93621 2.16083 7.94008 2.16089C7.94395 2.16095 7.94781 2.16178 7.95142 2.16333C7.95504 2.16487 7.95835 2.16711 7.96116 2.1699L9.82666 4.03538C9.84305 4.05176 9.84305 4.06837 9.82666 4.08521L3.17215 10.739C3.14865 10.7625 3.12143 10.7818 3.0916 10.7963Z" fill="#285471"/>
</g>
</svg>
