<svg width="24" height="24" viewBox="0 0 24 24" fill="none" xmlns="http://www.w3.org/2000/svg">
<g clip-path="url(#clip0_619_51)">
<path d="M12 2.16C15.21 2.16 15.585 2.16 16.845 2.16C17.6086 2.17053 18.3647 2.31261 19.08 2.58C19.6015 2.77308 20.0731 3.08063 20.46 3.48C20.8594 3.86695 21.1669 4.33851 21.36 4.86C21.6274 5.57533 21.7695 6.3314 21.78 7.095C21.78 8.355 21.78 8.745 21.78 11.94C21.78 15.135 21.78 15.525 21.78 16.785C21.7695 17.5486 21.6274 18.3047 21.36 19.02C21.1603 19.5382 20.8543 20.0089 20.4616 20.4016C20.0689 20.7943 19.5982 21.1003 19.08 21.3C18.3647 21.5674 17.6086 21.7095 16.845 21.72C15.585 21.72 15.195 21.72 12 21.72C8.805 21.72 8.415 21.72 7.155 21.72C6.3914 21.7095 5.63533 21.5674 4.92 21.3C4.39851 21.1069 3.92695 20.7994 3.54 20.4C3.14063 20.0131 2.83308 19.5415 2.64 19.02C2.37261 18.3047 2.23053 17.5486 2.22 16.785C2.22 15.525 2.22 15.135 2.22 11.94C2.22 8.745 2.22 8.355 2.22 7.095C2.23053 6.3314 2.37261 5.57533 2.64 4.86C2.83308 4.33851 3.14063 3.86695 3.54 3.48C3.92695 3.08063 4.39851 2.77308 4.92 2.58C5.63533 2.31261 6.3914 2.17053 7.155 2.16C8.415 2.16 8.805 2.16 12 2.16ZM12 0C8.745 0 8.325 0 7.05 0C6.05127 0.0432853 5.0672 0.256331 4.14 0.63C3.33801 0.92946 2.61108 1.40043 2.01 2.01C1.40043 2.61108 0.92946 3.33801 0.63 4.14C0.256331 5.0672 0.0432853 6.05127 0 7.05C0 8.325 0 8.745 0 12C0 15.255 0 15.675 0 16.95C0.0193223 17.9444 0.206978 18.9283 0.555 19.86C0.85446 20.662 1.32543 21.3889 1.935 21.99C2.53608 22.5996 3.26301 23.0705 4.065 23.37C5.01576 23.7521 6.02592 23.9653 7.05 24C8.325 24 8.745 24 12 24C15.255 24 15.675 24 16.95 24C17.9444 23.9807 18.9283 23.793 19.86 23.445C20.6573 23.1368 21.3814 22.6653 21.9858 22.0608C22.5903 21.4564 23.0618 20.7323 23.37 19.935C23.7521 18.9842 23.9653 17.9741 24 16.95C24 15.675 24 15.255 24 12C24 8.745 24 8.325 24 7.05C23.9807 6.05562 23.793 5.07169 23.445 4.14C23.1455 3.33801 22.6746 2.61108 22.065 2.01C21.4422 1.39115 20.6888 0.919615 19.86 0.63C18.9328 0.256331 17.9487 0.0432853 16.95 0C15.675 0 15.255 0 12 0Z" fill="#269A48"/>
<path d="M12 5.835C10.7807 5.835 9.58874 6.19657 8.57491 6.87399C7.56108 7.55141 6.7709 8.51425 6.30428 9.64076C5.83767 10.7673 5.71558 12.0068 5.95346 13.2027C6.19134 14.3986 6.7785 15.4971 7.64069 16.3593C8.50288 17.2215 9.60138 17.8087 10.7973 18.0465C11.9932 18.2844 13.2327 18.1623 14.3592 17.6957C15.4858 17.2291 16.4486 16.4389 17.126 15.4251C17.8034 14.4113 18.165 13.2193 18.165 12C18.165 10.3649 17.5155 8.79685 16.3593 7.64069C15.2032 6.48452 13.6351 5.835 12 5.835ZM12 15.99C11.2073 15.99 10.4323 15.7547 9.77339 15.314C9.11445 14.8732 8.60113 14.2469 8.29845 13.5142C7.99577 12.7815 7.91734 11.9754 8.07309 11.1981C8.22884 10.4208 8.61177 9.70724 9.17339 9.14773C9.735 8.58822 10.45 8.20797 11.2279 8.05513C12.0058 7.9023 12.8115 7.98375 13.5431 8.28918C14.2746 8.59461 14.8991 9.11028 15.3373 9.77087C15.7756 10.4315 16.008 11.2073 16.005 12C16.005 13.0622 15.583 14.0809 14.832 14.832C14.0809 15.583 13.0622 16.005 12 16.005V15.99Z" fill="#269A48"/>
<path d="M18.405 7.035C19.2003 7.035 19.845 6.39029 19.845 5.595C19.845 4.79971 19.2003 4.155 18.405 4.155C17.6097 4.155 16.965 4.79971 16.965 5.595C16.965 6.39029 17.6097 7.035 18.405 7.035Z" fill="#269A48"/>
</g>
<defs>
<clipPath id="clip0_619_51">
<rect width="24" height="24" fill="white"/>
</clipPath>
</defs>
</svg>
