<svg width="12" height="12" viewBox="0 0 12 12" fill="none" xmlns="http://www.w3.org/2000/svg">
<g id="link" clip-path="url(#clip0_347_1486)">
<path id="Vector" d="M8.41505 0H8.78958C10.5736 0.137812 11.9105 1.49812 12.0001 3.28734V3.51984C11.9632 4.20797 11.7551 4.82188 11.3757 5.36156C11.2619 5.52344 11.0538 5.75594 10.7513 6.05906C10.3947 6.41656 10.0376 6.77375 9.67974 7.13062C9.50693 7.30312 9.37068 7.40969 9.27099 7.45031C8.67802 7.69313 8.04193 7.06031 8.30443 6.46266C8.34412 6.37234 8.4374 6.25344 8.58427 6.10594C8.93146 5.75812 9.27896 5.41047 9.62677 5.06297C9.94677 4.74328 10.1511 4.50844 10.2399 4.35844C11.2224 2.69203 9.31974 0.777656 7.64958 1.755C7.49833 1.84375 7.26662 2.04406 6.95443 2.35594C6.57068 2.73969 6.18708 3.12328 5.80365 3.50672C5.65271 3.65797 5.47599 3.73859 5.27349 3.74859C4.73162 3.77531 4.34162 3.19594 4.56333 2.70656C4.60896 2.60594 4.72443 2.46328 4.90974 2.27859C5.25787 1.93172 5.60583 1.58453 5.95365 1.23703C6.25583 0.935156 6.48849 0.727344 6.65161 0.613594C7.17005 0.252031 7.75786 0.0475 8.41505 0Z" fill="#285471"/>
<path id="Vector_2" d="M8.10384 2.84456L2.83711 8.09294C2.54738 8.38166 2.54656 8.8506 2.83529 9.14034L2.84852 9.15362C3.13725 9.44335 3.60619 9.44417 3.89592 9.15545L9.16265 3.90707C9.45239 3.61834 9.4532 3.14941 9.16448 2.85967L9.15124 2.84639C8.86252 2.55665 8.39358 2.55583 8.10384 2.84456Z" fill="#285471"/>
<path id="Vector_3" d="M3.52734 12H3.31266C1.50516 11.917 0.118125 10.567 0 8.76046V8.40093C0.06875 7.53249 0.406563 6.7928 1.01344 6.18187C1.49437 5.69749 1.97656 5.21468 2.46 4.73343C3.17344 4.0228 4.23047 5.06577 3.52078 5.78249C3.03297 6.2753 2.54469 6.76749 2.05594 7.25905C1.27406 8.04562 1.33219 9.28359 2.13797 10.0205C2.71969 10.552 3.65906 10.6556 4.34578 10.2516C4.49484 10.1637 4.73 9.95937 5.05125 9.63843C5.44125 9.24905 5.83062 8.85937 6.21937 8.46937C6.66 8.02687 7.42078 8.29452 7.49484 8.91468C7.53188 9.22593 7.39453 9.41437 7.16484 9.64499C6.86516 9.94593 6.565 10.2462 6.26437 10.5459C5.88281 10.9259 5.65891 11.1439 5.59266 11.1998C5.01078 11.6883 4.32234 11.955 3.52734 12Z" fill="#285471"/>
</g>
<defs>
<clipPath id="clip0_347_1486">
<rect width="12" height="12" fill="white"/>
</clipPath>
</defs>
</svg>
