<svg width="24" height="24" viewBox="0 0 24 24" fill="none" xmlns="http://www.w3.org/2000/svg">
<g id="user 2" clip-path="url(#clip0_122_2372)">
<g id="Clip path group">
<mask id="mask0_122_2372" style="mask-type:luminance" maskUnits="userSpaceOnUse" x="0" y="0" width="24" height="25">
<g id="clip0_640_40">
<path id="Vector" d="M24 0.513672H0V24.6037H24V0.513672Z" fill="white"/>
</g>
</mask>
<g mask="url(#mask0_122_2372)">
<g id="Group">
<path id="Vector_2" d="M12 2.52148C6.48 2.52148 2 7.01828 2 12.559C2 18.0997 6.48 22.5965 12 22.5965C17.52 22.5965 22 18.0997 22 12.559C22 7.01828 17.52 2.52148 12 2.52148ZM12 5.53273C13.66 5.53273 15 6.87776 15 8.54398C15 10.2102 13.66 11.5552 12 11.5552C10.34 11.5552 9 10.2102 9 8.54398C9 6.87776 10.34 5.53273 12 5.53273ZM12 19.786C10.8119 19.786 9.64218 19.4909 8.59528 18.9269C7.54837 18.363 6.65678 17.5477 6 16.5539C6.03 14.5564 10 13.4624 12 13.4624C13.99 13.4624 17.97 14.5564 18 16.5539C17.3432 17.5477 16.4516 18.363 15.4047 18.9269C14.3578 19.4909 13.1881 19.786 12 19.786Z" fill="#285471"/>
</g>
</g>
</g>
</g>
<defs>
<clipPath id="clip0_122_2372">
<rect width="24" height="24" fill="white"/>
</clipPath>
</defs>
</svg>
