<svg width="24" height="22" viewBox="0 0 24 22" fill="none" xmlns="http://www.w3.org/2000/svg">
<path id="Vector" fill-rule="evenodd" clip-rule="evenodd" d="M5.21739 0C4.6639 0 4.13306 0.188511 3.74169 0.524047C3.35032 0.859584 3.13043 1.31469 3.13043 1.78921V20.1286H1.04348C0.766734 20.1286 0.501315 20.2228 0.305628 20.3907C0.109941 20.5584 0 20.786 0 21.0232C0 21.2605 0.109941 21.488 0.305628 21.6557C0.501315 21.8236 0.766734 21.9178 1.04348 21.9178H22.9565C23.2333 21.9178 23.4987 21.8236 23.6943 21.6557C23.8901 21.488 24 21.2605 24 21.0232C24 20.786 23.8901 20.5584 23.6943 20.3907C23.4987 20.2228 23.2333 20.1286 22.9565 20.1286H20.8696V1.78921C20.8696 1.31469 20.6497 0.859584 20.2584 0.524047C19.867 0.188511 19.3361 0 18.7826 0H5.21739ZM18.7826 20.1286V1.78921H5.21739V20.1286H18.7826ZM16.928 11.8279C17.0611 11.7136 17.1669 11.578 17.2388 11.4286C17.3109 11.2794 17.348 11.1195 17.3479 10.9578C17.3479 10.7963 17.3106 10.6364 17.2385 10.4871C17.1663 10.3379 17.0606 10.2023 16.9273 10.0882C16.794 9.974 16.6358 9.88335 16.4616 9.82168C16.2876 9.7599 16.101 9.72805 15.9125 9.72817C15.7241 9.72817 15.5375 9.76013 15.3635 9.82192C15.1894 9.88383 15.0312 9.97448 14.8981 10.0888C14.6291 10.3196 14.4781 10.6324 14.4782 10.9588C14.4783 11.285 14.6296 11.5979 14.8988 11.8285C15.168 12.059 15.5329 12.1886 15.9136 12.1884C16.2941 12.1883 16.6591 12.0587 16.928 11.8279Z" fill="#285471"/>
</svg>
