<svg width="24" height="24" viewBox="0 0 24 24" fill="none" xmlns="http://www.w3.org/2000/svg">
<path d="M22.0714 16.5H20.625V12.75H12.9107V10.2857H19.2857C19.5214 10.2857 19.7143 10.0929 19.7143 9.85715V2.78572C19.7143 2.55 19.5214 2.35715 19.2857 2.35715H4.71429C4.47857 2.35715 4.28572 2.55 4.28572 2.78572V9.85715C4.28572 10.0929 4.47857 10.2857 4.71429 10.2857H11.0893V12.75H3.375V16.5H1.92857C1.81072 16.5 1.71429 16.5964 1.71429 16.7143V21.4286C1.71429 21.5464 1.81072 21.6429 1.92857 21.6429H6.64286C6.76072 21.6429 6.85714 21.5464 6.85714 21.4286V16.7143C6.85714 16.5964 6.76072 16.5 6.64286 16.5H5.19643V14.5714H11.0893V16.5H9.64286C9.525 16.5 9.42857 16.5964 9.42857 16.7143V21.4286C9.42857 21.5464 9.525 21.6429 9.64286 21.6429H14.3571C14.475 21.6429 14.5714 21.5464 14.5714 21.4286V16.7143C14.5714 16.5964 14.475 16.5 14.3571 16.5H12.9107V14.5714H18.8036V16.5H17.3571C17.2393 16.5 17.1429 16.5964 17.1429 16.7143V21.4286C17.1429 21.5464 17.2393 21.6429 17.3571 21.6429H22.0714C22.1893 21.6429 22.2857 21.5464 22.2857 21.4286V16.7143C22.2857 16.5964 22.1893 16.5 22.0714 16.5ZM5.14286 19.8563C5.14286 19.8964 5.11072 19.9286 5.07054 19.9286H3.49822C3.45804 19.9286 3.42589 19.8964 3.42589 19.8563V18.2839C3.42589 18.2438 3.45804 18.2116 3.49822 18.2116H5.07054C5.11072 18.2116 5.14286 18.2438 5.14286 18.2839V19.8563ZM12.8571 19.8563C12.8571 19.8964 12.825 19.9286 12.7848 19.9286H11.2125C11.1723 19.9286 11.1402 19.8964 11.1402 19.8563V18.2839C11.1402 18.2438 11.1723 18.2116 11.2125 18.2116H12.7848C12.825 18.2116 12.8571 18.2438 12.8571 18.2839V19.8563ZM6 8.57143V4.07143H18V8.57143H6ZM20.5714 19.8563C20.5714 19.8964 20.5393 19.9286 20.4991 19.9286H18.9268C18.8866 19.9286 18.8545 19.8964 18.8545 19.8563V18.2839C18.8545 18.2438 18.8866 18.2116 18.9268 18.2116H20.4991C20.5393 18.2116 20.5714 18.2438 20.5714 18.2839V19.8563ZM7.92857 6.32143C7.92857 6.60559 8.04145 6.87812 8.24239 7.07905C8.44332 7.27998 8.71584 7.39286 9 7.39286C9.28416 7.39286 9.55668 7.27998 9.75762 7.07905C9.95855 6.87812 10.0714 6.60559 10.0714 6.32143C10.0714 6.03727 9.95855 5.76475 9.75762 5.56382C9.55668 5.36289 9.28416 5.25 9 5.25C8.71584 5.25 8.44332 5.36289 8.24239 5.56382C8.04145 5.76475 7.92857 6.03727 7.92857 6.32143Z" fill="#285471"/>
</svg>
