<svg width="24" height="24" viewBox="0 0 24 24" fill="none" xmlns="http://www.w3.org/2000/svg">
<path d="M22.5793 18.1339L22.4303 16.9454L16.8951 15.1726L15.2095 16.4848C14.7058 16.876 14.0017 16.9058 13.462 16.5542C12.7785 16.1085 11.1236 14.7467 10.0854 13.7564C9.05756 12.756 8.31234 11.8053 7.84466 11.1417C7.47976 10.6267 7.5106 9.9433 7.91662 9.45799L9.27855 7.83375L7.43865 2.50047L6.2052 2.35686C5.36233 2.25782 4.51433 2.52522 3.90789 3.09471C2.75152 4.17919 2.2787 5.54594 2.26841 6.74431C2.25814 8.26953 2.57678 9.53723 3.19864 10.8198C4.02095 12.5233 5.12592 14.3456 7.1971 16.3363C10.4503 19.4709 12.1155 20.3722 13.7961 21.0259C15.1581 21.5606 16.3812 21.9023 18.0259 21.9221C19.2695 21.937 20.688 21.4567 21.8135 20.3424C22.4045 19.763 22.6821 18.946 22.5793 18.1339Z" stroke="#269A48" stroke-width="1.5" stroke-miterlimit="10"/>
<path d="M22.4919 18.4113L16.4892 16.3315L22.6667 17.8616L22.4919 18.4113Z" fill="#269A48"/>
</svg>
