<svg width="32" height="24" viewBox="0 0 32 24" fill="none" xmlns="http://www.w3.org/2000/svg">
<path d="M8.95793 6.58306C8.22254 6.58037 7.70207 6.3413 7.11409 5.88379C6.78431 5.62723 6.19047 5.14454 6.32069 4.64802C6.43602 4.20845 6.90803 4.17806 7.25203 4.03456C7.42528 3.96234 7.57544 3.86132 7.73678 3.76657C7.4447 3.31519 6.99908 2.47972 7.18216 1.97193C7.27655 1.71007 7.19713 1.44419 7.24028 1.17244C7.35919 0.423503 8.13886 0.0262055 8.82202 0.000215678C9.62621 -0.0113308 10.5329 0.440749 10.5405 1.35392L10.5423 1.65136C10.5427 1.72002 10.54 1.78811 10.5626 1.85384L10.6322 2.07577C10.7219 2.41909 10.4686 2.9965 10.29 3.30986L10.0331 3.71831C10.2837 3.97955 10.6268 4.05527 10.9493 4.1814C11.6175 4.44264 11.5816 4.95198 11.1459 5.43357C10.567 6.07343 9.83059 6.55433 8.95793 6.58306ZM8.79268 0.625782C8.08878 0.663587 7.7705 0.993554 7.81298 1.70589C7.8244 1.89841 7.82854 1.98158 7.73244 2.15306C7.65211 2.2965 7.69375 2.33042 7.74904 2.48414C7.9508 3.04429 8.29885 3.85583 9.02063 3.72792C9.53544 3.64447 9.79134 3.09546 9.96447 2.64856L10.104 2.23725C9.88764 1.92431 9.99042 1.81154 9.97872 1.45623C9.95694 0.795754 9.33254 0.6076 8.79268 0.625782ZM9.38309 4.23168L9.18397 4.25687C8.98767 4.29255 8.55494 4.27823 8.368 4.24434C8.37345 4.3109 8.48058 4.431 8.52524 4.48226C8.7676 4.70941 9.07135 4.68679 9.29472 4.43723C9.31422 4.41546 9.4655 4.23115 9.38309 4.23168ZM9.96423 4.43006C9.65985 5.04185 9.0782 5.46795 8.41338 5.11476C8.133 4.96585 7.97476 4.72711 7.82321 4.45448L6.89721 4.80295C7.05887 5.06374 7.3154 5.28128 7.55609 5.46347C8.60259 6.24411 9.5651 6.08144 10.4927 5.23665C10.6094 5.13046 10.7335 5.01219 10.8247 4.88228L10.8706 4.8134C10.7551 4.74001 10.6019 4.7003 10.4746 4.64834L9.96423 4.43006Z" fill="#285471"/>
<path d="M9.1199 18.8506C8.26877 18.8296 7.43495 18.2914 6.90682 17.6232C6.73436 17.405 6.54387 17.159 6.66261 16.8629C6.89679 16.2791 7.73248 16.5851 8.03865 16.0042C8.13717 15.8172 7.92006 15.6629 7.80311 15.4639C7.63515 15.178 7.47948 14.7498 7.67017 14.4435C7.7858 14.2577 7.79185 14.3534 7.79714 14.1203C7.81123 13.5028 8.07959 13.1269 8.64318 12.8847C8.71918 12.852 8.79829 12.8394 8.87322 12.8076L8.86992 9.66938L4.28451 9.671C4.25865 9.71663 4.25383 9.7681 4.23485 9.8168C4.15523 10.0209 4.03883 10.2106 3.91571 10.3889C3.79892 10.5581 3.6801 10.6905 3.77576 10.9089C3.91627 11.2298 4.87313 11.1397 4.62594 11.6684C4.47675 11.9876 3.63875 12.359 3.3119 12.471C2.56012 12.7287 2.00335 12.5073 1.32433 12.1509C1.11351 12.0402 0.766613 11.8739 0.693908 11.6174C0.558429 11.1393 1.3896 11.3233 1.6243 10.8736C1.73293 10.6655 1.51318 10.4524 1.40251 10.2606L1.19965 9.88362C1.02311 9.55846 0.886401 9.23545 1.11001 8.8711C1.16168 8.78687 1.14472 8.74495 1.14678 8.64454C1.15168 8.40568 1.18222 8.17825 1.29312 7.96525C1.92909 6.7442 4.20294 7.03465 4.29072 8.52091C4.2988 8.65798 4.27655 8.82795 4.31484 8.95882L4.33744 9.04484C4.46267 9.07049 4.59915 9.06139 4.72661 9.06172L8.45874 9.06254C8.59129 9.06271 8.73227 9.05336 8.86335 9.07045L8.87191 7.92574C8.87091 7.59995 8.75882 7.1872 9.13343 7.05534L9.16701 7.05282C9.36128 7.04814 9.45674 7.2467 9.45642 7.42829L9.46028 9.05886L13.4653 9.06114C13.6498 9.06101 13.8497 9.07645 14.0318 9.04897C14.0714 8.80706 14.0431 8.55968 14.0865 8.32169C14.3339 6.96725 16.528 6.82099 17.0785 8.02532C17.2443 8.38814 17.1273 8.7109 17.2624 8.93304C17.516 9.35018 17.082 10.0549 16.8615 10.3924L16.7327 10.5852C16.6715 10.6799 16.6746 10.7488 16.7083 10.8589C16.8251 11.242 17.3804 11.0917 17.595 11.3729C17.9995 11.903 16.2456 12.5388 15.8742 12.5852C15.3399 12.6519 14.8022 12.4052 14.3369 12.1642C14.1035 12.0434 13.6145 11.8185 13.6833 11.4695C13.742 11.1722 14.2023 11.2239 14.393 11.0879C14.8394 10.7694 14.3954 10.4003 14.218 10.0703L14.0942 9.82222C14.0703 9.77034 14.0603 9.71655 14.0239 9.67228L9.45631 9.66591L9.45722 12.8203C9.50398 12.8362 9.55487 12.8362 9.60282 12.848C9.97469 12.9392 10.3616 13.317 10.4866 13.6817C10.5576 13.8888 10.4784 14.2138 10.5957 14.3505C10.8645 14.6637 10.7834 15.0096 10.5947 15.3643C10.4824 15.5755 10.2817 15.7665 10.3023 16.0253C10.32 16.2467 10.7845 16.3873 10.9563 16.4282C11.3071 16.5117 11.6732 16.5298 11.6902 17.0576C11.6996 17.3486 11.4693 17.5899 11.2908 17.7858C10.671 18.4662 10.0145 18.826 9.1199 18.8506ZM2.66374 7.80736C2.30849 7.8324 1.83326 8.01374 1.73991 8.41896L1.736 8.43559C1.69513 8.62199 1.74158 8.81405 1.71889 8.9997C1.69235 9.21687 1.52055 9.23313 1.62303 9.43856L1.96248 10.0491C2.16923 10.3815 2.36404 10.5993 2.75617 10.5903C3.30091 10.5036 3.62045 9.78763 3.81309 9.31807C3.65809 9.00768 3.72204 8.9234 3.71225 8.5869C3.69725 8.07311 3.10669 7.77836 2.66374 7.80736ZM15.4973 7.81659C15.1094 7.87604 14.6959 8.09459 14.6439 8.53514L14.6417 8.55285C14.6012 8.90143 14.7025 8.88794 14.5393 9.25283C14.4585 9.43351 14.8942 10.0794 15.002 10.2205C15.2072 10.4886 15.4186 10.6229 15.745 10.5881C16.2248 10.4971 16.4886 9.90228 16.6769 9.48986C16.7813 9.26122 16.7308 9.33955 16.6539 9.11596L16.648 9.09957C16.5885 8.92199 16.6473 8.69385 16.6202 8.50622C16.5456 7.99065 15.9306 7.7784 15.4973 7.81659ZM3.18538 11.0806C2.87643 11.1568 2.49571 11.1963 2.19194 11.0849L2.18752 11.0982C2.11288 11.3174 1.89153 11.5163 1.68985 11.6099L1.6296 11.6331L2.20425 11.8868C2.84052 12.0579 3.15492 11.8621 3.74277 11.63C3.42395 11.5066 3.35296 11.3471 3.20485 11.0782L3.18538 11.0806ZM16.1424 11.0806L16.1285 11.0849C15.8753 11.1615 15.5443 11.1749 15.2809 11.1399C15.241 11.1346 15.1526 11.0724 15.1293 11.1191C15.0103 11.3571 14.8382 11.5137 14.605 11.6286C14.8 11.7224 14.9905 11.818 15.1963 11.884C15.6257 11.9994 15.97 11.9603 16.3792 11.7972L16.6985 11.6541C16.495 11.5487 16.2511 11.3541 16.1753 11.1213L16.1424 11.0806ZM9.12427 13.4032C8.78337 13.4328 8.46694 13.626 8.37844 13.9847L8.3735 14.0043C8.34859 14.1057 8.35564 14.2208 8.36248 14.3244C8.3856 14.6743 8.17291 14.7334 8.16376 14.8475C8.15747 14.9263 8.49061 15.4849 8.55197 15.5893C8.71198 15.8615 8.92563 16.0852 9.2497 16.0621C9.71066 15.9877 10.006 15.211 10.1933 14.8299C9.9023 14.5565 10.0052 14.4986 10.0018 14.1435C9.99765 13.7208 9.55077 13.3912 9.17163 13.4007L9.12427 13.4032ZM9.62121 16.5555C9.33478 16.606 9.02185 16.6186 8.73351 16.5692C8.74167 16.5966 8.76343 16.6221 8.77927 16.6456L8.89773 16.8115C8.95559 16.8758 9.02034 16.9605 9.11214 16.9664C9.33187 16.9803 9.57851 16.7651 9.65229 16.5555H9.62121ZM8.14692 16.7575C7.8439 16.9141 7.56523 17.0343 7.23169 17.1013C7.73005 17.6666 8.29483 18.1817 9.07628 18.2164C9.57934 18.2388 10.0972 18.0468 10.4901 17.7209C10.6795 17.5639 10.9413 17.3253 11.0709 17.1067C10.7523 17.0331 10.4734 16.9166 10.1862 16.756C10.0171 17.1014 9.82984 17.3945 9.45491 17.5202C8.55711 17.8211 8.24605 16.7575 8.14692 16.7575Z" fill="#285471"/>
<path d="M2.66212 19.2051C1.73094 19.3199 0.614176 18.5756 0.13625 17.7947C0.0153856 17.5973 -0.0586834 17.392 0.0601989 17.1699C0.320687 16.6832 1.04986 16.9396 1.35905 16.4768C1.42082 16.3844 1.44578 16.3628 1.3982 16.2674C1.31858 16.1078 1.19202 15.9764 1.107 15.819C0.969406 15.5643 0.815269 15.0171 1.09673 14.7951C1.20013 14.7135 1.16675 14.6365 1.16838 14.5166C1.17809 13.8031 1.71694 13.3874 2.37966 13.3044C2.38361 13.3035 2.38771 13.3036 2.39174 13.3033C3.08746 13.2502 3.82427 13.6757 3.85918 14.4473C3.87523 14.8026 3.80747 14.6443 4.00504 14.885C4.19286 15.1138 4.04195 15.6458 3.90102 15.8868C3.76376 16.1215 3.50154 16.3369 3.77479 16.5833C4.11826 16.893 4.6164 16.7542 4.92177 17.0239C5.27273 17.3338 5.03877 17.7799 4.78487 18.0626C4.22005 18.6915 3.51782 19.1671 2.66212 19.2051ZM2.4144 13.8906C2.10954 13.9305 1.83087 14.1181 1.74515 14.428L1.74025 14.4452C1.69668 14.6067 1.7515 14.7734 1.7269 14.9334C1.70874 15.0516 1.51357 15.2314 1.51871 15.3C1.52683 15.4085 1.65744 15.5981 1.71092 15.6915C1.91613 16.0497 2.15841 16.5583 2.64422 16.4671C2.91743 16.386 3.05261 16.1647 3.19391 15.9291L3.54588 15.2828C3.24086 14.9843 3.34831 14.94 3.32984 14.5731C3.3092 14.1636 2.83647 13.8755 2.47086 13.8875C2.45762 13.888 2.42567 13.8862 2.4144 13.8906ZM2.06125 16.9692C2.23853 17.23 2.44529 17.5093 2.76013 17.2674L2.86837 17.1665L3.00998 16.961C2.70393 17.0303 2.36973 17.0143 2.06125 16.9692ZM1.49695 17.1398C1.21281 17.3019 0.919736 17.4277 0.591445 17.4552C1.43533 18.5834 2.68593 19.0019 3.86022 18.1152C4.07276 17.9422 4.30441 17.7322 4.44625 17.4926C4.13482 17.4099 3.82845 17.3015 3.54565 17.1423C3.07802 18.1587 2.12543 18.2724 1.56955 17.239C1.55408 17.2102 1.52902 17.1421 1.49695 17.1398Z" fill="#285471"/>
<g clip-path="url(#clip0_156_3202)">
<mask id="mask0_156_3202" style="mask-type:luminance" maskUnits="userSpaceOnUse" x="14" y="9" width="14" height="15">
<path d="M28 9.3916H14.4828V24.0003H28V9.3916Z" fill="white"/>
</mask>
<g mask="url(#mask0_156_3202)">
<path d="M21.2414 18.8873L17.8621 15.2351M21.2414 18.8873V9.3916M21.2414 18.8873L24.6207 15.2351" stroke="#285471" stroke-width="2"/>
<path d="M27.3241 19.6172V22.2694C27.3241 22.8216 26.8764 23.2694 26.3241 23.2694H16.1586C15.6063 23.2694 15.1586 22.8216 15.1586 22.2694V19.6172" stroke="#285471" stroke-width="2"/>
</g>
</g>
<defs>
<clipPath id="clip0_156_3202">
<rect width="13.5172" height="14.6087" fill="white" transform="translate(14.4828 9.3916)"/>
</clipPath>
</defs>
</svg>
