<svg width="24" height="18" viewBox="0 0 24 18" fill="none" xmlns="http://www.w3.org/2000/svg">
<g clip-path="url(#clip0_694_21)">
<path d="M6.71845 4.93729C6.16691 4.93528 5.77655 4.75598 5.33557 4.41284C5.08823 4.22042 4.64285 3.8584 4.74052 3.48601C4.82702 3.15634 5.18102 3.13355 5.43902 3.02592C5.56896 2.97176 5.68158 2.89599 5.80259 2.82493C5.58353 2.48639 5.24931 1.85979 5.38662 1.47895C5.45741 1.28255 5.39785 1.08314 5.43021 0.87933C5.51939 0.317627 6.10415 0.0196541 6.61652 0.000161757C7.21966 -0.0084981 7.89968 0.330562 7.90538 1.01544L7.90673 1.23852C7.90703 1.29002 7.905 1.34108 7.92195 1.39038L7.97415 1.55683C8.04143 1.81432 7.85145 2.24737 7.7175 2.48239L7.52483 2.78873C7.71278 2.98466 7.9701 3.04145 8.21198 3.13605C8.71313 3.33198 8.6862 3.71398 8.35943 4.07518C7.92525 4.55507 7.37294 4.91575 6.71845 4.93729ZM6.59451 0.469337C6.06659 0.49769 5.82788 0.745166 5.85974 1.27942C5.8683 1.42381 5.87141 1.48618 5.79933 1.61479C5.73908 1.72237 5.77031 1.74781 5.81178 1.8631C5.9631 2.28322 6.22414 2.89187 6.76547 2.79594C7.15158 2.73335 7.34351 2.3216 7.47335 1.98642L7.578 1.67794C7.41573 1.44323 7.49282 1.35866 7.48404 1.09217C7.46771 0.596816 6.99941 0.4557 6.59451 0.469337ZM7.03732 3.17376L6.88798 3.19265C6.74075 3.21941 6.41621 3.20867 6.276 3.18325C6.28009 3.23317 6.36044 3.32325 6.39393 3.3617C6.5757 3.53206 6.80351 3.51509 6.97104 3.32792C6.98567 3.3116 7.09913 3.17336 7.03732 3.17376ZM7.47317 3.32254C7.24489 3.78139 6.80865 4.10096 6.31004 3.83607C6.09975 3.72439 5.98107 3.54533 5.86741 3.34086L5.17291 3.60221C5.29415 3.7978 5.48655 3.96096 5.66707 4.0976C6.45194 4.68308 7.17383 4.56108 7.86953 3.92749C7.95705 3.84784 8.05013 3.75914 8.11853 3.66171L8.15295 3.61005C8.06633 3.55501 7.95143 3.52523 7.85595 3.48626L7.47317 3.32254Z" fill="#285471"/>
<path d="M6.83992 14.1379C6.20158 14.1222 5.57621 13.7185 5.18011 13.2174C5.05077 13.0537 4.9079 12.8692 4.99696 12.6472C5.17259 12.2093 5.79936 12.4388 6.02899 12.0031C6.10288 11.8629 5.94004 11.7472 5.85233 11.5979C5.72636 11.3835 5.60961 11.0623 5.75263 10.8326C5.83935 10.6933 5.84389 10.765 5.84785 10.5902C5.85842 10.1271 6.05969 9.84517 6.48238 9.66352C6.53938 9.639 6.59872 9.62955 6.65492 9.6057L6.65244 7.25203L3.21338 7.25325C3.19399 7.28747 3.19037 7.32607 3.17614 7.3626C3.11642 7.51567 3.02912 7.65795 2.93678 7.79167C2.84919 7.91857 2.76007 8.01787 2.83182 8.18167C2.9372 8.42235 3.65485 8.35477 3.46945 8.7513C3.35756 8.9907 2.72906 9.26925 2.48392 9.35325C1.92009 9.54652 1.50251 9.38047 0.993247 9.11317C0.835132 9.03015 0.574959 8.90542 0.520431 8.71305C0.418821 8.35447 1.0422 8.49247 1.21822 8.1552C1.2997 7.99912 1.13488 7.8393 1.05188 7.69545L0.899737 7.41271C0.767332 7.16884 0.664801 6.92658 0.832507 6.65332C0.87126 6.59015 0.85854 6.55871 0.860085 6.4834C0.86376 6.30426 0.886665 6.13368 0.96984 5.97393C1.44682 5.05815 3.1522 5.27598 3.21804 6.39068C3.2241 6.49348 3.20741 6.62096 3.23613 6.71911L3.25308 6.78363C3.347 6.80286 3.44936 6.79604 3.54496 6.79629L6.34405 6.7969C6.44347 6.79703 6.5492 6.79002 6.64751 6.80283L6.65393 5.9443C6.65318 5.69996 6.56911 5.3904 6.85007 5.2915L6.87526 5.28961C7.02096 5.2861 7.09255 5.43502 7.09231 5.57121L7.09521 6.79414L10.099 6.79585C10.2373 6.79575 10.3873 6.80733 10.5239 6.78672C10.5536 6.60529 10.5323 6.41976 10.5649 6.24126C10.7504 5.22543 12.396 5.11574 12.8089 6.01899C12.9332 6.2911 12.8455 6.53317 12.9468 6.69978C13.137 7.01263 12.8115 7.54117 12.6461 7.7943L12.5495 7.9389C12.5036 8.00992 12.5059 8.0616 12.5312 8.14417C12.6188 8.4315 13.0353 8.31877 13.1962 8.52967C13.4996 8.92725 12.1842 9.4041 11.9056 9.4389C11.5049 9.48892 11.1016 9.3039 10.7527 9.12315C10.5776 9.03255 10.2109 8.86387 10.2625 8.60212C10.3065 8.37915 10.6517 8.41792 10.7947 8.31592C11.1295 8.07705 10.7966 7.80022 10.6635 7.55272L10.5707 7.36666C10.5527 7.32775 10.5452 7.28741 10.5179 7.25421L7.09223 7.24943L7.09292 9.61522C7.12799 9.62715 7.16615 9.62715 7.20212 9.636C7.48102 9.7044 7.7712 9.98775 7.86495 10.2613C7.9182 10.4166 7.8588 10.6603 7.94678 10.7629C8.14838 10.9978 8.08755 11.2572 7.94602 11.5232C7.8618 11.6816 7.71128 11.8249 7.72673 12.019C7.74 12.185 8.08837 12.2905 8.21722 12.3211C8.48032 12.3838 8.7549 12.3973 8.76765 12.7932C8.7747 13.0114 8.60198 13.1924 8.4681 13.3393C8.00325 13.8496 7.51087 14.1195 6.83992 14.1379ZM1.9978 5.85552C1.73137 5.8743 1.37494 6.0103 1.30493 6.31422L1.302 6.32669C1.27135 6.46649 1.30618 6.61053 1.28917 6.74977C1.26926 6.91265 1.14041 6.92484 1.21727 7.07892L1.47186 7.53682C1.62692 7.78612 1.77303 7.94947 2.06713 7.94272C2.47568 7.8777 2.71534 7.34072 2.85982 6.98855C2.74357 6.75576 2.79153 6.69255 2.78419 6.44017C2.77294 6.05483 2.33002 5.83377 1.9978 5.85552ZM11.623 5.86244C11.3321 5.90703 11.0219 6.07094 10.9829 6.40135L10.9813 6.41463C10.9509 6.67607 11.0269 6.66595 10.9045 6.93962C10.8439 7.07513 11.1706 7.55955 11.2515 7.66537C11.4054 7.86645 11.5639 7.96717 11.8087 7.94107C12.1686 7.87282 12.3665 7.42671 12.5077 7.11739C12.586 6.94591 12.5481 7.00466 12.4904 6.83697L12.486 6.82467C12.4414 6.69149 12.4855 6.52038 12.4651 6.37966C12.4092 5.99298 11.948 5.8338 11.623 5.86244ZM2.38903 8.31045C2.15732 8.3676 1.87178 8.39722 1.64395 8.31367L1.64064 8.32365C1.58466 8.48805 1.41865 8.63722 1.26739 8.70742L1.2222 8.72482L1.65319 8.9151C2.13039 9.04342 2.36619 8.89657 2.80708 8.7225C2.56796 8.62995 2.51472 8.51032 2.40364 8.30865L2.38903 8.31045ZM12.1068 8.31045L12.0964 8.31367C11.9065 8.37112 11.6582 8.38117 11.4607 8.35492C11.4308 8.35095 11.3645 8.3043 11.347 8.33932C11.2577 8.51782 11.1286 8.63527 10.9537 8.72145C11.1 8.7918 11.2429 8.8635 11.3972 8.913C11.7193 8.99955 11.9775 8.97022 12.2844 8.8479L12.5239 8.74057C12.3712 8.66152 12.1883 8.51557 12.1315 8.34097L12.1068 8.31045ZM6.8432 10.0524C6.58753 10.0746 6.3502 10.2195 6.28383 10.4885L6.28012 10.5032C6.26144 10.5793 6.26673 10.6656 6.27186 10.7433C6.2892 11.0057 6.12968 11.05 6.12282 11.1356C6.1181 11.1947 6.36796 11.6137 6.41398 11.692C6.53398 11.8961 6.69422 12.0639 6.93727 12.0466C7.28299 11.9908 7.5045 11.4082 7.64498 11.1224C7.42673 10.9174 7.5039 10.8739 7.50135 10.6076C7.49824 10.2906 7.16308 10.0434 6.87872 10.0505L6.8432 10.0524ZM7.21591 12.4166C7.00109 12.4545 6.76639 12.4639 6.55013 12.4269C6.55625 12.4474 6.57257 12.4666 6.58445 12.4842L6.6733 12.6086C6.71669 12.6568 6.76525 12.7204 6.8341 12.7248C6.9989 12.7352 7.18388 12.5738 7.23922 12.4166H7.21591ZM6.11019 12.5681C5.88292 12.6856 5.67392 12.7757 5.42377 12.826C5.79754 13.2499 6.22112 13.6363 6.80721 13.6623C7.1845 13.6791 7.5729 13.5351 7.86757 13.2907C8.00962 13.1729 8.20597 12.994 8.30317 12.83C8.06422 12.7748 7.85505 12.6874 7.63965 12.567C7.51283 12.826 7.37238 13.0459 7.09118 13.1401C6.41783 13.3658 6.18454 12.5681 6.11019 12.5681Z" fill="#285471"/>
<path d="M1.99659 14.4038C1.29821 14.4899 0.460632 13.9317 0.102188 13.346C0.0115392 13.198 -0.0440125 13.044 0.0451492 12.8774C0.240515 12.5124 0.787395 12.7047 1.01929 12.3576C1.06562 12.2883 1.08434 12.2721 1.04865 12.2006C0.988935 12.0809 0.894015 11.9823 0.83025 11.8643C0.727054 11.6732 0.611452 11.2628 0.822547 11.0963C0.900097 11.0351 0.875063 10.9774 0.876285 10.8875C0.883568 10.3523 1.2877 10.0406 1.78474 9.97831C1.78771 9.97763 1.79078 9.97771 1.79381 9.97748C2.3156 9.93766 2.8682 10.2568 2.89438 10.8355C2.90642 11.102 2.8556 10.9832 3.00378 11.1638C3.14465 11.3354 3.03146 11.7344 2.92577 11.9151C2.82282 12.0911 2.62616 12.2527 2.83109 12.4375C3.0887 12.6698 3.4623 12.5657 3.69133 12.7679C3.95455 13.0004 3.77908 13.3349 3.58865 13.547C3.16504 14.0186 2.63837 14.3753 1.99659 14.4038ZM1.8108 10.418C1.58216 10.4479 1.37315 10.5886 1.30886 10.821L1.30519 10.8339C1.27251 10.955 1.31362 11.0801 1.29517 11.2001C1.28155 11.2887 1.13518 11.4236 1.13903 11.475C1.14512 11.5564 1.24308 11.6986 1.28319 11.7686C1.4371 12.0373 1.61881 12.4187 1.98317 12.3503C2.18807 12.2895 2.28946 12.1235 2.39543 11.9468L2.65941 11.4621C2.43065 11.2382 2.51123 11.205 2.49738 10.9298C2.4819 10.6227 2.12735 10.4066 1.85315 10.4156C1.84322 10.416 1.81925 10.4147 1.8108 10.418ZM1.54594 12.7269C1.6789 12.9225 1.83397 13.132 2.0701 12.9506L2.15128 12.8749L2.25748 12.7208C2.02795 12.7727 1.7773 12.7607 1.54594 12.7269ZM1.12271 12.8549C0.909608 12.9764 0.689802 13.0708 0.443584 13.0914C1.0765 13.9376 2.01445 14.2514 2.89516 13.5864C3.05457 13.4567 3.22831 13.2992 3.33469 13.1195C3.10111 13.0574 2.87134 12.9761 2.65924 12.8567C2.30852 13.619 1.59407 13.7043 1.17716 12.9293C1.16556 12.9077 1.14677 12.8566 1.12271 12.8549Z" fill="#285471"/>
<mask id="mask0_694_21" style="mask-type:luminance" maskUnits="userSpaceOnUse" x="10" y="7" width="11" height="12">
<path d="M21 7.0437H10.8621V18.0002H21V7.0437Z" fill="white"/>
</mask>
<g mask="url(#mask0_694_21)">
<mask id="mask1_694_21" style="mask-type:luminance" maskUnits="userSpaceOnUse" x="10" y="7" width="11" height="12">
<path d="M21 7.0437H10.8621V18.0002H21V7.0437Z" fill="white"/>
</mask>
<g mask="url(#mask1_694_21)">
<path d="M15.9311 14.1655L13.3966 11.4263M15.9311 14.1655V7.0437M15.9311 14.1655L18.4655 11.4263" stroke="#285471" stroke-width="2"/>
<path d="M20.4931 14.7129V16.702C20.4931 17.1162 20.1573 17.452 19.7431 17.452H12.1189C11.7047 17.452 11.3689 17.1162 11.3689 16.702V14.7129" stroke="#285471" stroke-width="2"/>
</g>
</g>
</g>
<defs>
<clipPath id="clip0_694_21">
<rect width="24" height="18" fill="white"/>
</clipPath>
</defs>
</svg>
