<svg width="24" height="24" viewBox="0 0 24 24" fill="none" xmlns="http://www.w3.org/2000/svg">
<path d="M22.875 10.875C22.2536 10.875 21.75 11.3786 21.75 12C21.75 17.3846 17.3846 21.75 12 21.75C8.712 21.75 5.81025 20.1195 4.04738 17.625H6C6.62137 17.625 7.125 17.1214 7.125 16.5C7.125 15.8786 6.62137 15.375 6 15.375H1.125C0.503625 15.375 0 15.8786 0 16.5V21C0 21.6214 0.503625 22.125 1.125 22.125C1.74637 22.125 2.25 21.6214 2.25 21V18.9548C4.42088 22.005 7.97025 24 12 24C18.6274 24 24 18.6274 24 12C24 11.3786 23.4964 10.875 22.875 10.875ZM22.875 1.875C22.2536 1.875 21.75 2.37863 21.75 3V5.0295C19.5765 1.98712 16.0245 0 12 0C5.37262 0 0 5.37262 0 12C0 12.6214 0.503625 13.125 1.125 13.125C1.74637 13.125 2.25 12.6214 2.25 12C2.25 6.61537 6.61537 2.25 12 2.25C15.285 2.25 18.1759 3.88313 19.9376 6.375H18C17.3786 6.375 16.875 6.87863 16.875 7.5C16.875 8.12137 17.3786 8.625 18 8.625H22.875C23.4964 8.625 24 8.12137 24 7.5V3C24 2.37863 23.4964 1.875 22.875 1.875Z" fill="#285471"/>
</svg>
