<svg width="24" height="24" viewBox="0 0 24 24" fill="none" xmlns="http://www.w3.org/2000/svg">
<path d="M7.84658 6.53688L7.29505 8.21698L7.29824 8.43058L7.19303 8.24249L5.87956 7.0661L4.15801 8.06077L4.51826 9.7855L4.63303 9.9736L4.44494 9.85883L2.71702 9.49858L1.72235 11.2233L2.89874 12.5368L3.08683 12.642L2.87323 12.6387L1.19632 13.1871V15.1796L2.87323 15.7279L3.08683 15.7247L2.89874 15.8298L1.72235 17.1433L2.71702 18.8681L4.44494 18.5046L4.63303 18.393L4.51826 18.5779L4.15801 20.3059L5.87956 21.3005L7.19303 20.1241L7.29824 19.936L7.29505 20.1496L7.84659 21.8266H9.83593L10.3875 20.1496L10.3843 19.936L10.4895 20.1241L11.803 21.3005L13.5245 20.3059L13.1642 18.5779L13.0495 18.393L13.2376 18.5046L14.9655 18.8681L15.9602 17.1433L14.7838 15.8298L14.5957 15.7247L14.8093 15.7279L16.4862 15.1796V13.1871L14.8093 12.6387L14.5957 12.642L14.7838 12.5368L15.9602 11.2233L14.9655 9.49858L13.2376 9.85883L13.0495 9.9736L13.1643 9.7855L13.5245 8.06077L11.8029 7.0661L10.4895 8.24249L10.3843 8.43058L10.3875 8.21698L9.83592 6.53688H7.84658ZM8.84125 11.2042C9.63149 11.2039 10.3895 11.5174 10.9485 12.0758C11.5075 12.6342 11.8217 13.3918 11.8221 14.1818C11.8217 14.9718 11.5075 15.7294 10.9485 16.2878C10.3895 16.8462 9.63149 17.1597 8.84125 17.1595C8.05101 17.1597 7.29302 16.8462 6.73401 16.2878C6.175 15.7294 5.86077 14.9718 5.86043 14.1818C5.86077 13.3918 6.175 12.6342 6.73401 12.0758C7.29302 11.5174 8.05101 11.2039 8.84125 11.2042ZM12.4119 11.9502L12.5203 12.0586L12.584 12.3009C12.5321 12.1814 12.4747 12.0644 12.4119 11.9502ZM12.906 13.4932L13.0909 14.1818L12.5203 16.3082L10.9645 17.864L8.84125 18.4347L6.71801 17.864L6.05809 17.2041C6.81081 17.8198 7.75503 18.1567 8.72967 18.1573C9.2826 18.1575 9.83015 18.0494 10.3411 17.8391C10.852 17.6289 11.3162 17.3206 11.7073 16.9319C12.0984 16.5432 12.4086 16.0816 12.6203 15.5737C12.832 15.0657 12.941 14.5213 12.9411 13.9714C12.9386 13.8115 12.9269 13.6518 12.906 13.4932ZM5.10486 16.0883C5.21502 16.2762 5.33973 16.4552 5.47786 16.6239L5.16225 16.3082L5.10486 16.0883Z" fill="#285471" stroke="#285471" stroke-width="0.377953" stroke-linecap="round" stroke-linejoin="round"/>
<path d="M17.6077 0.893818L17.2815 1.88755L17.2834 2.01389L17.2212 1.90264L16.4443 1.20683L15.4261 1.79516L15.6392 2.81529L15.7071 2.92655L15.5958 2.85866L14.5737 2.64558L13.9854 3.66572L14.6812 4.44261L14.7925 4.50484L14.6662 4.50295L13.6743 4.82728V6.00581L14.6662 6.33014L14.7925 6.32826L14.6812 6.39048L13.9854 7.16737L14.5737 8.18751L15.5958 7.97254L15.707 7.90655L15.6391 8.01592L15.426 9.03794L16.4443 9.62627L17.2212 8.93046L17.2834 8.8192L17.2814 8.94553L17.6076 9.93738H18.7843L19.1105 8.94553L19.1085 8.8192L19.1707 8.93046L19.9476 9.62627L20.9659 9.03793L20.7528 8.01591L20.6849 7.90654L20.7962 7.97253L21.8182 8.1875L22.4066 7.16736L21.7108 6.39047L21.5996 6.32824L21.7259 6.33013L22.7178 6.0058V4.82728L21.7259 4.50295L21.5995 4.50484L21.7108 4.44261L22.4066 3.66572L21.8183 2.64559L20.7963 2.85867L20.685 2.92655L20.7529 2.8153L20.966 1.79516L19.9477 1.20684L19.1708 1.90264L19.1086 2.0139L19.1106 1.88756L18.7844 0.89382L17.6077 0.893818ZM18.196 3.65441C18.6634 3.65423 19.1118 3.83968 19.4424 4.16997C19.773 4.50026 19.9589 4.94832 19.9591 5.4156C19.9589 5.88289 19.773 6.33095 19.4424 6.66124C19.1118 6.99152 18.6634 7.17698 18.196 7.1768C17.7286 7.17698 17.2803 6.99152 16.9496 6.66124C16.619 6.33095 16.4331 5.88289 16.4329 5.4156C16.4331 4.94832 16.619 4.50026 16.9496 4.16997C17.2803 3.83968 17.7286 3.65423 18.196 3.65441ZM20.3079 4.09565L20.3721 4.15976L20.4098 4.30307C20.3791 4.23239 20.3451 4.16318 20.3079 4.09565ZM20.6002 5.0083L20.7096 5.4156L20.3721 6.67333L19.4519 7.59353L18.196 7.93106L16.9402 7.59353L16.5498 7.2032C16.9951 7.56737 17.5535 7.76664 18.13 7.76701C18.4571 7.76713 18.7809 7.70318 19.0831 7.57881C19.3853 7.45445 19.6599 7.2721 19.8912 7.04219C20.1225 6.81228 20.306 6.5393 20.4312 6.23886C20.5564 5.93841 20.6209 5.61638 20.621 5.29115C20.6195 5.19655 20.6125 5.10212 20.6002 5.0083ZM15.986 6.54322C16.0512 6.65436 16.125 6.76027 16.2067 6.86001L16.02 6.67333L15.986 6.54322Z" fill="#285471" stroke="#285471" stroke-width="0.188976" stroke-linecap="round" stroke-linejoin="round"/>
</svg>
