<svg width="24" height="24" viewBox="0 0 24 24" fill="none" xmlns="http://www.w3.org/2000/svg">
<g id="share">
<g id="share_2">
<path id="Vector" d="M9.36145 15.4982C9.36145 15.3828 9.40533 15.3269 9.49309 15.3303C16.8304 12.5954 19.7864 18.6527 21.5655 22.6453C21.8355 23.2527 22.628 23.026 22.7476 22.3736C23.7423 16.9999 21.7437 10.3126 17.6908 7.90704C14.3705 5.58623 10.8627 6.54036 9.45852 6.5092C9.4323 6.50875 9.40727 6.49469 9.38885 6.47008C9.37044 6.44546 9.36011 6.41226 9.36012 6.37768C9.36278 4.96777 9.36278 3.55383 9.36012 2.13584C9.35879 0.98496 8.71122 0.628445 8.0836 1.44012C5.84349 4.33377 3.60693 7.23089 1.37391 10.1315C1.04547 10.5589 0.820745 11.0747 1.19306 11.561C3.5236 14.6127 5.85545 17.6633 8.18865 20.7127C8.50246 21.1211 8.98514 21.1142 9.23513 20.6486C9.31757 20.4963 9.35923 20.2402 9.36012 19.8802C9.36189 18.3907 9.36234 16.93 9.36145 15.4982Z" fill="#285471"/>
</g>
</g>
</svg>
