<svg width="24" height="24" viewBox="0 0 24 24" fill="none" xmlns="http://www.w3.org/2000/svg">
<g id="share">
<g id="share_2">
<path id="Vector" d="M14.6385 15.4982C14.6385 15.3828 14.5947 15.3269 14.5069 15.3303C7.16957 12.5954 4.21363 18.6527 2.43448 22.6453C2.16455 23.2527 1.37204 23.026 1.25237 22.3736C0.257744 16.9999 2.2563 10.3126 6.30925 7.90704C9.62953 5.58623 13.1373 6.54036 14.5415 6.5092C14.5677 6.50875 14.5927 6.49469 14.6111 6.47008C14.6296 6.44546 14.6399 6.41226 14.6399 6.37768C14.6372 4.96777 14.6372 3.55383 14.6399 2.13584C14.6412 0.98496 15.2888 0.628445 15.9164 1.44012C18.1565 4.33377 20.3931 7.23089 22.6261 10.1315C22.9545 10.5589 23.1793 11.0747 22.8069 11.561C20.4764 14.6127 18.1445 17.6633 15.8114 20.7127C15.4975 21.1211 15.0149 21.1142 14.7649 20.6486C14.6824 20.4963 14.6408 20.2402 14.6399 19.8802C14.6381 18.3907 14.6377 16.93 14.6385 15.4982Z" fill="#285471"/>
</g>
</g>
</svg>
