<?xml version="1.0" encoding="utf-8" ?>
<svg xmlns="http://www.w3.org/2000/svg" xmlns:xlink="http://www.w3.org/1999/xlink" width="512" height="512">
	<path fill="#F3B55C" d="M299.8 505.811C285.22 508.928 269.843 509.752 254.969 509.746L234.594 508.705C97.9029 496.86 -7.07259 374.934 2.6829 238.427L7.15026 206.462C19.614 142.306 61.2529 81.4646 115.177 45.2105C150.203 21.662 186.813 8.77457 228.279 3.81739C232.444 3.31944 236.703 2.46621 240.875 2.20477C274.992 0.0666722 308.291 5.56729 340.5 16.9886C434.505 50.3228 500.332 137.377 508.236 236.181L509.125 264.975C509.139 267.641 509.407 270.563 508.872 273.182L507.984 271.933C506.423 270.085 504.032 268.53 502.307 266.694L398.542 162.205C397.254 160.972 396.63 160.146 394.854 159.988C388.542 150.701 383.354 149.764 373.129 149.725L134.84 149.707C131.718 149.745 128.718 150.157 125.942 151.678L125.582 151.869C121.6 154.023 118.384 157.671 116.988 162L116.725 163.25C115.693 168.913 116.235 175.264 116.233 181.022L116.273 310.63C116.505 318.142 119.121 323.659 124.757 328.822L124.55 329.372C126.863 332.968 130.031 335.677 133.179 338.512L166.098 371.326C168.889 374.273 171.776 377.353 174.194 380.625C179.215 387.42 177.182 385.484 183.835 390.861C187.028 393.441 189.933 396.303 192.821 399.211L292.973 499.34C295.03 501.39 297.355 504.322 299.8 505.811Z"/>
	<path fill="#D6924C" d="M252.382 174.823C292.223 171.939 300.183 230.105 260.489 237.465L259.769 237.59C223.373 242.568 208.684 183.512 252.382 174.823Z"/>
	<path fill="#D6924C" d="M242.653 240.117L260.876 240.266C264.623 240.26 268.564 240.016 272.289 240.447C291.599 242.68 308.159 263.654 308.232 282.508C308.271 292.507 298.625 290.727 291.758 290.735L269.464 290.733L215.066 290.752C213.136 290.752 210.148 291.128 208.367 290.456L208 290.29C205.557 289.225 204.343 287.148 204.123 284.508C202.334 262.999 221.162 241.53 242.653 240.117Z"/>
	<path fill="#D6924C" d="M394.854 159.988C396.63 160.146 397.254 160.972 398.542 162.205L502.307 266.694C504.032 268.53 506.423 270.085 507.984 271.933L508.848 273.182C507.478 283.969 507.084 294.784 504.881 305.479C490.518 375.221 445.869 439.057 383.908 474.659C357.711 489.711 329.337 499.653 299.8 505.811C297.355 504.322 295.03 501.39 292.973 499.34L192.821 399.211C189.933 396.303 187.028 393.441 183.835 390.861C177.182 385.484 179.215 387.42 174.194 380.625C171.776 377.353 168.889 374.273 166.098 371.326L133.179 338.512C130.031 335.677 126.863 332.968 124.55 329.372L124.757 328.822C130.907 333.362 143.522 331.867 150.692 331.721L165.798 331.637C167.505 331.629 170.891 331.204 172.43 331.873L172.875 332.093C174.512 332.879 175.587 334.021 176.416 335.613L176.606 335.988C177.356 337.416 177.227 339.023 177.233 340.591L177.231 371.314C177.232 373.422 176.588 382.537 178.458 383.813C182.954 386.88 190.244 379.145 192.965 376.31L224.98 343.839C238.384 330.532 233.525 332.127 251.356 332.1L367.633 332.089C379.506 332.091 392.248 332.092 395.554 316.859C395.889 315.318 395.75 313.58 395.752 312.01L395.74 163.278C395.707 162.021 395.56 161.074 394.854 159.988Z"/>
</svg>
