<svg width="121" height="121" viewBox="0 0 121 121" fill="none" xmlns="http://www.w3.org/2000/svg">
<g clip-path="url(#clip0_203_820)">
<path d="M2.74213 76.7171L14.2769 76.71L17.219 83.114C16.4744 83.2019 15.5687 82.7772 14.7831 82.7524L4.92015 82.7403L2.74213 76.7171Z" fill="#177733"/>
<path d="M106.908 76.2612C107.982 76.3444 109.079 76.2895 110.155 76.2858L115.467 76.2801C116.393 76.2801 117.423 76.1778 118.329 76.3184L116.115 82.6543L108.448 82.7288C108.015 82.7257 104.091 82.7883 104.07 82.7808L106.908 76.2612Z" fill="#177733"/>
<path d="M75.8742 106.491L83.0264 103.546L83.0194 115.981L75.9321 118.36C76.2379 115.381 76.185 109.414 75.8742 106.491Z" fill="#177733"/>
<path d="M75.9747 2.52051L82.883 4.89052L83.1889 17.5695L75.8686 14.3217L75.9747 2.52051Z" fill="#177733"/>
<path d="M37.6298 5.081L44.9435 2.58691L44.9085 13.1035C44.9135 13.5297 44.9678 13.9709 44.9177 14.3937L37.9446 17.4229C37.8662 17.0667 37.8834 16.7034 37.8562 16.3448L37.6298 5.081Z" fill="#177733"/>
<path d="M37.7373 103.346L45.1253 106.519C44.9495 106.889 44.9739 107.281 44.9594 107.668L44.8051 118.326L37.7302 115.834L37.7373 103.346Z" fill="#177733"/>
<path d="M44.9252 2.58732C48.7868 1.53263 54.6243 0.618205 58.7291 0.488281C58.5462 0.834986 58.6048 1.33106 58.6034 1.69883L58.7208 11.7535C57.3565 11.7647 56.0335 11.9558 54.6212 12.1551L48.9957 13.2237C47.6229 13.5457 46.2403 13.8934 44.9204 14.3941C44.9677 13.9713 44.9133 13.5301 44.9084 13.1039L44.9252 2.58732Z" fill="#269A48"/>
<path d="M45.075 106.519C49.5549 108.015 53.8969 108.836 58.5741 108.829L58.6885 120.543C57.4159 120.521 56.1309 120.33 54.8281 120.188L49.2448 119.404L44.8063 118.325L44.9595 107.667C44.9739 107.281 44.9496 106.889 45.075 106.519Z" fill="#269A48"/>
<path d="M62.2131 0.477539L64.4318 0.503415C68.0471 0.705393 72.5165 1.64259 75.9858 2.52108L75.9029 14.3223C72.1186 13.0571 68.3465 12.398 64.419 11.987L62.0751 11.8167L58.7868 11.7614L58.6034 1.69905C58.6049 1.33127 58.5462 0.835205 58.6765 0.497336L62.2131 0.477539Z" fill="#269A48"/>
<path d="M58.6765 0.497336L62.2131 0.477539L62.1356 11.8397L58.7868 11.7614L58.6034 1.69905C58.6049 1.33127 58.5462 0.835205 58.6765 0.497336Z" fill="#177733"/>
<path d="M62.3833 108.827L65.0493 108.78C68.4486 108.567 72.6777 107.764 75.8712 106.49C76.1851 109.414 76.238 115.381 75.9159 118.36C72.4135 119.358 68.8842 119.828 65.2561 120.2C64.1853 120.31 63.161 120.528 62.077 120.542L58.7294 120.548L58.5881 108.83L62.3833 108.827Z" fill="#269A48"/>
<path d="M58.5881 108.83L62.3833 108.827L62.1507 118.796C62.1493 119.375 62.1788 119.97 62.077 120.542L58.7294 120.548L58.5881 108.83Z" fill="#177733"/>
<path d="M0.474178 57.2023C0.993041 57.0021 2.48777 57.3526 3.10998 57.3646L9.48795 57.357C10.1387 57.3497 10.9673 57.1909 11.5948 57.3103C11.4829 58.0885 11.513 58.8934 11.5138 59.6877L11.5331 63.5283C11.753 67.6217 12.7059 72.859 14.2768 76.7317L2.74204 76.7062C1.90511 73.9688 1.24998 71.1222 0.885932 68.2693L0.649323 65.4924C0.559908 64.3287 0.473896 63.2045 0.473816 62.0345L0.474178 57.2023Z" fill="#269A48"/>
<path d="M0.474152 57.2023C0.993015 57.0021 2.48775 57.3526 3.10995 57.3646L9.48793 57.357C10.1387 57.3497 10.9673 57.1909 11.5948 57.3103C11.4828 58.0885 11.513 58.8934 11.5137 59.6877L11.446 61.8144C9.63034 61.974 7.78795 61.8433 5.96723 61.8967L1.92416 62.0025C1.45221 62.0033 0.939527 62.0453 0.471619 62.0009L0.474152 57.2023Z" fill="#177733"/>
<path d="M106.908 76.2626C108.349 72.0409 109.246 67.5929 109.484 63.1384L109.539 58.6444C109.541 57.7759 109.432 56.6637 110.38 56.192C110.799 55.9835 119.258 55.9845 119.646 56.1563L119.812 56.248C121.588 57.259 119.548 70.9507 119.188 72.7392L118.329 76.36C117.423 76.1773 116.393 76.2796 115.467 76.2796L110.156 76.2853C109.079 76.2891 107.982 76.3439 106.908 76.2626Z" fill="#269A48"/>
<path d="M4.9201 82.777L14.783 82.752C15.5687 82.7768 16.4744 83.2014 17.219 83.1135L19.6295 87.1117C22.946 92.0427 27.4368 96.6977 32.3214 100.058C34.0766 101.266 35.9332 102.255 37.757 103.345L37.7324 115.834C22.5295 109.476 11.3675 98.0332 4.9201 82.777Z" fill="#269A48"/>
<path d="M116.115 82.6963C114.325 87.0272 112.258 90.8333 109.526 94.6899L106.811 98.4008C100.535 106.203 92.3527 112.065 83.1311 115.936L83.0231 115.981L83.0264 103.546C83.5877 103.16 84.2095 102.851 84.7932 102.5L88.5712 100.111C93.8744 96.4603 97.5157 92.8258 101.175 87.394L102.901 84.7103C103.267 84.1048 103.599 83.4544 104.002 82.8761L104.07 82.7802C104.091 82.7878 108.015 82.7251 108.448 82.7282L116.115 82.6963Z" fill="#269A48"/>
<path d="M82.882 4.89062L87.6362 7.0012C103.335 15.3465 114.993 29.9319 118.962 47.3403C119.432 49.4008 120.026 50.7004 117.361 50.6987L111.571 50.6891C110.912 50.6872 109.857 50.8157 109.259 50.5605C108.384 50.1866 107.605 46.853 107.318 45.9968L105.673 41.7426C102.022 33.3272 96.2154 26.0819 88.656 20.8376C86.8982 19.6181 85.0491 18.6215 83.1928 17.5696L82.882 4.89062Z" fill="#269A48"/>
<path d="M0.479187 57.2022C0.551752 55.6029 0.851718 54.0607 1.10984 52.4841C2.58074 43.4996 5.31057 35.1995 10.4763 27.6077L15.1045 21.5723C19.277 16.8489 24.2613 12.4344 29.6186 9.13727C32.1762 7.56326 34.9048 6.33241 37.6278 5.08105L37.8561 16.3448C37.8832 16.7035 37.866 17.0667 37.9147 17.4229C36.4095 18.2052 34.9159 18.9938 33.4741 19.9417C22.2448 27.3241 13.7668 39.7971 11.9938 53.2033L11.5911 57.2993C10.9672 57.1908 10.1386 57.3496 9.48783 57.357L3.10985 57.3645C2.48765 57.3525 0.992919 57.002 0.479187 57.2022Z" fill="#269A48"/>
<path d="M57.2167 26.139L62.0349 26.1274C62.5671 26.1309 63.3305 26.048 63.8381 26.1777C64.601 26.3724 66.3746 30.8707 66.8196 31.8338L67.8228 33.7946C68.1329 34.3466 68.7077 34.4003 69.2715 34.5848L73.3766 36.0855C73.5928 36.1772 74.0002 36.4287 74.2195 36.4577C74.6159 36.5102 80.2899 34.0195 81.5433 33.7114C82.8476 34.4527 85.6701 36.7775 86.5384 37.9187C86.9089 38.4056 86.475 39.2311 86.3184 39.7618L85.158 43.4871C84.7551 44.7377 84.125 45.9028 84.5809 47.197L86.3479 51.9677C86.7456 53.0943 86.4724 52.9636 87.5839 53.4157L92.0441 55.1997C93.0358 55.6138 94.4842 55.9236 94.5797 57.1769C94.6936 58.6714 94.5983 60.2383 94.6021 61.7404L94.6147 63.2068C94.6177 63.471 94.6459 63.7579 94.5939 64.0181C93.9964 64.8736 90.7911 65.8577 89.8101 66.2462L86.6069 67.5734C86.3004 69.1311 85.6763 70.7478 85.0316 72.1979L84.4852 73.4102C84.0347 74.322 84.1789 74.0495 84.4632 75.0409L86.4427 81.5837C86.8813 82.7681 86.5809 82.7433 85.624 83.5929L83.7492 85.1881C83.0603 85.7735 82.3249 86.5428 81.5304 86.9665L74.441 83.894C73.7708 84.067 73.1407 84.3572 72.5019 84.6198L69.7002 85.7572C68.685 86.1587 67.8318 86.1212 67.4386 87.2165L65.6649 91.3537C65.2296 92.2782 64.743 93.8524 63.7786 94.3416C63.4193 94.4248 63.0528 94.4356 62.6881 94.4439L58.0561 94.4605C57.029 94.4616 56.9248 94.7455 56.437 93.873C55.8249 92.778 53.3565 86.7344 53.0133 86.5049C52.7409 86.3227 52.1964 86.1987 51.8835 86.0829L47.7229 84.3352C46.7566 83.933 46.8189 83.8437 45.8434 84.213L39.3004 86.9686C37.8096 85.9657 35.3906 83.8278 34.3588 82.4857L36.7507 74.4234C36.9059 73.8151 36.8258 73.7021 36.5474 73.138L34.3125 68.0855C34.0565 67.4092 33.7961 67.3844 33.1363 67.0873L30.7976 66.0957C25.9091 64.1341 26.4068 64.771 26.4245 59.9159L26.4546 57.5219C26.4673 57.1814 26.4557 56.7453 26.5647 56.423C26.775 55.8005 33.1698 53.5417 34.1284 53.0785C34.4346 52.5196 34.5911 51.8808 34.795 51.2791L36.3472 47.2156C36.5167 46.8174 36.7273 46.5617 36.6037 46.1351L35.0836 41.0664C34.8875 40.4203 34.1749 38.8059 34.4198 38.1704C34.6707 37.5189 38.448 34.115 39.4717 33.6237L46.4604 36.4707C47.4455 36.1342 48.3917 35.6431 49.3566 35.2489L52.8562 33.8853C53.564 33.6055 53.5999 33.0593 53.8996 32.4L55.4097 29.154C55.8186 28.2437 56.2161 26.5783 57.2167 26.139ZM60.185 39.4329C58.4283 39.5565 56.7147 39.7685 55.015 40.2489C47.0347 42.504 40.9644 49.9419 40.099 58.1439C38.8233 70.2312 48.612 80.9151 60.8096 80.5022C72.867 80.1579 81.2238 70.8492 80.8124 58.8978C80.4487 48.3328 70.8601 39.1363 60.185 39.4329Z" fill="#177733"/>
<path d="M60.019 43.5668C63.6856 43.3685 67.3565 45.6184 67.7424 49.4835C67.7916 49.9779 67.7684 50.4988 67.7684 50.9967C67.7699 55.1329 65.6247 60.9454 61.0357 61.4306L60.7625 61.4722C56.5159 61.9505 53.5975 56.2552 53.2643 52.7214C52.7734 47.5177 54.4433 44.0082 60.019 43.5668Z" fill="#177733"/>
<path d="M59.7805 62.2358C66.2896 62.0209 70.8527 66.6029 71.5425 72.9547C71.6047 73.5266 71.7812 74.6917 71.3709 75.1589C69.6427 77.1263 63.7446 78.3028 61.3417 78.5164C57.8102 78.5332 55.3233 78.1501 52.0081 76.6222C49.9183 75.6592 49.223 75.5581 49.4222 73.203C49.9551 66.8971 53.6033 62.8883 59.7805 62.2358Z" fill="#177733"/>
</g>
<defs>
<clipPath id="clip0_203_820">
<rect width="121" height="121" fill="white"/>
</clipPath>
</defs>
</svg>
