<svg width="50" height="50" viewBox="0 0 50 50" fill="none" xmlns="http://www.w3.org/2000/svg">
<path d="M28.7149 8.48129C28.1982 8.25154 28.0921 7.80384 27.8416 7.33685C24.7886 1.64415 17.2414 0.0781783 12.0818 3.85329C9.51816 5.72909 7.90651 8.88554 8.01236 12.0714L8.04437 13.0638C8.06834 14.2664 7.76642 14.2197 6.81174 14.5301C3.43137 15.6291 2.16414 19.9749 4.12455 22.9354C5.3998 24.8613 7.59691 25.8039 9.85038 25.8081L17.9126 25.8117C18.1861 25.8123 18.4811 25.7922 18.7511 25.8285L18.7866 25.834C19.416 25.9255 19.5392 27.0308 18.8158 27.2778C18.6325 27.3404 18.4098 27.3189 18.2184 27.3196H10.8274C10.1415 27.3193 9.43126 27.3593 8.74975 27.277C5.69088 26.9072 3.02642 25.0166 2.01415 22.0287C0.747388 18.2896 2.80557 14.2348 6.5321 12.9848C5.93203 6.6876 10.7376 1.09111 16.9548 0.29679L18.0305 0.23329C22.7535 0.195828 27.0443 2.60229 29.2913 6.822C29.974 6.48402 30.6677 6.193 31.4049 5.99365C35.9651 4.7605 41.1024 6.81153 42.9239 11.306C43.1442 11.8496 43.2973 12.4187 43.4485 12.9846L44.5557 13.4523C46.148 14.2894 47.4827 15.7859 48.0121 17.5157C49.5263 22.464 45.8714 27.0123 40.8028 27.3081C40.1917 27.3437 39.5683 27.3197 38.956 27.3196L32.1305 27.3222C31.5941 27.3226 31.042 27.3532 30.5075 27.3267C29.9166 27.2974 29.5992 26.6814 29.9194 26.1953C30.2098 25.7546 30.738 25.8146 31.1953 25.8131L40.0531 25.8087C43.5876 25.8005 46.8529 23.4933 46.8326 19.696C46.8213 17.5891 45.615 15.5896 43.6536 14.7339L42.9997 14.485C42.4159 14.279 42.1917 14.152 42.0347 13.5493L41.8215 12.7097C40.4264 7.86755 34.6715 5.8648 30.3334 7.98914C29.7727 8.26368 29.3695 8.64718 28.7149 8.48129Z" fill="white"/>
<path d="M13.7303 46.1655C12.8583 47.1413 11.7358 48.4432 10.3955 48.7078C10.1507 48.7561 9.8375 48.7642 9.62196 48.8992C8.94141 49.3256 8.59241 50.3768 7.75171 49.3181C7.14808 48.5579 8.13275 48.0727 8.17148 47.6188C8.22991 46.9339 8.07412 46.1389 8.35864 45.4992C8.57352 45.0161 8.92454 44.5541 9.20223 44.1021L10.4774 42.1408L23.8204 24.2476C23.3902 23.8324 23.0769 23.2936 22.7441 22.8001L14.4208 10.1925C14.2443 9.92539 13.6109 8.77707 13.2154 8.82739C12.682 8.89528 12.8129 9.47493 12.9774 9.8084C13.5815 11.0327 14.3634 12.1812 15.0391 13.3677L21.1579 23.8669C21.369 24.2099 21.6955 24.6065 21.8158 24.9896C22.1253 25.9749 20.9924 26.3406 20.3639 25.4323C20.0868 25.032 19.8451 24.6014 19.5954 24.1835L13.0186 12.9322C12.4931 12.0321 11.5085 10.6534 11.3188 9.62478C11.1154 8.52103 11.8963 7.5205 12.9807 7.32998C14.3753 7.19477 14.9718 8.31255 15.6329 9.29318L21.6948 18.4179C22.7073 19.9584 23.6758 21.5461 24.7909 23.0153L28.5536 18.0317C27.3012 14.3469 29.9359 10.4227 33.7011 9.90605C34.2008 9.8375 34.7895 9.85518 35.2937 9.88984C36.3845 9.96484 37.2826 10.6428 36.3456 11.6763C36.041 12.0122 35.6728 12.3081 35.3401 12.6169L34.0407 13.8437C33.7157 14.1326 33.2788 14.4402 33.0407 14.8056C32.1784 16.1287 34.0826 17.7196 35.2898 16.9469C35.6053 16.745 35.8303 16.4291 36.0445 16.1289L37.6421 13.86C38.3303 12.932 39.1965 12.2477 39.5912 13.8256C40.5187 17.5326 37.6292 21.5426 33.8038 21.726C33.2203 21.7539 32.6667 21.6808 32.0945 21.5733L13.7303 46.1655ZM34.4834 11.3647C31.8581 11.5291 29.6141 13.5771 29.7858 16.3091C29.8189 16.8354 29.949 17.3161 30.0843 17.8228C30.2377 18.3972 30.255 18.3456 29.8864 18.8126L24.9293 25.2982L11.6642 43.1042L9.99697 45.6281C9.87364 45.8368 9.74665 46.0523 9.69326 46.2913C9.60304 46.6953 9.84424 47.1165 10.29 47.0844C11.0194 47.0317 12.5504 45.1812 13.0379 44.5877L14.7191 42.4441L21.1688 33.6301L30.0208 21.7535C30.4731 21.1539 31.1245 20.1141 31.9314 20.0038C32.308 19.9524 32.7119 20.1067 33.0889 20.134C35.9767 20.3429 37.9327 18.3837 38.24 15.532C37.5344 16.7237 36.8852 18.1197 35.4305 18.4998C33.7198 18.9468 31.8767 18.0799 31.4157 16.3133C31.2399 15.6397 31.3007 14.7145 31.6588 14.1088C32.0095 13.5158 33.8319 11.9117 34.3712 11.4869C34.4153 11.4521 34.4859 11.4223 34.4834 11.3647Z" fill="white"/>
<path d="M26.7854 37.3659L25.7722 35.706C25.3981 35.07 24.9032 34.2846 24.9003 33.5255C24.8965 32.5567 25.9105 32.007 26.4164 32.6115C26.5839 32.8116 26.5082 33.1189 26.4891 33.3574C26.4249 34.1604 27.27 35.2527 27.6665 35.9133L31.5416 42.4285C32.0503 43.2874 32.5133 44.2237 33.165 44.9835L35.4232 43.5679C34.4886 41.7678 33.3331 40.0789 32.2192 38.3848L27.5159 31.327C27.0345 30.7107 26.7642 29.9659 27.7011 29.667C28.1175 29.6479 28.3975 29.8537 28.6344 30.1744L35.9209 41.2986C36.7737 42.695 36.8353 43.2211 37.1272 44.7232L37.6352 46.9902C37.7679 47.4811 38.154 48.236 38.2115 48.6194L38.2166 48.6572C38.2868 49.1613 37.9137 49.5376 37.4491 49.6683C36.8353 49.5432 36.0117 48.8109 35.5164 48.4436L33.6097 47.0579C32.4399 46.239 32.2948 46.5083 31.4049 45.1246L26.7854 37.3659ZM35.7004 45.1538L34.564 45.8951L35.4591 46.5705L36.0725 47.0708L35.7004 45.1538Z" fill="white"/>
</svg>
