<svg width="121" height="121" viewBox="0 0 121 121" fill="none" xmlns="http://www.w3.org/2000/svg">
<path d="M33.3809 115.141C33.4572 115.23 33.4905 115.269 33.5075 115.389L33.5141 115.476C34.048 114.995 34.541 114.544 35.0361 114.013L52.48 95.6839C54.713 93.3865 54.0265 94.0393 57.3753 94.2707L59.3836 94.4106C60.0573 94.4481 61.0636 94.4143 61.6684 94.7237C60.5392 95.5376 59.5187 96.7204 58.563 97.7357L40.2779 116.953C39.2893 118.005 38.2457 119.649 36.6013 119.446L36.1832 119.347C34.1693 118.834 33.4163 117.034 33.3809 115.141Z" fill="#1F6A35"/>
<path d="M0.473022 64.1877L0.473727 12.0022C0.475171 8.40065 2.27263 5.19852 5.43552 3.36601C9.039 1.2782 13.4079 1.83518 17.4013 1.83453L109.025 1.8271C110.304 1.82793 111.626 1.83789 112.868 2.18288C116.471 3.18392 120.12 6.7438 120.506 10.628C120.576 11.3271 120.544 12.0522 120.544 12.7551L120.542 64.4989C119.533 64.5136 115.508 64.5535 114.713 65.1465L114.689 14.6254C114.688 13.93 114.742 13.1835 114.582 12.5036L114.405 11.8514C114.067 10.8297 113.061 9.49889 112.083 9.00829C110.784 8.02013 109.175 8.26232 107.664 8.27022L12.8076 8.2861C12.1392 8.28825 11.3932 8.23295 10.7401 8.37699L10.6438 8.39996C10.2153 8.49922 9.82399 8.64258 9.44052 8.85917C7.08868 10.0838 6.28646 11.7601 6.30589 14.2333L6.32276 62.3025C6.32343 63.094 6.29088 63.9192 6.37081 64.7053C4.90435 64.6991 3.43103 64.71 1.94172 64.3987C1.45106 64.2962 0.97884 64.1534 0.473022 64.1877Z" fill="#269A48"/>
<path d="M0.473877 64.1878C0.978875 64.1535 1.4511 64.2963 1.94175 64.3989C3.43106 64.7101 4.90438 64.6992 6.41917 64.698C6.61214 67.01 9.0587 69.2325 11.2519 69.7224C11.8154 69.8481 12.4257 69.8311 13.0008 69.8332L21.9577 69.8285C22.82 69.8278 23.1332 69.5102 23.1895 70.1986L23.2215 77.8403L23.2462 83.7726C23.2645 84.1223 23.3104 84.3516 23.5784 84.5903L23.6468 84.6503C25.0009 85.866 25.9214 84.6534 26.9298 83.7062L40.3568 71.1697C41.2234 70.3732 41.3144 69.8524 42.4939 69.8453L105.809 69.8318C107.953 69.8301 110.277 69.953 112.138 68.6946C113.311 67.9015 114.431 66.5608 114.713 65.1466C115.508 64.5536 119.533 64.5137 120.541 64.5069L120.542 82.9759C120.539 88.738 118.992 92.9154 113.041 94.5011C111.912 94.802 110.654 94.733 109.496 94.7337L61.6684 94.7266C61.0637 94.4142 60.0574 94.448 59.3836 94.4104L57.3753 94.2705C54.0265 94.0391 54.713 93.3864 52.48 95.6837L35.0361 114.013C34.541 114.543 34.048 114.995 33.5142 115.476L33.5076 115.389C33.4905 115.268 33.4572 115.23 33.3809 115.14C33.2823 114.829 33.3284 114.376 33.3279 114.05L33.3206 101.778C33.3197 100.011 34.0362 95.4016 31.8232 94.7909C31.4335 94.6834 30.8997 94.7401 30.4937 94.7387L11.325 94.7377C9.98934 94.7335 8.78283 94.6652 7.49444 94.2736C2.38184 92.7197 0.479069 88.2642 0.474621 83.3658L0.474054 68.1038L0.473877 64.1878ZM50.4542 78.0756C50.111 78.0964 49.7823 78.1101 49.4517 78.2125L49.3779 78.2347C47.4013 78.8529 46.0873 80.7074 46.7129 82.78L46.7448 82.8896C47.6064 85.7558 50.2313 85.5098 52.5072 85.4928L100.986 85.4701C101.417 85.4422 101.848 85.4266 102.271 85.333L102.369 85.312C106.626 84.3516 104.951 78.3462 101.946 78.1087C101.31 78.0584 100.657 78.0872 100.018 78.0875L50.4542 78.0756Z" fill="url(#paint0_linear_200_742)"/>
<path d="M0.473877 64.1878C0.978875 64.1535 1.4511 64.2963 1.94175 64.3989C3.43106 64.7101 4.90438 64.6992 6.41917 64.698C6.61214 67.01 9.0587 69.2325 11.2519 69.7224C11.8154 69.8481 12.4257 69.8311 13.0008 69.8332L21.9577 69.8285C22.82 69.8278 23.1332 69.5102 23.1895 70.1986L23.2215 77.8403C22.6901 78.281 21.2667 78.0808 20.6247 78.0818L14.3637 78.0789C13.2329 78.0726 11.9407 78.0272 10.8379 77.7601L8.50782 77.2005C7.81963 76.976 7.15704 76.6681 6.52857 76.3093L5.79004 75.8371C4.73335 75.1407 2.1222 72.34 1.59493 71.0165L1.26815 70.2189C1.13515 69.82 0.857794 69.2545 0.856105 68.8302L0.797613 68.7421C0.799301 68.6544 0.80143 68.5736 0.784228 68.4869L0.767777 68.4169C0.727887 68.2281 0.654848 68.1829 0.47893 68.1038L0.473877 64.1878Z" fill="#1F6A35"/>
<path d="M37.5738 22.2152L39.9865 22.2019C41.2161 22.1968 42.5481 22.0345 43.5257 22.9408C45.2082 24.5003 44.6034 27.5104 42.5684 27.9252C42.1765 28.0051 41.7337 27.9781 41.335 27.9798L32.7411 27.9904L32.7381 35.5264L40.2708 35.5227C40.674 35.5215 41.1306 35.478 41.5203 35.5957L41.5938 35.6188C42.8073 35.9946 43.6319 37.0229 43.4433 38.3205L43.4267 38.433C43.0788 40.875 41.1514 41.0813 39.2437 41.0889L36.5139 41.0955L32.7456 41.1038L32.7541 45.0207C32.7567 45.7256 32.8243 46.5006 32.6925 47.193C32.0312 50.6654 27.4247 50.1556 27.3058 46.6558L27.2718 26.8418C27.2543 24.155 27.3491 22.2555 30.5052 22.2295L37.5738 22.2152Z" fill="#1F6A35"/>
<path d="M56.9948 22.0615C61.7431 21.4679 66.7646 25.9876 67.6045 30.4606C67.8914 31.9897 67.7685 33.6527 67.7697 35.2035L67.7673 45.561C67.7666 46.0734 67.8139 46.6413 67.739 47.147C67.5561 48.3809 66.0698 49.9489 64.7133 49.7084L64.6358 49.6932C62.3852 49.2846 62.0912 46.6611 62.0834 44.8428L57.5313 44.84L52.596 44.8312L52.5698 46.3596C52.3543 49.0601 49.6289 51.2079 47.5906 48.4877C46.5741 47.131 46.8951 44.918 46.8941 43.3341L46.8738 33.4615C46.8714 32.8307 46.8027 32.1489 46.8937 31.5253C47.666 26.2325 51.6379 22.5641 56.9948 22.0615ZM57.0539 27.7899L55.9847 28.0132C53.8658 28.5983 52.6 30.5568 52.5547 32.6698L52.5428 39.4205L57.8267 39.4049L60.7458 39.4004C61.2567 39.3995 61.8149 39.442 62.3195 39.3803L62.3093 39.3024C62.0028 36.8526 62.5161 33.5241 62.0118 31.3416L61.9983 31.2816C61.5786 29.4683 59.8853 28.0926 58.0777 27.8218L57.9737 27.805C57.7347 27.7681 57.2834 27.7166 57.0539 27.7899Z" fill="#1F6A35"/>
<path d="M82.8191 22.0615C85.1651 21.9092 87.5575 22.7106 89.5542 23.8987C94.027 26.56 95.9736 32.246 95.3802 37.2306C95.0919 39.6504 94.1702 41.832 92.9311 43.9121C94.3231 44.6074 96.4711 46.2014 96.4928 47.9167C96.5117 49.3869 95.3672 50.7191 93.8634 50.7122C91.235 50.7002 89.674 47.1737 88.8573 47.6704C82.3741 51.9539 73.7569 46.2685 71.5904 39.7166C68.9017 31.5852 73.8318 22.688 82.8191 22.0615ZM82.631 27.7253C75.5693 29.0296 74.3749 38.1646 80.1921 42.0499C81.3945 42.8529 82.7595 43.3527 84.1674 43.6474L83.6342 42.6527C83.0242 40.3445 85.5182 38.8356 87.6849 40.1918L88.3541 40.6262C91.8003 36.3614 89.3143 27.1465 82.631 27.7253Z" fill="#1F6A35"/>
<defs>
<linearGradient id="paint0_linear_200_742" x1="60.5317" y1="64.419" x2="60.3974" y2="115.517" gradientUnits="userSpaceOnUse">
<stop stop-color="#269A48"/>
<stop offset="1" stop-color="#35D063"/>
</linearGradient>
</defs>
</svg>
