<?xml version="1.0" encoding="utf-8" ?>
<svg xmlns="http://www.w3.org/2000/svg" xmlns:xlink="http://www.w3.org/1999/xlink" width="512" height="512">
	<path fill="#D6924C" d="M11.6028 324.62L60.411 324.59L72.8605 351.688C69.7096 352.06 65.8774 350.263 62.5529 350.158L20.8189 350.107L11.6028 324.62Z"/>
	<path fill="#D6924C" d="M452.372 322.69C456.916 323.042 461.556 322.81 466.113 322.794L488.587 322.77C492.506 322.77 496.863 322.337 500.699 322.932L491.332 349.742L458.888 350.057C457.054 350.044 440.451 350.309 440.364 350.277L452.372 322.69Z"/>
	<path fill="#D6924C" d="M321.055 450.604L351.319 438.144L351.289 490.763L321.3 500.83C322.594 488.225 322.37 462.974 321.055 450.604Z"/>
	<path fill="#D6924C" d="M321.48 10.6658L350.712 20.6943L352.006 74.3442L321.031 60.6014L321.48 10.6658Z"/>
	<path fill="#D6924C" d="M159.227 21.5005L190.174 10.947L190.026 55.4469C190.047 57.2505 190.277 59.1172 190.065 60.9064L160.559 73.724C160.227 72.2168 160.3 70.6796 160.185 69.162L159.227 21.5005Z"/>
	<path fill="#D6924C" d="M159.682 437.296L190.944 450.723C190.2 452.289 190.303 453.948 190.242 455.584L189.589 500.682L159.652 490.141L159.682 437.296Z"/>
	<path fill="#F3B55C" d="M190.097 10.947C206.437 6.48417 231.138 2.61488 248.507 2.06512C247.733 3.53217 247.981 5.63124 247.975 7.18744L248.472 49.733C242.699 49.7802 237.101 50.5887 231.125 51.4321L207.321 55.954C201.512 57.3164 195.662 58.7876 190.077 60.9064C190.277 59.1172 190.047 57.2505 190.026 55.4469L190.097 10.947Z"/>
	<path fill="#F3B55C" d="M190.731 450.723C209.687 457.053 228.06 460.529 247.851 460.499L248.335 510.068C242.95 509.971 237.513 509.166 232 508.565L208.375 505.245L189.594 500.682L190.242 455.584C190.303 453.948 190.2 452.289 190.731 450.723Z"/>
	<path fill="#F3B55C" d="M263.249 2.01874L272.637 2.12823C287.935 2.98288 306.847 6.94853 321.527 10.6658L321.176 60.6014C305.163 55.2481 289.202 52.4589 272.583 50.7201L262.665 49.9994L248.751 49.7655L247.975 7.18744C247.981 5.63124 247.733 3.53217 248.284 2.10251L263.249 2.01874Z"/>
	<path fill="#D6924C" d="M248.284 2.10251L263.249 2.01874L262.921 50.0966L248.751 49.7655L247.975 7.18744C247.981 5.63124 247.733 3.53217 248.284 2.10251Z"/>
	<path fill="#F3B55C" d="M263.969 460.491L275.25 460.295C289.634 459.392 307.529 455.995 321.042 450.604C322.37 462.974 322.594 488.225 321.231 500.83C306.411 505.053 291.477 507.04 276.125 508.616C271.594 509.082 267.26 510.005 262.673 510.064L248.508 510.088L247.91 460.505L263.969 460.491Z"/>
	<path fill="#D6924C" d="M247.91 460.505L263.969 460.491L262.985 502.673C262.979 505.125 263.104 507.64 262.673 510.063L248.508 510.088L247.91 460.505Z"/>
	<path fill="#F3B55C" d="M2.00657 242.046C4.20209 241.199 10.5269 242.682 13.1597 242.733L40.1475 242.701C42.9012 242.67 46.4072 241.998 49.0625 242.503C48.5888 245.796 48.7165 249.202 48.7195 252.563L48.8015 268.814C49.7318 286.135 53.764 308.296 60.411 324.683L11.6028 324.575C8.06142 312.992 5.28929 300.947 3.74887 288.875L2.74768 277.125C2.36933 272.201 2.00538 267.444 2.00504 262.493L2.00657 242.046Z"/>
	<path fill="#D6924C" d="M2.00657 242.046C4.20209 241.199 10.5269 242.682 13.1597 242.733L40.1475 242.701C42.9012 242.67 46.4072 241.998 49.0625 242.503C48.5888 245.796 48.7165 249.202 48.7195 252.563L48.4327 261.562C40.7501 262.237 32.9542 261.684 25.25 261.91L8.14215 262.358C6.14513 262.361 3.97576 262.539 1.99585 262.351L2.00657 242.046Z"/>
	<path fill="#F3B55C" d="M452.372 322.698C458.467 304.834 462.263 286.013 463.272 267.164L463.505 248.148C463.514 244.473 463.051 239.767 467.063 237.771C468.837 236.889 504.628 236.893 506.27 237.62L506.973 238.008C514.489 242.286 505.857 300.221 504.334 307.789L500.699 323.11C496.863 322.337 492.506 322.77 488.587 322.77L466.113 322.794C461.556 322.81 456.916 323.042 452.372 322.698Z"/>
	<path fill="#F3B55C" d="M20.8189 350.264L62.5529 350.158C65.8774 350.263 69.7096 352.06 72.8605 351.688L83.0603 368.606C97.0939 389.471 116.096 409.168 136.765 423.388C144.192 428.499 152.048 432.682 159.765 437.296L159.661 490.141C95.3313 463.238 48.1004 414.819 20.8189 350.264Z"/>
	<path fill="#F3B55C" d="M491.332 349.922C483.755 368.248 475.011 384.353 463.448 400.672L451.963 416.374C425.405 449.39 390.782 474.195 351.762 490.572L351.305 490.763L351.319 438.144C353.694 436.512 356.325 435.206 358.795 433.719L374.781 423.609C397.221 408.163 412.629 392.784 428.114 369.8L435.418 358.444C436.965 355.882 438.371 353.13 440.077 350.683L440.364 350.277C440.451 350.309 457.054 350.044 458.888 350.057L491.332 349.922Z"/>
	<path fill="#F3B55C" d="M350.708 20.6943L370.825 29.625C437.254 64.9375 486.581 126.654 503.378 200.316C505.366 209.035 507.878 214.534 496.602 214.527L472.102 214.486C469.315 214.478 464.85 215.022 462.32 213.942C458.618 212.36 455.323 198.254 454.108 194.631L447.147 176.63C431.696 141.021 407.127 110.363 375.14 88.1724C367.702 83.0123 359.878 78.7953 352.023 74.3442L350.708 20.6943Z"/>
	<path fill="#F3B55C" d="M2.02828 242.046C2.33533 235.279 3.60461 228.753 4.69682 222.082C10.9208 184.065 22.4718 148.944 44.3301 116.82L63.9141 91.2816C81.5696 71.295 102.66 52.6153 125.329 38.664C136.151 32.0037 147.697 26.7955 159.219 21.5005L160.185 69.162C160.3 70.6796 160.227 72.2168 160.433 73.724C154.064 77.0339 147.744 80.3709 141.643 84.382C94.1274 115.62 58.2537 168.398 50.7511 225.125L49.0472 242.457C46.4072 241.998 42.9012 242.67 40.1475 242.701L13.1597 242.733C10.5269 242.682 4.20209 241.199 2.02828 242.046Z"/>
	<path fill="#D6924C" d="M242.107 110.606L262.495 110.557C264.747 110.572 267.977 110.221 270.125 110.77C273.353 111.594 280.858 130.628 282.741 134.703L286.986 143C288.298 145.336 290.73 145.563 293.116 146.344L310.486 152.694C311.401 153.082 313.125 154.146 314.053 154.269C315.73 154.491 339.739 143.952 345.043 142.648C350.562 145.785 362.505 155.622 366.179 160.451C367.747 162.511 365.911 166.004 365.248 168.25L360.338 184.013C358.633 189.305 355.967 194.235 357.896 199.711L365.373 219.898C367.056 224.665 365.9 224.112 370.603 226.025L389.476 233.574C393.672 235.326 399.801 236.637 400.205 241.94C400.687 248.264 400.284 254.894 400.3 261.25L400.353 267.455C400.366 268.573 400.485 269.787 400.265 270.888C397.737 274.508 384.174 278.672 380.023 280.316L366.469 285.932C365.172 292.523 362.531 299.364 359.803 305.5L357.491 310.63C355.585 314.488 356.195 313.335 357.398 317.53L365.774 345.215C367.63 350.227 366.359 350.122 362.31 353.717L354.377 360.467C351.462 362.944 348.35 366.199 344.988 367.992L314.99 354.991C312.154 355.723 309.488 356.951 306.785 358.062L294.93 362.875C290.634 364.574 287.024 364.415 285.36 369.05L277.855 386.556C276.013 390.468 273.954 397.129 269.873 399.199C268.353 399.551 266.802 399.597 265.259 399.632L245.659 399.702C241.313 399.707 240.872 400.908 238.808 397.216C236.218 392.583 225.773 367.01 224.321 366.039C223.168 365.268 220.864 364.743 219.54 364.253L201.935 356.858C197.846 355.156 198.11 354.778 193.982 356.341L166.296 368.001C159.988 363.757 149.752 354.711 145.386 349.032L155.507 314.917C156.164 312.343 155.825 311.865 154.647 309.478L145.19 288.099C144.107 285.237 143.005 285.132 140.213 283.875L130.317 279.679C109.632 271.379 111.738 274.074 111.813 253.53L111.94 243.4C111.994 241.959 111.945 240.114 112.406 238.75C113.296 236.116 140.355 226.558 144.411 224.598C145.707 222.233 146.369 219.53 147.232 216.984L153.8 199.79C154.517 198.105 155.408 197.023 154.885 195.218L148.453 173.77C147.623 171.036 144.608 164.205 145.644 161.516C146.706 158.759 162.689 144.356 167.021 142.277L196.593 154.324C200.761 152.9 204.765 150.822 208.848 149.154L223.656 143.384C226.651 142.2 226.803 139.889 228.071 137.099L234.461 123.364C236.191 119.512 237.873 112.465 242.107 110.606ZM254.667 166.858C247.234 167.381 239.983 168.278 232.791 170.311C199.023 179.853 173.337 211.326 169.675 246.032C164.277 297.178 205.697 342.386 257.31 340.639C308.33 339.182 343.691 299.793 341.95 249.222C340.411 204.517 299.838 165.603 254.667 166.858Z"/>
	<path fill="#D6924C" d="M253.965 184.349C269.48 183.51 285.013 193.03 286.646 209.385C286.854 211.477 286.756 213.681 286.756 215.788C286.762 233.29 277.685 257.885 258.267 259.938L257.111 260.114C239.142 262.138 226.793 238.039 225.383 223.086C223.306 201.067 230.372 186.217 253.965 184.349Z"/>
	<path fill="#D6924C" d="M252.956 263.344C280.499 262.435 299.807 281.823 302.726 308.7C302.989 311.12 303.736 316.05 302 318.027C294.687 326.352 269.73 331.33 259.562 332.234C244.619 332.305 234.096 330.684 220.068 324.219C211.225 320.144 208.283 319.716 209.126 309.751C211.381 283.068 226.818 266.105 252.956 263.344Z"/>
</svg>
