<?xml version="1.0" encoding="utf-8" ?>
<svg xmlns="http://www.w3.org/2000/svg" xmlns:xlink="http://www.w3.org/1999/xlink" width="512" height="512">
	<path fill="#D6924C" d="M313.586 438.224C314.544 439.116 317.37 438.77 318.591 438.782L326.714 439.19C340.667 439.943 350.632 442.215 359.755 454.391C363.476 459.52 365.663 464.173 366.361 470.495L145.753 470.382C147.497 464.297 146.702 461.661 151.162 455.274C158.723 443.538 170.903 439.695 183.948 439.095L199.469 438.743L300.066 439.273C304.475 439.272 308.993 439.47 313.375 438.935L313.586 438.224Z"/>
	<path fill="#F3B55C" d="M313.586 438.224C314.544 439.116 317.37 438.77 318.591 438.782L326.714 439.19C340.667 439.943 350.632 442.215 359.755 454.391L218.084 453.975L162.206 454.455C159.983 454.507 153.676 455.87 151.981 455.179L151.162 455.274C158.723 443.538 170.903 439.695 183.948 439.095L199.469 438.743L300.066 439.273C304.475 439.272 308.993 439.47 313.375 438.935L313.586 438.224Z"/>
	<path fill="#D6924C" d="M11.9644 349.076C12.4136 347.658 12.2766 346.022 12.2776 344.577C17.3368 344.041 22.8714 344.484 27.9732 344.483L500.056 344.46L499.853 376.259C498.706 389.515 486.372 393.284 475.213 393.304L313.524 393.329L313.552 438.062L313.375 438.935C308.993 439.47 304.475 439.272 300.066 439.273L199.469 438.759L199.02 393.305L35.7359 393.308C14.6443 393.268 11.9272 382.024 11.9577 363.125L11.9644 349.076Z"/>
	<path fill="#F3B55C" d="M12.1977 349.076L11.952 68.5772C11.9694 49.492 15.115 38.6533 35.6606 38.567L464.924 38.5435C475.224 38.5473 485.897 36.9611 493.87 45.031C500.306 51.5441 500.147 55.5661 500.08 63.8795L500.031 344.218L27.9732 344.483C22.8714 344.484 17.3368 344.041 12.2776 344.577C12.2766 346.022 12.4136 347.658 12.1977 349.076Z"/>
	<path fill="#D6924C" d="M299.947 107.763L300.082 107.483C300.975 105.076 300.909 88.8211 299.75 86.8557C298.134 84.115 296.133 84.2849 294.803 79.684C295.801 77.3442 296.984 75.418 299.5 74.4584C300.977 73.8951 332.151 74.0174 333.625 74.7501C335.865 75.8632 337.704 78.4356 337.424 80.9791C336.421 82.5236 334.742 83.189 333.362 84.3169C331.192 86.0896 332.161 94.7048 332.161 97.4295L332.155 134.291C322.851 128.333 307.318 115.503 299.947 107.763Z"/>
	<path fill="#BF3225" d="M147.698 175.22C144.882 176.972 142.505 179.363 140.026 181.544L130.784 189.431C127.925 191.816 125.085 194.247 121.504 195.429C116.644 193.678 114.155 190.437 118.058 186.398C123.738 180.52 130.607 175.444 136.849 170.162L239.085 84.056C242.252 81.3782 245.272 78.394 248.636 75.9741C258.718 68.7224 265.725 78.5063 272.921 84.5303C282.057 92.179 291.41 99.418 299.947 107.763C307.318 115.503 322.851 128.333 332.145 134.291L387.9 181.308C389.778 182.844 392.036 184.344 393.708 186.093C398.647 191.257 393.113 198.499 387.241 194.433C384.464 192.511 381.95 190.039 379.356 187.865L364.409 176.023L256.238 84.2255C254.227 85.4236 252.328 87.135 250.542 88.6542L159.306 165.105C155.425 168.372 151.173 171.527 147.698 175.22Z"/>
	<path fill="#FDF5E0" d="M159.306 165.105L250.542 88.6542C252.328 87.135 254.227 85.4236 256.238 84.2255L364.409 176.023L364.236 176.314C363.633 179.332 363.888 182.725 363.886 185.801L363.907 290.381C363.906 294.871 364.989 303.315 362.567 307.272L362.338 307.654C358.825 313.372 353.94 313.68 347.943 313.687L157.611 313.655L155.81 313.169C153.035 312.208 150.701 309.227 149.512 306.684L149.312 306.25C148.141 303.759 148.077 300.727 147.957 298.002L147.797 175.22C151.173 171.527 155.425 168.372 159.306 165.105Z"/>
	<path fill="#D6924C" d="M255.614 164.576L257.25 164.76C262.36 165.844 268.879 175.606 272.367 179.298L281.71 188.6C284.226 191.055 286.892 193.378 288.671 196.443C289.058 203.289 283.566 209.482 277.001 203.786L267.439 194.672C266.264 193.581 265.016 193.171 264.338 191.626L264.241 191.391C263.847 197.947 264.068 204.616 264.06 211.185L264.005 258.576C263.988 264.954 264.19 272.603 256.047 273.356C248.197 272.439 248.086 265.304 248.064 259.284L247.527 192.216C246.793 193.293 235.073 204.078 234.24 204.674C227.248 209.677 219.897 201.426 225.313 194.147C228.716 189.572 233.413 185.654 237.316 181.479L245.426 172.48C248.221 169.35 251.157 165.194 255.614 164.576Z"/>
</svg>
