<svg width="121" height="121" viewBox="0 0 121 121" fill="none" xmlns="http://www.w3.org/2000/svg">
<path d="M74.1092 103.564C74.3356 103.775 75.0035 103.693 75.292 103.696L77.2117 103.793C80.5092 103.971 82.8642 104.508 85.0202 107.385C85.8996 108.597 86.4165 109.697 86.5814 111.191L34.4456 111.164C34.8577 109.726 34.6698 109.103 35.7239 107.594C37.5107 104.82 40.3892 103.912 43.4721 103.77L47.1402 103.687L70.9141 103.812C71.956 103.812 73.0238 103.859 74.0593 103.732L74.1092 103.564Z" fill="#1F6A35"/>
<path d="M74.1092 103.564C74.3356 103.775 75.0035 103.693 75.2921 103.696L77.2117 103.793C80.5092 103.971 82.8642 104.508 85.0203 107.385L51.5394 107.287L38.3339 107.4C37.8085 107.413 36.318 107.735 35.9174 107.571L35.7239 107.594C37.5108 104.82 40.3892 103.912 43.4721 103.77L47.1402 103.687L70.9141 103.812C71.9561 103.812 73.0238 103.859 74.0594 103.732L74.1092 103.564Z" fill="#269A48"/>
<path d="M2.82757 82.497C2.93373 82.1619 2.90135 81.7752 2.90159 81.4337C4.09722 81.3071 5.4052 81.4118 6.6109 81.4115L118.177 81.4061L118.129 88.9211C117.858 92.0538 114.943 92.9446 112.306 92.9493L74.0946 92.9552L74.1012 103.527L74.0594 103.733C73.0238 103.86 71.9561 103.813 70.9141 103.813L47.1402 103.692L47.0341 92.9495L8.44544 92.9502C3.46091 92.9408 2.81878 90.2835 2.82599 85.8171L2.82757 82.497Z" fill="#1F6A35"/>
<path d="M2.88265 82.4969L2.82458 16.2072C2.8287 11.6968 3.57209 9.13531 8.42759 9.11492L109.875 9.10936C112.309 9.11026 114.831 8.7354 116.715 10.6425C118.236 12.1818 118.199 13.1323 118.183 15.097L118.171 81.3488L6.61085 81.4115C5.40515 81.4117 4.09716 81.307 2.90153 81.4337C2.9013 81.7752 2.93367 82.1618 2.88265 82.4969Z" fill="#269A48"/>
<path d="M70.886 25.4678L70.9179 25.4016C71.1289 24.8328 71.1133 20.9913 70.8394 20.5268C70.4575 19.8791 69.9846 19.9193 69.6703 18.8319C69.9061 18.279 70.1857 17.8238 70.7803 17.597C71.1294 17.4639 78.4967 17.4928 78.845 17.6659C79.3744 17.929 79.809 18.5369 79.7428 19.138C79.5058 19.503 79.109 19.6603 78.7829 19.9268C78.27 20.3458 78.499 22.3818 78.499 23.0257L78.4976 31.7371C76.2988 30.3291 72.6279 27.297 70.886 25.4678Z" fill="#1F6A35"/>
<path d="M34.9051 41.4095C34.2396 41.8236 33.6779 42.3886 33.092 42.9041L30.9079 44.768C30.2322 45.3316 29.561 45.9061 28.7148 46.1855C27.5662 45.7717 26.978 45.0057 27.9004 44.0512C29.2427 42.6621 30.866 41.4625 32.3412 40.2142L56.5025 19.8649C57.2509 19.2321 57.9646 18.5268 58.7596 17.9549C61.1423 16.2411 62.7982 18.5534 64.4988 19.977C66.6579 21.7846 68.8683 23.4954 70.8859 25.4675C72.6278 27.2967 76.2987 30.3288 78.4951 31.7368L91.6716 42.8483C92.1154 43.2113 92.6491 43.5658 93.0442 43.9791C94.2114 45.1995 92.9036 46.911 91.5159 45.9501C90.8596 45.4959 90.2655 44.9117 89.6524 44.3979L86.12 41.5993L60.5562 19.905C60.0809 20.1881 59.6321 20.5926 59.2101 20.9516L37.6484 39.0191C36.7312 39.7911 35.7264 40.5368 34.9051 41.4095Z" fill="#177733"/>
<path d="M37.6485 39.0194L59.2101 20.9519C59.6322 20.5929 60.081 20.1884 60.5562 19.9053L86.1201 41.5996L86.0792 41.6684C85.9367 42.3816 85.997 43.1835 85.9965 43.9104L86.0015 68.6256C86.0012 69.6867 86.2572 71.6823 85.6848 72.6174L85.6307 72.7077C84.8004 74.059 83.646 74.1318 82.2287 74.1335L37.2479 74.1259L36.8223 74.0111C36.1665 73.784 35.6149 73.0795 35.3339 72.4785L35.2866 72.3759C35.0099 71.7872 34.9948 71.0707 34.9664 70.4267L34.9286 41.4098C35.7264 40.5371 36.7313 39.7915 37.6485 39.0194Z" fill="#DAFFE5"/>
<path d="M60.4088 38.8936L60.7954 38.937C62.003 39.1932 63.5437 41.5003 64.368 42.3728L66.576 44.5711C67.1706 45.1513 67.8006 45.7003 68.2211 46.4246C68.3125 48.0425 67.0146 49.5061 65.4631 48.16L63.2034 46.0061C62.9257 45.7483 62.6307 45.6514 62.4705 45.2862L62.4476 45.2307C62.3545 46.7801 62.4067 48.3561 62.4048 49.9086L62.3918 61.1084C62.3878 62.6157 62.4355 64.4234 60.5111 64.6013C58.6559 64.3846 58.6297 62.6984 58.6245 61.2757L58.4976 45.4257C58.3241 45.6802 55.5544 48.229 55.3575 48.3698C53.7051 49.5522 51.9678 47.6022 53.2478 45.882C54.052 44.8008 55.1621 43.8749 56.0844 42.8882L58.0011 40.7615C58.6616 40.0218 59.3555 39.0396 60.4088 38.8936Z" fill="#1F6A35"/>
</svg>
