<svg width="121" height="121" viewBox="0 0 121 121" fill="none" xmlns="http://www.w3.org/2000/svg">
<path d="M83.6126 56.6694L85.0781 56.6021C87.5248 56.4957 89.2429 55.1905 90.81 53.4861C92.7959 53.445 94.6555 52.3869 96.2446 51.2856C98.4694 49.7441 97.3693 50.1775 99.7973 51.4608C101.392 52.3037 103.094 52.3692 104.75 52.9397C106.364 54.6762 107.693 56.8367 108.035 59.2227C109.773 71.3246 97.0292 77.2907 87.2263 71.3289L85.0131 69.7641C84.9758 69.7372 84.7922 69.5888 84.7614 69.5848C84.4254 69.542 81.3687 72.2408 80.9166 72.6521L66.9347 85.539C66.0906 86.2705 65.2563 87.0496 64.2961 87.6267L64.6679 106.691C65.7134 106.764 66.7315 106.955 67.7671 107.105L88.6909 110.986L100.392 113.525L117.259 115.937C117.674 116.016 117.987 116.043 118.361 116.261L3.01562 116.493C3.95888 116.264 4.62689 116.07 5.63988 115.882C9.9657 115.079 14.3722 114.955 18.6994 114.203C23.315 113.402 27.8038 112.018 32.3179 110.794L41.45 108.611L52.4691 106.747C52.9266 106.702 53.5231 106.739 53.9549 106.606C54.0411 105.73 54.0125 104.835 54.0137 103.954L54.0194 99.0081C54.0208 98.1961 53.9787 97.3583 54.0331 96.5493L54.3926 87.8061C54.4876 86.8837 50.8984 83.4865 50.0805 82.61L45.7876 78.0165C43.2832 75.5447 40.5879 73.3034 37.9011 71.0377L37.7182 71.0282L37.5194 71.3515C37.4301 71.6351 37.3261 71.785 37.1144 71.9922C35.1869 73.7564 32.0201 75.6811 29.3181 75.9425L28.3364 76.0133C27.2247 76.0538 26.0107 76.0928 24.9094 75.9292C14.4886 74.3822 8.67663 61.1157 16.3106 53.0089C17.5319 52.0761 19.0439 51.3083 20.4614 50.7118C22.5102 52.1189 23.7391 54.1194 26.8384 53.5362L28.927 52.9161C31.3364 54.6509 32.3911 55.4169 35.4854 55.7541C36.1577 55.8274 36.9258 55.6913 37.4705 56.1164C38.4059 55.8652 39.0879 55.6499 39.9498 56.1474L41.9014 57.3612C43.4444 58.2802 45.1453 59.1388 46.9071 59.5297C47.9606 59.7634 50.56 59.9813 50.5967 60.0962C51.3262 60.1148 51.6854 60.2252 52.2561 60.6981C52.4499 60.5955 52.6681 60.4188 52.8919 60.4823L53.2499 60.6965C53.6198 60.7395 53.9769 60.9699 54.3065 61.1363L56.7072 62.4888C56.8549 62.5802 57.1635 62.8489 57.3117 62.8882C58.6876 63.1588 59.7844 64.7497 61.2049 64.7043L68.5954 65.3594C69.0499 65.28 70.2504 64.9955 70.6354 65.2098L70.6557 65.0489C70.8866 64.719 71.5951 64.5737 71.9723 64.4309L73.3205 63.8755C76.5403 62.4337 79.5452 59.4375 80.2166 55.9092L83.6126 56.6694ZM37.4705 56.1164C37.9252 57.0946 38.686 57.8797 39.2971 58.7609C41.0518 61.2913 41.6738 64.1672 40.919 67.1822C40.7966 67.5797 40.6517 67.9758 40.358 68.2821L44.4027 71.6481L52.5232 77.9158C53.2123 78.5378 54.0333 79.4999 54.9167 79.81L55.163 79.5535C56.2458 78.0722 55.0526 74.779 54.4942 73.1795L53.2374 69.5606C52.1699 66.4855 51.2359 63.289 50.5967 60.0962C50.56 59.9813 47.9606 59.7634 46.9071 59.5297C45.1453 59.1388 43.4444 58.2802 41.9014 57.3612L39.9498 56.1474C39.0879 55.6499 38.4059 55.8652 37.4705 56.1164ZM70.6354 65.2098L70.6257 65.2836C70.4733 66.3816 69.6764 67.4845 69.1529 68.4501L65.119 75.9363C64.4067 77.3557 63.3347 79.0386 63.5489 80.7002C64.4831 80.2557 65.3116 79.709 66.1733 79.1426L77.9233 70.8973L81.4023 68.2353C81.8109 67.9314 82.2325 67.4966 82.7148 67.3503C82.9457 67.2539 81.0839 64.0145 81.091 62.9335C81.1104 60.1413 81.6547 58.6042 83.6126 56.6694L80.2166 55.9092C79.5452 59.4375 76.5403 62.4337 73.3205 63.8755L71.9723 64.4309C71.5951 64.5737 70.8866 64.719 70.6557 65.0489L70.6354 65.2098ZM61.2054 64.7043L62.1867 75.5473L68.5954 65.3594L61.2054 64.7043ZM53.2499 60.6965C54.0442 62.9168 55.128 65.0411 56.1227 67.1759C56.4091 67.791 57.016 68.9188 57.2008 69.4834L57.2564 63.4537C57.262 63.2646 57.3091 63.0692 57.3117 62.8882C57.1635 62.8489 56.8549 62.5802 56.7072 62.4888L54.3065 61.1363C53.9769 60.9699 53.6198 60.7395 53.2499 60.6965Z" fill="#1F6A35"/>
<path d="M16.3106 53.0094C7.1154 50.5509 5.65208 39.0062 12.985 33.7004C13.8695 33.0602 15.4443 32.6107 15.3123 31.6921C15.0695 30.0017 14.9523 28.4599 15.2842 26.7543C16.6356 19.8087 24.0459 16.3196 30.6154 17.6298C30.9989 16.7678 31.3577 15.9051 31.8681 15.1069C35.0281 10.1655 41.6689 8.52107 47.0532 10.3657C47.5216 10.0566 47.9056 9.34243 48.2823 8.91219C53.9849 2.3997 64.3368 1.45252 70.9367 7.14611C71.9491 8.01944 72.7548 8.97387 73.6479 9.95712L75.9925 9.61248C76.7147 9.48134 77.4695 9.48195 78.2024 9.48285C84.4648 9.49046 88.3919 12.0953 91.1153 17.4622C93.0017 17.3651 95.1686 17.4049 97.003 17.8703C103.667 19.5612 107.151 25.7348 105.475 32.2872C107.692 33.3977 109.748 34.7223 111.152 36.8221C113.908 40.9434 113.33 47.2685 109.445 50.4975C108.357 51.4016 107.028 52.0627 105.702 52.5469C105.428 52.6466 105.052 52.7277 104.815 52.8926L104.75 52.9401C103.094 52.3696 101.392 52.3042 99.7973 51.4612C97.3693 50.1779 98.4694 49.7445 96.2446 51.2861C94.6555 52.3874 92.7959 53.4454 90.81 53.4865C89.2429 55.1909 87.5248 56.4962 85.0781 56.6025L83.6126 56.6611L80.2166 55.9096C79.5452 59.438 76.5403 62.4342 73.3206 63.876L71.9723 64.4314C71.5951 64.5741 70.8866 64.7194 70.6557 65.0494L70.6354 65.2103C70.2504 64.9959 69.0499 65.2805 68.5954 65.3703L61.205 64.7048C59.7844 64.7502 58.6876 63.1592 57.3117 62.8886C57.1635 62.8494 56.8549 62.5807 56.7072 62.4892L54.3065 61.1367C53.9769 60.9703 53.6198 60.7399 53.2499 60.6969L52.8919 60.4828C52.6681 60.4192 52.4499 60.596 52.2562 60.6986C51.6854 60.2257 51.3262 60.1153 50.5967 60.0966C50.56 59.9818 47.9607 59.7639 46.9071 59.5302C45.1453 59.1393 43.4444 58.2807 41.9014 57.3616L39.9498 56.1478C39.088 55.6504 38.4059 55.8656 37.4705 56.1169C36.9258 55.6917 36.1577 55.8278 35.4854 55.7546C32.3911 55.4173 31.3364 54.6514 28.927 52.9165L26.8384 53.5366C23.7391 54.1199 22.5102 52.1194 20.4614 50.7123C19.0439 51.3088 17.5319 52.0766 16.3106 53.0094Z" fill="#269A48"/>
</svg>
