<?xml version="1.0" encoding="utf-8" ?>
<svg xmlns="http://www.w3.org/2000/svg" xmlns:xlink="http://www.w3.org/1999/xlink" width="512" height="512">
	<path fill="#D6924C" d="M353.799 239.793L360 239.508C370.353 239.058 377.623 233.535 384.254 226.323C392.657 226.149 400.526 221.672 407.25 217.012C416.664 210.489 412.009 212.323 422.283 217.753C429.032 221.32 436.234 221.597 443.24 224.011C450.07 231.359 455.691 240.501 457.141 250.597C464.496 301.805 410.57 327.05 369.09 301.823L359.725 295.202C359.567 295.088 358.79 294.46 358.66 294.443C357.238 294.262 344.304 305.682 342.391 307.422L283.228 361.952C279.656 365.047 276.126 368.344 272.063 370.786L273.636 451.455C278.06 451.763 282.368 452.572 286.75 453.207L375.287 469.629L424.8 480.372L496.169 490.577C497.926 490.911 499.252 491.028 500.835 491.949L12.7604 492.929C16.7517 491.96 19.5783 491.141 23.8647 490.346C42.169 486.949 60.8145 486.424 79.125 483.243C98.6551 479.85 117.649 473.996 136.75 468.816L175.392 459.581L222.018 451.691C223.954 451.5 226.478 451.656 228.305 451.097C228.67 447.387 228.549 443.602 228.554 439.875L228.578 418.945C228.584 415.509 228.406 411.964 228.636 408.541L230.157 371.545C230.559 367.642 215.372 353.267 211.911 349.558L193.746 330.121C183.149 319.662 171.744 310.178 160.375 300.591L159.601 300.551L158.76 301.919C158.382 303.119 157.942 303.753 157.046 304.63C148.89 312.095 135.49 320.239 124.057 321.345L119.903 321.645C115.199 321.816 110.062 321.981 105.402 321.289C61.3071 314.743 36.7144 258.607 69.0168 224.304C74.1845 220.357 80.5826 217.108 86.5804 214.584C95.2498 220.538 100.45 229.003 113.564 226.535L122.402 223.911C132.597 231.252 137.06 234.493 150.153 235.92C152.998 236.23 156.248 235.654 158.553 237.453C162.511 236.39 165.397 235.479 169.044 237.584L177.302 242.72C183.831 246.609 191.028 250.242 198.483 251.896C202.941 252.885 213.94 253.807 214.095 254.293C217.182 254.372 218.702 254.839 221.117 256.84C221.937 256.406 222.86 255.658 223.807 255.927L225.322 256.833C226.887 257.015 228.398 257.99 229.793 258.694L239.951 264.417C240.576 264.804 241.882 265.941 242.509 266.107C248.331 267.252 252.972 273.984 258.983 273.792L290.255 276.564C292.178 276.228 297.258 275.024 298.887 275.931L298.973 275.25C299.95 273.854 302.948 273.239 304.544 272.635L310.249 270.285C323.873 264.184 336.588 251.506 339.429 236.576L353.799 239.793ZM158.553 237.453C160.477 241.592 163.696 244.914 166.282 248.643C173.707 259.35 176.339 271.519 173.145 284.277C172.627 285.959 172.014 287.635 170.771 288.931L187.886 303.174L222.247 329.695C225.163 332.327 228.637 336.398 232.375 337.71L233.417 336.625C237.999 330.357 232.95 316.422 230.587 309.654L225.269 294.341C220.752 281.329 216.8 267.803 214.095 254.293C213.94 253.807 202.941 252.885 198.483 251.896C191.028 250.242 183.831 246.609 177.302 242.72L169.044 237.584C165.397 235.479 162.511 236.39 158.553 237.453ZM298.887 275.931L298.846 276.243C298.201 280.889 294.829 285.556 292.614 289.642L275.545 321.319C272.531 327.325 267.995 334.446 268.901 341.477C272.854 339.596 276.36 337.283 280.006 334.886L329.725 299.997L344.446 288.733C346.175 287.447 347.959 285.607 350 284.988L350.647 284.718C351.257 281.948 353.052 279.744 355.344 278.107L355.015 277.753C353.23 278.73 351.334 281.269 349.878 282.761C343.656 289.14 343.113 268.729 343.129 266.299C343.211 254.484 345.514 247.98 353.799 239.793L339.429 236.576C336.588 251.506 323.873 264.184 310.249 270.285L304.544 272.635C302.948 273.239 299.95 273.854 298.973 275.25L298.887 275.931ZM258.985 273.792L263.137 319.673L290.255 276.564L258.985 273.792ZM225.322 256.833C228.683 266.228 233.269 275.217 237.478 284.25C238.69 286.853 241.258 291.625 242.04 294.014L242.275 268.5C242.299 267.7 242.498 266.873 242.509 266.107C241.882 265.941 240.576 264.804 239.951 264.417L229.793 258.694C228.398 257.99 226.887 257.015 225.322 256.833Z"/>
	<path fill="#F3B55C" d="M157.046 304.63C152.438 301.026 145.741 299.829 147.158 291.278L147.228 290.875C147.543 288.913 148.824 284.164 151.25 283.811L152.499 284.639L156.224 288.715C154.838 290.761 153.66 292.722 152.727 295.021C153.18 295.515 156.713 298.433 156.797 298.761C157.7 299.37 158.614 300.095 159.601 300.551L158.76 301.919C158.382 303.119 157.942 303.753 157.046 304.63Z"/>
	<path fill="#F1C491" d="M156.797 298.761C157.7 299.37 158.614 300.095 159.601 300.551L158.76 301.919C157.566 301.211 156.544 300.267 156.797 298.761Z"/>
	<path fill="#F3B55C" d="M355.015 277.753C356.886 276.814 361.205 277.048 363.125 277.407L363.552 277.485C364.464 277.657 365.25 277.886 366.089 278.281C365.787 281.473 365.349 284.707 363.335 287.333L363.119 287.62C358.221 293.937 355.122 282.859 350.647 284.718C351.257 281.948 353.052 279.744 355.344 278.107L355.015 277.753Z"/>
	<path fill="#F1C491" d="M156.297 274.983C157.124 271.703 158.091 271.572 161.227 270.934C168.884 274.741 170.375 282.846 173.145 284.277C172.627 285.959 172.014 287.635 170.771 288.931C169.108 287.182 166.899 285.672 165.007 284.166C162.597 281.395 157.603 278.457 156.297 274.983Z"/>
	<path fill="#F3B55C" d="M69.0168 224.304C30.1082 213.901 23.9163 165.051 54.9447 142.6C58.6876 139.891 65.3512 137.989 64.7927 134.102C63.7653 126.949 63.2691 120.425 64.6735 113.208C70.3919 83.8185 101.748 69.0546 129.546 74.5987C131.169 70.951 132.687 67.3008 134.847 63.9233C148.218 43.0141 176.318 36.0559 199.101 43.8614C201.083 42.5533 202.708 39.5314 204.302 37.7109C228.432 10.1539 272.235 6.14599 300.162 30.2379C304.446 33.9333 307.855 37.9719 311.634 42.1324L321.555 40.6741C324.611 40.1192 327.805 40.1218 330.906 40.1256C357.405 40.1578 374.022 51.1798 385.546 73.8896C393.528 73.4787 402.697 73.6469 410.459 75.6164C438.656 82.771 453.399 108.894 446.308 136.62C455.69 141.319 464.39 146.924 470.331 155.809C481.99 173.248 479.547 200.012 463.106 213.675C458.502 217.501 452.878 220.298 447.267 222.347C446.11 222.769 444.518 223.112 443.514 223.81L443.24 224.011C436.234 221.597 429.032 221.32 422.283 217.753C412.009 212.323 416.664 210.489 407.25 217.012C400.526 221.672 392.657 226.149 384.254 226.323C377.623 233.535 370.353 239.058 360 239.508L353.799 239.756L339.429 236.576C336.588 251.506 323.873 264.184 310.249 270.285L304.544 272.635C302.948 273.239 299.95 273.854 298.973 275.25L298.887 275.931C297.258 275.024 292.178 276.228 290.255 276.608L258.983 273.792C252.972 273.984 248.331 267.252 242.509 266.107C241.882 265.941 240.576 264.804 239.951 264.417L229.793 258.694C228.398 257.99 226.887 257.015 225.322 256.833L223.807 255.927C222.86 255.658 221.937 256.406 221.117 256.84C218.702 254.839 217.182 254.372 214.095 254.293C213.94 253.807 202.941 252.885 198.483 251.896C191.028 250.242 183.831 246.609 177.302 242.72L169.044 237.584C165.397 235.479 162.511 236.39 158.553 237.453C156.248 235.654 152.998 236.23 150.153 235.92C137.06 234.493 132.597 231.252 122.402 223.911L113.564 226.535C100.45 229.003 95.2498 220.538 86.5804 214.584C80.5826 217.108 74.1845 220.357 69.0168 224.304Z"/>
</svg>
