<?xml version="1.0" encoding="utf-8" ?>
<svg xmlns="http://www.w3.org/2000/svg" xmlns:xlink="http://www.w3.org/1999/xlink" width="512" height="512">
	<path fill="#D6924C" d="M141.248 487.207C141.571 487.585 141.712 487.749 141.784 488.26L141.812 488.626C144.071 486.591 146.157 484.681 148.252 482.435L222.064 404.878C231.513 395.157 228.608 397.919 242.778 398.898L251.276 399.49C254.127 399.649 258.385 399.506 260.944 400.815C256.166 404.259 251.848 409.264 247.804 413.56L170.432 494.876C166.249 499.329 161.833 506.286 154.875 505.426L153.106 505.006C144.584 502.835 141.398 495.218 141.248 487.207Z"/>
	<path fill="#F3B55C" d="M2.00167 271.606L2.00465 50.788C2.01076 35.5484 9.61652 21.9989 23 14.2448C38.2478 5.41045 56.7342 7.76725 73.6322 7.76451L461.331 7.73305C466.741 7.73657 472.336 7.77873 477.59 9.23853C492.836 13.4743 508.276 28.5376 509.911 44.9733C510.205 47.9316 510.069 50.9998 510.072 53.974L510.061 272.923C505.793 272.985 488.763 273.154 485.397 275.663L485.294 61.8877C485.29 58.9453 485.522 55.7865 484.843 52.9097L484.095 50.1499C482.662 45.8266 478.405 40.1955 474.268 38.1196C468.774 33.9383 461.963 34.9631 455.569 34.9965L54.1942 35.0637C51.3662 35.0728 48.2093 34.8388 45.446 35.4483L45.0384 35.5455C43.2252 35.9655 41.5694 36.5721 39.9468 37.4886C29.9952 42.6707 26.6007 49.7638 26.6829 60.2287L26.7543 263.629C26.7571 266.978 26.6194 270.47 26.9576 273.796C20.7524 273.77 14.5182 273.816 8.21631 272.499C6.14015 272.065 4.14199 271.461 2.00167 271.606Z"/>
	<defs>
		<linearGradient id="gradient_0" gradientUnits="userSpaceOnUse" x1="256.13422" y1="272.58444" x2="255.56569" y2="488.79926">
			<stop offset="0" stop-color="#D29351"/>
			<stop offset="1" stop-color="#FFD164"/>
		</linearGradient>
	</defs>
	<path fill="url(#gradient_0)" d="M2.00514 271.606C4.14199 271.461 6.14015 272.065 8.21631 272.499C14.5182 273.816 20.7524 273.77 27.1621 273.765C27.9786 283.548 38.331 292.952 47.6112 295.025C49.9957 295.557 52.5782 295.485 55.0116 295.494L92.912 295.474C96.5608 295.471 97.886 294.127 98.1242 297.04L98.2595 329.375L98.3642 354.477C98.4414 355.957 98.6359 356.927 99.7697 357.937L100.059 358.191C105.789 363.335 109.684 358.204 113.951 354.196L170.766 301.149C174.433 297.779 174.818 295.575 179.809 295.545L447.72 295.488C456.793 295.481 466.625 296.001 474.501 290.676C479.466 287.32 484.205 281.647 485.397 275.663C488.763 273.154 505.793 272.985 510.056 272.956L510.063 351.106C510.048 375.488 503.505 393.164 478.324 399.874C473.544 401.147 468.222 400.855 463.321 400.858L260.944 400.828C258.385 399.506 254.127 399.649 251.276 399.49L242.778 398.898C228.608 397.919 231.513 395.157 222.064 404.878L148.252 482.435C146.157 484.681 144.071 486.591 141.812 488.626L141.784 488.26C141.712 487.749 141.571 487.585 141.248 487.207C140.831 485.889 141.026 483.974 141.024 482.593L140.993 430.664C140.989 423.19 144.021 403.684 134.657 401.1C133.008 400.645 130.749 400.885 129.031 400.879L47.9208 400.875C42.2689 400.857 37.1637 400.568 31.712 398.911C10.0785 392.336 2.02711 373.483 2.00829 352.756L2.00589 288.176L2.00514 271.606ZM213.492 330.371C212.04 330.459 210.649 330.517 209.25 330.95L208.938 331.044C200.574 333.66 195.014 341.507 197.661 350.277L197.796 350.741C201.442 362.869 212.549 361.828 222.179 361.756L427.312 361.66C429.137 361.542 430.962 361.476 432.752 361.08L433.164 360.991C451.177 356.927 444.09 331.516 431.376 330.511C428.684 330.298 425.92 330.42 423.217 330.421L213.492 330.371Z"/>
	<path fill="#D6924C" d="M2.00514 271.606C4.14199 271.461 6.14015 272.065 8.21631 272.499C14.5182 273.816 20.7524 273.77 27.1621 273.765C27.9786 283.548 38.331 292.952 47.6112 295.025C49.9957 295.557 52.5782 295.485 55.0116 295.494L92.912 295.474C96.5608 295.471 97.886 294.127 98.1242 297.04L98.2595 329.375C96.0109 331.24 89.988 330.393 87.2714 330.397L60.7785 330.385C55.9936 330.358 50.5257 330.166 45.8595 329.036L36 326.668C33.088 325.718 30.2843 324.415 27.625 322.897L24.5 320.899C20.0287 317.952 8.97987 306.101 6.74875 300.501L5.36602 297.126C4.80325 295.438 3.62965 293.045 3.6225 291.25L3.375 290.877C3.38214 290.506 3.39115 290.164 3.31836 289.797L3.24875 289.501C3.07996 288.702 2.7709 288.511 2.02652 288.176L2.00514 271.606Z"/>
	<path fill="#D6924C" d="M158.99 94.0009L169.199 93.9445C174.402 93.9228 180.038 93.2361 184.175 97.0709C191.294 103.67 188.735 116.407 180.124 118.162C178.466 118.5 176.592 118.386 174.905 118.393L138.541 118.438L138.528 150.326L170.402 150.31C172.108 150.305 174.04 150.121 175.689 150.619L176 150.717C181.135 152.307 184.624 156.658 183.826 162.149L183.756 162.625C182.284 172.958 174.128 173.831 166.056 173.863L154.505 173.891L138.56 173.926L138.596 190.5C138.607 193.483 138.893 196.762 138.335 199.692C135.537 214.385 116.045 212.228 115.542 197.419L115.398 113.578C115.324 102.209 115.725 94.1713 129.08 94.0613L158.99 94.0009Z"/>
	<path fill="#D6924C" d="M241.168 93.3501C261.26 90.8383 282.508 109.963 286.062 128.89C287.276 135.36 286.756 142.397 286.761 148.959L286.751 192.786C286.748 194.954 286.948 197.357 286.631 199.497C285.857 204.718 279.568 211.353 273.828 210.335L273.5 210.271C263.977 208.542 262.733 197.441 262.7 189.747L243.438 189.735L222.555 189.698L222.444 196.165C221.532 207.592 210 216.68 201.375 205.17C197.074 199.429 198.432 190.065 198.428 183.363L198.342 141.588C198.332 138.919 198.041 136.034 198.426 133.395C201.694 110.999 218.501 95.4768 241.168 93.3501ZM241.418 117.589L236.894 118.534C227.928 121.01 222.572 129.297 222.38 138.238L222.33 166.803L244.688 166.737L257.04 166.718C259.202 166.714 261.564 166.894 263.699 166.633L263.656 166.303C262.359 155.937 264.531 141.853 262.397 132.618L262.34 132.364C260.564 124.691 253.399 118.87 245.75 117.724L245.31 117.653C244.299 117.497 242.389 117.279 241.418 117.589Z"/>
	<path fill="#D6924C" d="M350.441 93.3512C360.368 92.7069 370.491 96.0978 378.94 101.125C397.866 112.386 406.103 136.446 403.592 157.538C402.372 167.777 398.472 177.008 393.229 185.81C399.119 188.752 408.208 195.497 408.3 202.755C408.38 208.976 403.537 214.613 397.174 214.584C386.052 214.533 379.447 199.611 375.991 201.713C348.558 219.838 312.095 195.781 302.928 168.057C291.551 133.65 312.412 96.0023 350.441 93.3512ZM349.645 117.317C319.764 122.836 314.71 161.49 339.325 177.93C344.413 181.328 350.189 183.443 356.146 184.69L353.89 180.481C351.309 170.714 361.862 164.329 371.03 170.068L373.862 171.906C388.444 153.86 377.925 114.868 349.645 117.317Z"/>
</svg>
