<svg width="121" height="121" viewBox="0 0 121 121" fill="none" xmlns="http://www.w3.org/2000/svg">
<g clip-path="url(#clip0_200_759)">
<path d="M70.8512 119.538C67.4055 120.274 63.7715 120.469 60.2563 120.468L55.4412 120.222C23.1372 117.422 -1.67145 88.6077 0.634043 56.3472L1.68981 48.793C4.63534 33.6311 14.4758 19.2526 27.2196 10.6847C35.4972 5.11957 44.1492 2.07391 53.9487 0.902385C54.9331 0.784705 55.9396 0.583063 56.9255 0.521277C64.9883 0.0159846 72.8578 1.31594 80.4697 4.01511C102.686 11.8929 118.243 32.4663 120.11 55.8164L120.321 62.6213C120.324 63.2513 120.387 63.9419 120.261 64.5608L120.051 64.2656C119.682 63.8289 119.117 63.4614 118.709 63.0275L94.1867 38.3338C93.8823 38.0424 93.7348 37.8472 93.3151 37.8099C91.8234 35.6151 90.5973 35.3937 88.1809 35.3845L31.8665 35.3802C31.1287 35.3892 30.4197 35.4865 29.7636 35.846L29.6786 35.8911C28.7375 36.4002 27.9775 37.2623 27.6476 38.2854L27.5854 38.5808C27.3415 39.9191 27.4696 41.42 27.4691 42.7808L27.4786 73.4108C27.5334 75.1861 28.1516 76.49 29.4836 77.7101L29.4347 77.8401C29.9813 78.6899 30.73 79.3301 31.4739 80.0001L39.2536 87.755C39.9132 88.4515 40.5955 89.1794 41.1669 89.9526C42.3535 91.5585 41.8731 91.1009 43.4454 92.3717C44.2 92.9814 44.8865 93.6578 45.569 94.345L69.2378 118.008C69.7239 118.493 70.2733 119.186 70.8512 119.538Z" fill="#269A48"/>
<path d="M59.645 41.3155C69.0605 40.634 70.9417 54.3802 61.5609 56.1196L61.3908 56.1491C52.7894 57.3256 49.3179 43.369 59.645 41.3155Z" fill="#1F6A35"/>
<path d="M57.3458 56.7461L61.6524 56.7813C62.5379 56.7799 63.4692 56.7222 64.3496 56.8241C68.9131 57.3518 72.8267 62.3085 72.8439 66.7643C72.8531 69.1273 70.5735 68.7067 68.9506 68.7085L63.6819 68.7081L50.8262 68.7126C50.3701 68.7126 49.6639 68.8014 49.243 68.6426L49.1563 68.6034C48.5789 68.3517 48.292 67.8608 48.24 67.2369C47.8172 62.1538 52.2668 57.08 57.3458 56.7461Z" fill="#1F6A35"/>
<path d="M93.3151 37.8096C93.7349 37.8469 93.8823 38.0421 94.1867 38.3335L118.709 63.0272C119.117 63.4611 119.682 63.8286 120.051 64.2653L120.255 64.5605C119.931 67.1098 119.838 69.6657 119.318 72.1932C115.923 88.6752 105.371 103.761 90.7283 112.175C84.5372 115.732 77.8316 118.082 70.8512 119.537C70.2734 119.185 69.7239 118.492 69.2378 118.008L45.569 94.3447C44.8865 93.6574 44.2 92.9811 43.4454 92.3714C41.8731 91.1006 42.3536 91.5581 41.167 89.9523C40.5955 89.179 39.9132 88.4511 39.2537 87.7547L31.474 79.9998C30.73 79.3298 29.9813 78.6896 29.4347 77.8398L29.4836 77.7098C30.937 78.7827 33.9183 78.4294 35.6128 78.3949L39.1828 78.3751C39.5862 78.3732 40.3864 78.2727 40.7501 78.4308L40.8552 78.4828C41.2421 78.6686 41.4962 78.9385 41.6921 79.3147L41.737 79.4033C41.9142 79.7408 41.8837 80.1206 41.8852 80.4911L41.8847 87.7518C41.8849 88.25 41.7327 90.4042 42.1747 90.7057C43.2372 91.4305 44.96 89.6025 45.6031 88.9325L53.1691 81.2587C56.3369 78.1139 55.1885 78.4909 59.4025 78.4845L86.882 78.4819C89.688 78.4823 92.6993 78.4826 93.4806 74.8826C93.5597 74.5184 93.5269 74.1077 93.5274 73.7366L93.5245 38.5871C93.5167 38.29 93.482 38.0662 93.3151 37.8096Z" fill="#1F6A35"/>
</g>
<defs>
<clipPath id="clip0_200_759">
<rect width="121" height="121" fill="white"/>
</clipPath>
</defs>
</svg>
