<svg width="12" height="14" viewBox="0 0 12 14" fill="none" xmlns="http://www.w3.org/2000/svg">
<g id="Vector">
<path d="M8.29435 0.69941C9.29654 0.703346 10.2987 0.703784 11.3009 0.700722C12.0617 0.698753 12.282 1.78789 11.5557 2.04574C11.4553 2.08161 11.2831 2.09954 11.0391 2.09954C7.61919 2.09954 4.19926 2.09757 0.779331 2.09364C-0.0687303 2.09298 -0.30098 1.02156 0.466147 0.752554C0.562331 0.718874 0.726547 0.702034 0.958797 0.702034C1.87888 0.701159 2.79779 0.700941 3.71552 0.701378C3.73939 0.701396 3.76236 0.692686 3.77957 0.677102L4.48547 0.0170588C4.49102 0.0116569 4.49775 0.00736015 4.50525 0.00442821C4.51275 0.00149627 4.52087 -1.00939e-05 4.5291 5.09012e-08H7.44559C7.48782 5.09012e-08 7.52394 0.0139971 7.55397 0.041991L8.23242 0.675134C8.24931 0.691318 8.26996 0.69941 8.29435 0.69941Z" fill="#285471"/>
<path d="M11.2608 12.5441C11.2608 13.1497 10.9054 13.6824 10.3107 13.897C10.1193 13.9657 9.76597 14 9.2508 14C7.05076 14 4.8505 14 2.64999 14C2.23945 14 1.95653 13.9777 1.80123 13.9331C1.18471 13.7553 0.76244 13.2225 0.760329 12.6097C0.751884 9.61087 0.747426 6.59103 0.746957 3.55019C0.746957 3.51389 0.766428 3.49574 0.805371 3.49574L11.227 3.49836C11.25 3.49836 11.2615 3.50908 11.2615 3.53051C11.2615 6.52804 11.2613 9.53257 11.2608 12.5441ZM5.99227 7.40154C5.55358 6.99256 5.11395 6.58337 4.67338 6.17396C4.54482 6.05455 4.43268 5.97713 4.33697 5.9417C3.7303 5.71862 3.10816 6.28878 3.3756 6.84844C3.42861 6.9591 3.55928 7.11044 3.7676 7.30246C4.15609 7.66026 4.542 8.01959 4.92533 8.38045C4.93096 8.38591 4.93412 8.39316 4.93412 8.40065C4.93412 8.40813 4.93096 8.41525 4.92533 8.42047C4.53262 8.78964 4.13568 9.15925 3.73453 9.52929C3.52902 9.71912 3.40234 9.87659 3.35448 10.0017C3.15109 10.5331 3.73734 11.0685 4.31304 10.8658C4.42658 10.826 4.59197 10.7046 4.80921 10.5016C5.20286 10.1342 5.59627 9.76768 5.98946 9.40201C5.99162 9.39996 5.99419 9.39834 5.99703 9.39723C5.99987 9.39612 6.00292 9.39555 6.00599 9.39555C6.00907 9.39555 6.01212 9.39612 6.01496 9.39723C6.0178 9.39834 6.02037 9.39996 6.02253 9.40201C6.43354 9.78605 6.84573 10.1703 7.25909 10.5548C7.43409 10.7175 7.56875 10.819 7.66306 10.8592C8.0614 11.0278 8.5632 10.7811 8.67017 10.396C8.74618 10.1235 8.67158 9.88402 8.44637 9.67757C7.98797 9.25766 7.5338 8.83885 7.08384 8.42113C7.07808 8.41572 7.07485 8.40841 7.07485 8.40079C7.07485 8.39317 7.07808 8.38586 7.08384 8.38045C7.50048 7.99335 7.91666 7.60515 8.33236 7.21586C8.59276 6.9731 8.77082 6.75265 8.67651 6.42591C8.56109 6.02634 8.11207 5.78424 7.69684 5.92989C7.59409 5.9662 7.46224 6.05871 7.30131 6.20742C6.872 6.60502 6.44504 7.00306 6.02042 7.40154C6.01859 7.40328 6.0164 7.40467 6.01398 7.40562C6.01156 7.40656 6.00897 7.40705 6.00635 7.40705C6.00373 7.40705 6.00113 7.40656 5.99871 7.40562C5.9963 7.40467 5.99411 7.40328 5.99227 7.40154Z" fill="#285471"/>
</g>
</svg>
