<svg width="50" height="50" viewBox="0 0 50 50" fill="none" xmlns="http://www.w3.org/2000/svg">
<path d="M25.1891 17.9254C23.3418 17.9188 22.0344 17.3312 20.5574 16.2067C19.729 15.5761 18.2373 14.3897 18.5644 13.1693C18.8541 12.0889 20.0398 12.0142 20.9039 11.6615C21.3391 11.484 21.7163 11.2357 22.1216 11.0028C21.3879 9.89336 20.2685 7.83989 20.7284 6.5918C20.9655 5.94817 20.766 5.29466 20.8744 4.62674C21.1731 2.78594 23.1316 1.80943 24.8477 1.74555C26.8678 1.71717 29.1455 2.82833 29.1644 5.07279L29.1689 5.80388C29.17 5.97263 29.1632 6.13998 29.2199 6.30154L29.3948 6.84703C29.6201 7.69087 28.9838 9.11006 28.5352 9.88027L27.89 10.8842C28.5194 11.5263 29.3812 11.7124 30.1914 12.0224C31.8699 12.6645 31.7798 13.9164 30.6852 15.1001C29.2311 16.6728 27.3812 17.8548 25.1891 17.9254ZM24.774 3.28312C23.0058 3.37604 22.2063 4.18706 22.313 5.93789C22.3417 6.41109 22.3521 6.61552 22.1107 7.03698C21.9089 7.38955 22.0135 7.47292 22.1524 7.85074C22.6592 9.22754 23.5335 11.2222 25.3466 10.9078C26.6398 10.7027 27.2826 9.3533 27.7175 8.25486L28.068 7.24392C27.5245 6.47476 27.7827 6.19758 27.7533 5.32427C27.6986 3.70089 26.1301 3.23843 24.774 3.28312ZM26.2571 12.146L25.7569 12.2079C25.2638 12.2956 24.1768 12.2604 23.7072 12.1771C23.7209 12.3407 23.99 12.6359 24.1022 12.7619C24.711 13.3202 25.474 13.2646 26.0351 12.6512C26.0841 12.5977 26.4641 12.1447 26.2571 12.146ZM27.7169 12.6336C26.9523 14.1373 25.4912 15.1846 23.8212 14.3165C23.1169 13.9505 22.7194 13.3637 22.3387 12.6936L20.0126 13.5501C20.4187 14.1911 21.0631 14.7258 21.6677 15.1736C24.2965 17.0923 26.7143 16.6925 29.0445 14.6161C29.3375 14.3551 29.6494 14.0644 29.8783 13.7451L29.9936 13.5758C29.7035 13.3954 29.3188 13.2978 28.9989 13.1701L27.7169 12.6336Z" fill="white"/>
<path d="M24.8852 47.9421C22.7463 47.8915 20.6509 46.5907 19.3237 44.9757C18.8903 44.4482 18.4116 43.8537 18.71 43.1379C19.2985 41.7269 21.3986 42.4667 22.168 41.0626C22.4156 40.6105 21.87 40.2376 21.5761 39.7566C21.154 39.0658 20.7628 38.0308 21.242 37.2904C21.5326 36.8414 21.5478 37.0727 21.5611 36.5094C21.5965 35.0169 22.2709 34.1082 23.6872 33.5229C23.8782 33.444 24.077 33.4135 24.2653 33.3366L24.257 25.7517L12.7338 25.7556C12.6688 25.8659 12.6567 25.9903 12.609 26.108C12.4089 26.6012 12.1164 27.0599 11.807 27.4907C11.5135 27.8996 11.2149 28.2196 11.4553 28.7476C11.8084 29.5231 14.213 29.3053 13.5918 30.5833C13.2169 31.3548 11.111 32.2523 10.2896 32.5231C8.40037 33.146 7.0012 32.6108 5.2948 31.7493C4.76503 31.4818 3.89326 31.08 3.71055 30.4599C3.37009 29.3044 5.45883 29.7491 6.04863 28.6622C6.32163 28.1592 5.7694 27.6441 5.49129 27.1806L4.9815 26.2695C4.53784 25.4836 4.19429 24.7029 4.75623 23.8223C4.88607 23.6187 4.84344 23.5174 4.84862 23.2747C4.86095 22.6974 4.93769 22.1477 5.21639 21.6329C6.81459 18.6817 12.5288 19.3837 12.7494 22.9759C12.7697 23.3072 12.7138 23.718 12.81 24.0343L12.8668 24.2422C13.1815 24.3042 13.5245 24.2822 13.8448 24.283L23.2237 24.285C23.5568 24.2854 23.9111 24.2628 24.2405 24.3041L24.262 21.5374C24.2595 20.75 23.9778 19.7524 24.9192 19.4337L25.0036 19.4276C25.4918 19.4163 25.7317 19.8962 25.7309 20.3351L25.7406 24.2761L35.8052 24.2816C36.269 24.2813 36.7712 24.3186 37.2288 24.2522C37.3283 23.6675 37.2572 23.0696 37.3664 22.4944C37.988 19.2208 43.5019 18.8673 44.8852 21.7781C45.3019 22.655 45.008 23.4351 45.3474 23.972C45.9847 24.9802 44.8941 26.6834 44.34 27.4992L44.0164 27.9651C43.8626 28.194 43.8704 28.3605 43.9549 28.6268C44.2484 29.5526 45.6441 29.1893 46.1834 29.869C47.1998 31.1503 42.7923 32.687 41.8589 32.799C40.5161 32.9603 39.1649 32.3641 37.9956 31.7816C37.4092 31.4895 36.1803 30.9459 36.3532 30.1025C36.5005 29.384 37.6573 29.5089 38.1365 29.1801C39.2583 28.4103 38.1427 27.5183 37.6967 26.7206L37.3856 26.1211C37.3256 25.9957 37.3004 25.8657 37.209 25.7587L25.7306 25.7433L25.7329 33.3672C25.8504 33.4057 25.9783 33.4058 26.0988 33.4343C27.0333 33.6547 28.0055 34.5678 28.3197 35.4492C28.4981 35.9497 28.2992 36.7353 28.594 37.0657C29.2693 37.8226 29.0655 38.6587 28.5914 39.5159C28.3091 40.0265 27.8048 40.488 27.8567 41.1136C27.9012 41.6488 29.0685 41.9885 29.5001 42.0874C30.3816 42.2893 31.3017 42.3329 31.3444 43.6087C31.3681 44.312 30.7892 44.8952 30.3408 45.3687C28.7832 47.0131 27.1333 47.8828 24.8852 47.9421ZM8.66077 21.2513C7.76802 21.3118 6.57376 21.7501 6.33918 22.7295L6.32934 22.7697C6.22665 23.2202 6.34337 23.6844 6.28635 24.1331C6.21966 24.658 5.78791 24.6973 6.04546 25.1938L6.8985 26.6694C7.41806 27.4729 7.90762 27.9992 8.89306 27.9775C10.262 27.7679 11.065 26.0375 11.5491 24.9026C11.1596 24.1524 11.3203 23.9487 11.2957 23.1354C11.258 21.8936 9.77392 21.1812 8.66077 21.2513ZM40.9118 21.2736C39.9369 21.4173 38.8978 21.9455 38.7672 23.0103L38.7615 23.0531C38.6598 23.8956 38.9143 23.863 38.5042 24.7449C38.3011 25.1816 39.396 26.7427 39.6671 27.0836C40.1827 27.7318 40.714 28.0562 41.5342 27.9722C42.7399 27.7523 43.4029 26.3146 43.8761 25.3178C44.1384 24.7652 44.0115 24.9545 43.8182 24.4141L43.8035 24.3745C43.6538 23.9453 43.8017 23.3939 43.7335 22.9404C43.5462 21.6943 42.0007 21.1813 40.9118 21.2736ZM9.97167 29.1626C9.19527 29.3468 8.23851 29.4422 7.47512 29.1729L7.46402 29.2051C7.27644 29.7348 6.72019 30.2157 6.21337 30.4417L6.06196 30.4978L7.50606 31.1111C9.10502 31.5246 9.89511 31.0513 11.3724 30.4903C10.5712 30.1921 10.3928 29.8066 10.0206 29.1567L9.97167 29.1626ZM42.5329 29.1626L42.498 29.1729C41.8616 29.358 41.0299 29.3904 40.3679 29.3059C40.2677 29.2931 40.0456 29.1428 39.987 29.2555C39.6878 29.8309 39.2553 30.2093 38.6694 30.4871C39.1595 30.7136 39.6381 30.9449 40.1554 31.1042C41.2343 31.3832 42.0997 31.2887 43.128 30.8946L43.9304 30.5487C43.4189 30.2939 42.8061 29.8235 42.6156 29.2608L42.5329 29.1626ZM24.8962 34.776C24.0395 34.8477 23.2443 35.3145 23.0219 36.1816L23.0095 36.229C22.9469 36.4739 22.9646 36.7521 22.9818 37.0025C23.0399 37.8482 22.5054 37.9912 22.4824 38.2668C22.4666 38.4573 23.3038 39.8075 23.458 40.0598C23.8601 40.7178 24.397 41.2584 25.2114 41.2025C26.3698 41.0227 27.1119 39.1455 27.5826 38.2243C26.8514 37.5635 27.11 37.4237 27.1014 36.5654C27.091 35.5438 25.968 34.747 25.0152 34.7701L24.8962 34.776ZM26.145 42.395C25.4252 42.5172 24.6388 42.5475 23.9142 42.4281C23.9347 42.4945 23.9894 42.556 24.0292 42.6128L24.3269 43.0137C24.4723 43.1693 24.635 43.374 24.8657 43.3881C25.4179 43.4217 26.0377 42.9017 26.2231 42.395H26.145ZM22.4401 42.8833C21.6786 43.2617 20.9783 43.5523 20.1401 43.7143C21.3925 45.0806 22.8118 46.3254 24.7756 46.4094C26.0398 46.4634 27.3411 45.9994 28.3285 45.2118C28.8046 44.8323 29.4624 44.2557 29.7882 43.7272C28.9874 43.5493 28.2865 43.2678 27.5649 42.8796C27.1398 43.7145 26.6693 44.4229 25.7271 44.7267C23.4709 45.454 22.6892 42.8833 22.4401 42.8833Z" fill="white"/>
<path d="M8.3554 47.9352C6.0163 48.2175 3.21101 46.388 2.01047 44.4687C1.70686 43.9835 1.5208 43.4788 1.81943 42.9329C2.47377 41.7367 4.30544 42.3668 5.08211 41.2295C5.23727 41.0023 5.29998 40.9491 5.18046 40.7146C4.98045 40.3224 4.66253 39.9994 4.44898 39.6127C4.10334 38.9867 3.71615 37.6417 4.42317 37.096C4.68291 36.8955 4.59906 36.7061 4.60316 36.4114C4.62754 34.6577 5.98112 33.636 7.64588 33.4319C7.6558 33.4298 7.66608 33.43 7.67621 33.4292C9.42385 33.2989 11.2747 34.3445 11.3624 36.2412C11.4027 37.1143 11.2325 36.7253 11.7288 37.3169C12.2006 37.8793 11.8215 39.187 11.4675 39.7792C11.1227 40.356 10.464 40.8855 11.1504 41.4912C12.0132 42.2523 13.2645 41.9113 14.0316 42.5742C14.9132 43.3359 14.3255 44.4322 13.6877 45.1271C12.2689 46.6728 10.5049 47.8418 8.3554 47.9352ZM7.73314 34.8728C6.96734 34.9708 6.26731 35.4319 6.05198 36.1938L6.03969 36.236C5.93023 36.6328 6.06795 37.0426 6.00616 37.4359C5.96052 37.7265 5.47027 38.1683 5.48317 38.3369C5.50357 38.6037 5.83167 39.0697 5.966 39.2992C6.48148 40.1796 7.0901 41.4298 8.31044 41.2055C8.99673 41.0062 9.33631 40.4622 9.69125 39.8833L10.5754 38.2946C9.80918 37.5611 10.0791 37.4521 10.0327 36.5504C9.98086 35.5438 8.79337 34.8356 7.87495 34.8653C7.8417 34.8664 7.76144 34.862 7.73314 34.8728ZM6.84603 42.4396C7.29134 43.0806 7.81072 43.7672 8.60161 43.1725L8.8735 42.9246L9.22921 42.4195C8.46042 42.5899 7.62092 42.5505 6.84603 42.4396ZM5.42851 42.8589C4.71477 43.2574 3.97857 43.5667 3.15391 43.6343C5.27373 46.4072 8.41521 47.4358 11.365 45.2565C11.8989 44.8313 12.4808 44.315 12.8371 43.7261C12.0548 43.5228 11.2852 43.2563 10.5748 42.8651C9.40013 45.3633 7.00725 45.6428 5.6109 43.1028C5.57204 43.0321 5.50909 42.8646 5.42851 42.8589Z" fill="white"/>
<path d="M42.4587 47.9056C40.1712 48.052 38.1883 47.062 36.6258 45.4129C36.0755 44.8321 35.3512 44.0149 35.6402 43.1495C36.1736 41.5524 38.577 42.6494 39.202 40.7939C39.1476 40.6492 39.0118 40.5005 38.9194 40.3782C38.3873 39.6744 37.8322 38.5955 38.095 37.7104L38.1074 37.6709C38.322 36.9785 38.5821 37.362 38.6088 36.4313C38.656 34.7815 39.8633 33.6556 41.4752 33.4318L41.4799 33.4311C43.2642 33.2628 45.1653 34.222 45.3648 36.1569C45.3898 36.4001 45.349 36.6848 45.4095 36.9185C45.4519 37.0823 45.8494 37.275 45.9194 37.7618L45.9251 37.8052C46.1538 39.3888 45.0551 39.938 44.7916 41.041C45.0707 42.0972 47.0959 41.9596 47.8235 42.5333C48.8391 43.334 48.1586 44.3869 47.4985 45.1613C46.2645 46.6091 44.3829 47.754 42.4587 47.9056ZM41.838 34.8727C41.2523 34.9441 40.6664 35.2185 40.3005 35.6931C39.7448 36.4137 40.1818 37.1691 39.9709 37.6221L39.9543 37.6586C39.8731 37.8278 39.4372 38.2081 39.4889 38.3647C39.6568 38.8737 39.9978 39.3349 40.2687 39.7958C40.764 40.6383 41.1496 41.2762 42.2185 41.1943C42.8801 41.0482 43.2188 40.633 43.57 40.0857L44.5556 38.2762C43.6861 37.5266 44.1716 37.2586 44.0039 36.3213C43.8491 35.4563 42.7204 34.8258 41.909 34.8675L41.838 34.8727ZM43.0601 42.4418C42.2864 42.5453 41.5612 42.5437 40.7874 42.4462C40.9076 42.6613 41.0801 42.8557 41.247 43.036C41.8125 43.5675 42.2861 43.5291 42.8243 42.9191L43.1601 42.4561L43.0601 42.4418ZM44.5248 42.8435C44.0749 44.0565 42.8745 45.1216 41.5039 44.8087L41.4584 44.7987C40.1897 44.5139 40.0142 43.6993 39.4119 42.8747L38.7095 43.2002C38.1838 43.4212 37.6287 43.5893 37.0594 43.6456C37.4991 44.2402 38.0388 44.7499 38.6093 45.2171C41.4723 47.3816 44.6192 46.4689 46.7324 43.7532L46.7368 43.7242C45.9677 43.531 45.2 43.2699 44.5248 42.8435Z" fill="white"/>
</svg>
