<svg width="90" height="90" viewBox="0 0 90 90" fill="none" xmlns="http://www.w3.org/2000/svg">
<path d="M82.2271 45.453C82.2271 40.6807 81.2818 35.9551 79.4451 31.546C77.6085 27.137 74.9164 23.1308 71.5227 19.7562C68.129 16.3817 64.1001 13.7049 59.666 11.8786C55.2319 10.0523 50.4794 9.1123 45.68 9.1123C35.9871 9.1123 26.6912 12.941 19.8372 19.7562C12.9833 26.5714 9.13281 35.8148 9.13281 45.453C9.13281 55.0911 12.9833 64.3345 19.8372 71.1497C26.6912 77.9649 35.9871 81.7937 45.68 81.7937C50.4794 81.7937 55.2319 80.8537 59.666 79.0274C64.1001 77.2011 68.129 74.5243 71.5227 71.1497C74.9164 67.7752 77.6085 63.769 79.4451 59.36C81.2818 54.9509 82.2271 50.2253 82.2271 45.453Z" stroke="#94AAB8" stroke-width="2"/>
<path d="M57.9833 30.4837C57.9833 27.2404 56.6876 24.13 54.3812 21.8366C52.0748 19.5433 48.9467 18.2549 45.685 18.2549C42.4233 18.2549 39.2952 19.5433 36.9888 21.8366C34.6824 24.13 33.3867 27.2404 33.3867 30.4837C33.3867 33.727 34.6824 36.8374 36.9888 39.1308C39.2952 41.4241 42.4233 42.7125 45.685 42.7125C48.9467 42.7125 52.0748 41.4241 54.3812 39.1308C56.6876 36.8374 57.9833 33.727 57.9833 30.4837Z" stroke="#94AAB8" stroke-width="2"/>
<path d="M69.2383 60.2645C68.5224 50.6544 50.1491 47.1866 42.9542 47.934C37.2218 48.529 22.4434 52.0984 22.2133 59.8069C22.1962 60.4646 22.4247 61.1154 22.8985 61.7595C28.6514 69.5442 37.4877 73.8612 47.1627 73.3629C55.8508 72.9154 64.3445 68.3137 69.1207 60.7374C69.2071 60.595 69.2482 60.4301 69.2383 60.2645Z" stroke="#94AAB8" stroke-width="2"/>
<path d="M45.6146 82.8302C40.6836 82.8216 35.8025 81.8457 31.2501 79.9581C26.6977 78.0705 22.5631 75.3082 19.0824 71.8289C15.6018 68.3496 12.8431 64.2215 10.9641 59.6802C9.085 55.139 8.12229 50.2735 8.13092 45.3616C8.14833 35.4417 12.1211 25.9349 19.1753 18.9326C26.2295 11.9303 35.7872 8.00621 45.746 8.02349C50.677 8.03205 55.5581 9.00799 60.1105 10.8956C64.6629 12.7832 68.7975 15.5455 72.2782 19.0248C75.7588 22.504 78.5175 26.6322 80.3965 31.1734C82.2756 35.7147 83.2383 40.5801 83.2297 45.492C83.2123 55.412 79.2395 64.9188 72.1853 71.9211C65.1311 78.9233 55.5734 82.8475 45.6146 82.8302ZM82.2275 45.4523C82.2275 40.6799 81.2821 35.9543 79.4455 31.5453C77.6088 27.1362 74.9168 23.1301 71.523 19.7555C68.1293 16.381 64.1004 13.7041 59.6663 11.8778C55.2322 10.0516 50.4797 9.11158 45.6803 9.11158C35.9874 9.11158 26.6915 12.9403 19.8376 19.7555C12.9836 26.5707 9.13314 35.8141 9.13314 45.4523C9.13314 55.0904 12.9836 64.3338 19.8376 71.149C26.6915 77.9642 35.9874 81.7929 45.6803 81.7929C50.4797 81.7929 55.2322 80.853 59.6663 79.0267C64.1004 77.2004 68.1293 74.5235 71.523 71.149C74.9168 67.7745 77.6088 63.7683 79.4455 59.3592C81.2821 54.9502 82.2275 50.2246 82.2275 45.4523Z" fill="white"/>
<path d="M82.2271 45.453C82.2271 50.2253 81.2818 54.9509 79.4451 59.36C77.6085 63.769 74.9164 67.7752 71.5227 71.1497C68.129 74.5243 64.1001 77.2011 59.666 79.0274C55.2319 80.8537 50.4794 81.7937 45.68 81.7937C35.9871 81.7937 26.6912 77.9649 19.8372 71.1497C12.9833 64.3345 9.13281 55.0911 9.13281 45.453C9.13281 35.8148 12.9833 26.5714 19.8372 19.7562C26.6912 12.941 35.9871 9.1123 45.68 9.1123C50.4794 9.1123 55.2319 10.0523 59.666 11.8786C64.1001 13.7049 68.129 16.3817 71.5227 19.7562C74.9164 23.1308 77.6085 27.137 79.4451 31.546C81.2818 35.9551 82.2271 40.6807 82.2271 45.453ZM57.9834 30.4835C57.9834 27.2402 56.6877 24.1298 54.3813 21.8364C52.0749 19.5431 48.9468 18.2547 45.6851 18.2547C42.4234 18.2547 39.2953 19.5431 36.9889 21.8364C34.6825 24.1298 33.3868 27.2402 33.3868 30.4835C33.3868 33.7268 34.6825 36.8372 36.9889 39.1306C39.2953 41.4239 42.4234 42.7123 45.6851 42.7123C48.9468 42.7123 52.0749 41.4239 54.3813 39.1306C56.6877 36.8372 57.9834 33.7268 57.9834 30.4835ZM69.2385 60.2648C68.5226 50.6547 50.1493 47.1869 42.9544 47.9343C37.222 48.5293 22.4436 52.0987 22.2135 59.8072C22.1964 60.4649 22.4249 61.1157 22.8987 61.7598C28.6516 69.5445 37.4879 73.8615 47.1629 73.3632C55.851 72.9157 64.3447 68.314 69.1209 60.7377C69.2074 60.5953 69.2484 60.4304 69.2385 60.2648Z" fill="#285471"/>
<path d="M45.685 42.7115C52.4772 42.7115 57.9833 37.2365 57.9833 30.4827C57.9833 23.7289 52.4772 18.2539 45.685 18.2539C38.8929 18.2539 33.3867 23.7289 33.3867 30.4827C33.3867 37.2365 38.8929 42.7115 45.685 42.7115Z" fill="white"/>
<path d="M42.9547 47.934C50.1496 47.1866 68.5229 50.6544 69.2388 60.2645C69.2486 60.4301 69.2076 60.595 69.1212 60.7374C64.345 68.3137 55.8513 72.9154 47.1632 73.3629C37.4882 73.8612 28.6518 69.5442 22.899 61.7595C22.4251 61.1154 22.1967 60.4646 22.2138 59.8069C22.4439 52.0984 37.2223 48.529 42.9547 47.934Z" fill="white"/>
</svg>
