<svg width="24" height="24" viewBox="0 0 24 24" fill="none" xmlns="http://www.w3.org/2000/svg">
<path d="M22.7083 5.99007C22.8625 5.41975 22.7083 5 21.9667 5H19.5125C18.8875 5 18.6 5.36044 18.4458 5.76193C18.4458 5.76193 17.1958 9.09713 15.4292 11.2598C14.8583 11.8848 14.5958 12.0855 14.2833 12.0855C14.1292 12.0855 13.8917 11.8848 13.8917 11.3145V5.99007C13.8917 5.30569 13.7167 5 13.2 5H9.34169C8.95002 5 8.71669 5.31938 8.71669 5.61594C8.71669 6.26382 9.60002 6.41438 9.69169 8.23937V12.1996C9.69169 13.0665 9.55002 13.2262 9.23752 13.2262C8.40419 13.2262 6.37919 9.87732 5.17919 6.04482C4.93752 5.30113 4.70002 5 4.07085 5H1.61669C0.91669 5 0.775024 5.36044 0.775024 5.76193C0.775024 6.47368 1.60835 10.0096 4.65419 14.6817C6.68335 17.8708 9.54169 19.6 12.1417 19.6C13.7042 19.6 13.8958 19.2167 13.8958 18.5552C13.8958 15.5074 13.7542 15.22 14.5375 15.22C14.9 15.22 15.525 15.4208 16.9833 16.9583C18.65 18.7833 18.925 19.6 19.8583 19.6H22.3125C23.0125 19.6 23.3667 19.2167 23.1625 18.4594C22.6958 16.8671 19.5417 13.5912 19.4 13.3722C19.0375 12.8612 19.1417 12.633 19.4 12.1768C19.4042 12.1723 22.4 7.555 22.7083 5.99007Z" fill="#285471"/>
</svg>
