<svg width="24" height="22" viewBox="0 0 24 22" fill="none" xmlns="http://www.w3.org/2000/svg">
<path d="M22.9023 5.17012C22.6406 4.18471 21.8695 3.40862 20.8905 3.14525C19.1159 2.66666 12 2.66666 12 2.66666C12 2.66666 4.88417 2.66666 3.10954 3.14525C2.1305 3.40866 1.35942 4.18471 1.09771 5.17012C0.622208 6.95625 0.622208 10.6828 0.622208 10.6828C0.622208 10.6828 0.622208 14.4094 1.09771 16.1955C1.35942 17.181 2.1305 17.9247 3.10954 18.1881C4.88417 18.6667 12 18.6667 12 18.6667C12 18.6667 19.1158 18.6667 20.8905 18.1881C21.8695 17.9247 22.6406 17.181 22.9023 16.1955C23.3778 14.4094 23.3778 10.6828 23.3778 10.6828C23.3778 10.6828 23.3778 6.95625 22.9023 5.17012ZM9.67271 14.0663V7.29937L15.6202 10.6829L9.67271 14.0663Z" fill="#269A48"/>
</svg>
